STARTFONT 2.1
FONT -FontForge-Bremlin-Regular-R-Normal--40-380-75-75-P-267-ISO10646-1
SIZE 38 75 75
FONTBOUNDINGBOX 47 45 -8 -13
COMMENT "Generated by fontforge, http://fontforge.sourceforge.net"
COMMENT "Copyright \(c\) 2022 by Akhmad Reza Fauzi. All rights reserved."
STARTPROPERTIES 40
FOUNDRY "FontForge"
FAMILY_NAME "Bremlin"
WEIGHT_NAME "Regular"
SLANT "R"
SETWIDTH_NAME "Normal"
ADD_STYLE_NAME ""
PIXEL_SIZE 40
POINT_SIZE 380
RESOLUTION_X 75
RESOLUTION_Y 75
SPACING "P"
AVERAGE_WIDTH 267
CHARSET_REGISTRY "ISO10646"
CHARSET_ENCODING "1"
FONTNAME_REGISTRY ""
CHARSET_COLLECTIONS "ISO10646-1"
FONT_NAME "Bremlin-Regular"
FACE_NAME "Bremlin Regular"
COPYRIGHT "Copyright \(c\) 2022 by Akhmad Reza Fauzi. All rights reserved."
FONT_VERSION "Version 1.000"
FONT_ASCENT 32
FONT_DESCENT 8
UNDERLINE_POSITION -5
UNDERLINE_THICKNESS 2
X_HEIGHT 20
CAP_HEIGHT 26
DEFAULT_CHAR 1
RAW_ASCENT 800
RAW_DESCENT 200
NORM_SPACE 9
RELATIVE_WEIGHT 40
RELATIVE_SETWIDTH 50
SUPERSCRIPT_X 0
SUPERSCRIPT_Y 14
SUPERSCRIPT_SIZE 24
SUBSCRIPT_X 0
SUBSCRIPT_Y 3
SUBSCRIPT_SIZE 24
AVG_LOWERCASE_WIDTH 238
AVG_UPPERCASE_WIDTH 271
ENDPROPERTIES
CHARS 95
STARTCHAR space
ENCODING 32
SWIDTH 220 0
DWIDTH 9 0
BBX 1 1 0 0
BITMAP
00
ENDCHAR
STARTCHAR exclam
ENCODING 33
SWIDTH 270 0
DWIDTH 11 0
BBX 9 30 1 -1
BITMAP
3E00
7F00
FF00
FF80
FF80
FF80
FF00
7F00
7F00
7F00
7F00
7F00
7E00
3E00
3E00
3E00
3E00
3C00
1C00
1800
0000
0000
3E00
7F00
FF00
FF80
FF80
FF00
7F00
3E00
ENDCHAR
STARTCHAR quotedbl
ENCODING 34
SWIDTH 419 0
DWIDTH 17 0
BBX 15 12 1 17
BITMAP
3878
7CFC
FEFC
FEFE
FEFC
7EFC
7CFC
7C7C
7C78
3878
3838
3830
ENDCHAR
STARTCHAR numbersign
ENCODING 35
SWIDTH 694 0
DWIDTH 28 0
BBX 26 28 1 -1
BITMAP
000F0780
001F0F00
001E0F00
003E1F00
003C1E00
003C1E00
007C3C00
00783C00
0FFFFF80
1FFFFFC0
1FFFFFC0
01E0F000
01E0F000
03E1F000
03C1E000
03C1E000
07C3E000
FFFFFC00
FFFFFE00
FFFFFC00
0F078000
1F0F8000
1E0F0000
3E1F0000
3C1E0000
3C1E0000
7C3C0000
783C0000
ENDCHAR
STARTCHAR dollar
ENCODING 36
SWIDTH 705 0
DWIDTH 28 0
BBX 26 37 1 -5
BITMAP
000C0000
000C0000
000C0000
000C0000
00FFE000
07FFFC00
1FFFFE00
3FFFFF00
3FCCFF80
7F8C7F80
7F8C7F80
7F8C7F80
7F8C7F80
7FCC3F00
7FEC0C00
3FFC0000
3FFF0000
1FFFE000
07FFF800
03FFFE00
00FFFF00
001FFF80
1C0FFFC0
7F0CFFC0
FF0C7FC0
FF0C7FC0
FF8C7FC0
FF8C7FC0
FFCCFF80
7FFFFF00
3FFFFE00
0FFFFC00
01FFC000
000C0000
000C0000
000C0000
000C0000
ENDCHAR
STARTCHAR percent
ENCODING 37
SWIDTH 971 0
DWIDTH 39 0
BBX 37 30 1 -1
BITMAP
07F0000000
1FFC001E00
3FFE003C00
7E3F007800
7E3F007000
FC3F80F000
FC1F81E000
FC1F83C000
FC1F878000
FC1F878000
FC3F8F0000
7E3F1E0000
7E3F3C0000
3FFE3C0000
1FFC787F00
07F0F1FFC0
0001E3FFE0
0001C7E3F0
0003C7E3F0
00078FC3F8
000F0FC1F8
001E0FC1F8
001E0FC1F8
003C0FC1F8
00780FC3F8
00F007E3F0
00F007E3F0
01E003FFE0
03C001FFC0
0000007F00
ENDCHAR
STARTCHAR ampersand
ENCODING 38
SWIDTH 689 0
DWIDTH 28 0
BBX 26 30 1 -1
BITMAP
00FC0000
03FF0000
07FF8000
0FFFC000
0F87C000
1F87C000
1F87E000
1F87C000
0FCFC000
0FCFC000
0FFF8000
07FF8000
07FF0000
03FE3F80
0FFC3F80
1FFC3F00
3FFE1E00
7FFF1C00
7F3F1C00
FE3F9C00
FC1FFC00
FC0FF800
FC0FF800
FE07F800
FE03FC00
7F03FFC0
7FFFFFC0
3FFFFFC0
1FFF7F80
07F83E00
ENDCHAR
STARTCHAR quotesingle
ENCODING 39
SWIDTH 228 0
DWIDTH 9 0
BBX 7 12 1 17
BITMAP
38
7C
FE
FE
FE
7E
7C
7C
7C
38
38
38
ENDCHAR
STARTCHAR parenleft
ENCODING 40
SWIDTH 323 0
DWIDTH 13 0
BBX 11 32 1 -2
BITMAP
00E0
03C0
0780
0F80
0F00
1F00
3F00
3E00
3E00
7E00
7E00
7E00
FE00
FC00
FC00
FC00
FC00
FC00
FC00
FE00
7E00
7E00
7E00
3E00
3E00
3F00
1F00
0F00
0F80
0780
03C0
00E0
ENDCHAR
STARTCHAR parenright
ENCODING 41
SWIDTH 323 0
DWIDTH 13 0
BBX 11 32 1 -2
BITMAP
E000
7000
7800
3C00
3E00
1F00
1F00
1F80
0F80
0FC0
0FC0
0FC0
0FC0
0FE0
0FE0
0FE0
0FE0
0FE0
0FE0
0FC0
0FC0
0FC0
0FC0
0F80
1F80
1F00
1F00
3E00
3E00
7C00
7800
E000
ENDCHAR
STARTCHAR asterisk
ENCODING 42
SWIDTH 424 0
DWIDTH 17 0
BBX 15 16 1 13
BITMAP
0380
0380
0380
739C
FBBE
FFFE
7FFC
0FE0
0FE0
7FFC
FFFE
FBBE
739C
0380
0380
0380
ENDCHAR
STARTCHAR plus
ENCODING 43
SWIDTH 430 0
DWIDTH 17 0
BBX 15 15 1 6
BITMAP
0380
0380
0380
0380
0380
0380
FFFE
FFFE
FFFE
0380
0380
0380
0380
0380
0380
ENDCHAR
STARTCHAR comma
ENCODING 44
SWIDTH 269 0
DWIDTH 11 0
BBX 9 12 1 -5
BITMAP
3C00
7F00
FF00
FF00
FF80
FF00
7F00
3F00
0E00
1C00
3C00
3000
ENDCHAR
STARTCHAR hyphen
ENCODING 45
SWIDTH 415 0
DWIDTH 17 0
BBX 14 3 1 10
BITMAP
FFFC
FFFC
FFFC
ENDCHAR
STARTCHAR period
ENCODING 46
SWIDTH 269 0
DWIDTH 11 0
BBX 9 8 1 -1
BITMAP
3E00
7F00
FF00
FF80
FF80
FF00
7F00
3E00
ENDCHAR
STARTCHAR slash
ENCODING 47
SWIDTH 506 0
DWIDTH 20 0
BBX 19 31 1 -2
BITMAP
0001E0
0003C0
0003C0
000780
000780
000F00
000F00
001E00
001E00
003C00
003C00
007800
007800
00F000
00F000
01E000
01E000
03C000
03C000
078000
078000
0F0000
0F0000
1E0000
1E0000
3C0000
3C0000
780000
780000
F00000
E00000
ENDCHAR
STARTCHAR zero
ENCODING 48
SWIDTH 617 0
DWIDTH 25 0
BBX 23 30 1 -1
BITMAP
00FE00
03FF80
07FFC0
0FFFE0
1FC7F0
3F83F8
3F83F8
7F01FC
7F01FC
7F01FC
7F01FC
FF01FE
FF01FE
FF01FE
FF01FE
FF01FE
FF01FE
FF01FE
FF01FE
7F01FC
7F01FC
7F01FC
7F01FC
3F83F8
3F83F8
1FC7F0
0FFFE0
07FFC0
03FF80
00FE00
ENDCHAR
STARTCHAR one
ENCODING 49
SWIDTH 294 0
DWIDTH 12 0
BBX 10 29 1 -1
BITMAP
0300
0F00
3F00
FF00
FF00
FF00
7F00
7F00
3F00
3F00
3F00
3F00
3F00
3F00
3F00
3F00
3F00
3F00
3F00
3F00
3F00
3F00
3F00
7F80
7F80
7FC0
FFC0
FFC0
7F80
ENDCHAR
STARTCHAR two
ENCODING 50
SWIDTH 606 0
DWIDTH 24 0
BBX 22 30 1 -1
BITMAP
01FE00
07FFC0
1FFFE0
3FFFF0
7FC3F8
7F83F8
7F83FC
7F83FC
7F83FC
7F03FC
1F07FC
000FF8
001FF8
003FF0
007FE0
01FFC0
03FF80
07FE00
0FFC00
1FF000
3F8000
7F0000
7C001C
78003C
FFFFFC
FFFFFC
FFFFFC
FFFFFC
FFFFF8
FFFFF8
ENDCHAR
STARTCHAR three
ENCODING 51
SWIDTH 605 0
DWIDTH 24 0
BBX 23 30 0 -1
BITMAP
00FF00
07FFE0
1FFFF0
3FFFF8
3FC3FC
7FC1FC
7F81FE
7F81FE
3F81FE
3F81FE
0E03FC
0007FC
003FF8
003FF8
003FF0
003FF8
0007FC
0001FC
0001FE
3E00FE
7F00FE
7F00FE
FF80FE
FF80FE
7F81FE
7FC3FC
3FFFFC
1FFFF8
0FFFE0
01FF00
ENDCHAR
STARTCHAR four
ENCODING 52
SWIDTH 566 0
DWIDTH 23 0
BBX 22 28 0 -1
BITMAP
0007C0
000FE0
000FE0
001FE0
003FE0
007FE0
00FFE0
00FFE0
01EFE0
03EFE0
07CFE0
0F8FE0
0F0FE0
1E0FE0
3E0FE0
7C0FE0
7FFFF8
FFFFFC
FFFFFC
7FFFFC
000FE0
000FE0
000FE0
000FF0
001FF0
001FF0
001FF0
001FF0
ENDCHAR
STARTCHAR five
ENCODING 53
SWIDTH 605 0
DWIDTH 24 0
BBX 23 29 0 -1
BITMAP
07FFFC
07FFFE
0FFFFE
0FFFFE
0FFFFE
0FFFFC
0E0000
1E0000
1E0000
1E0000
1EFF00
1FFFE0
1FFFF8
3FFFFC
3F03FC
3C01FE
0001FE
0000FE
1C00FE
3F00FE
7F00FE
FF80FE
FF81FE
7F81FE
7FC3FC
3FFFF8
1FFFF0
0FFFE0
01FF00
ENDCHAR
STARTCHAR six
ENCODING 54
SWIDTH 607 0
DWIDTH 24 0
BBX 22 30 1 -1
BITMAP
00FF00
07FFC0
0FFFF0
1FFFF8
3F87F8
3F83FC
7F03FC
7F03FC
7F01F8
FF00F0
FE0000
FE3800
FFFF80
FFFFE0
FFFFF0
FF87F8
FF03F8
FF03FC
FF01FC
FE01FC
FE01FC
FE01FC
7E01FC
7F01FC
7F03FC
3F87F8
1FFFF0
0FFFE0
07FFC0
00FE00
ENDCHAR
STARTCHAR seven
ENCODING 55
SWIDTH 517 0
DWIDTH 21 0
BBX 20 28 1 -1
BITMAP
FFFFF0
FFFFF0
FFFFF0
FFFFE0
FFFFE0
FFFFC0
0007C0
000F80
001F80
001F00
003F00
003E00
007E00
00FC00
00FC00
01FC00
01F800
03F800
03F800
03F000
07F000
07F000
07F000
0FF000
0FF000
0FE000
0FE000
0FE000
ENDCHAR
STARTCHAR eight
ENCODING 56
SWIDTH 597 0
DWIDTH 24 0
BBX 23 30 0 -1
BITMAP
00FF00
07FFC0
0FFFF0
1FFFF8
3FC3F8
3F81FC
3F81FC
7F81FC
7F81FE
7F81FC
3F81FC
3F83FC
1FC3F8
1FFFF8
07FFE0
1FFFF8
3FFFFC
7F83FC
7F81FE
7F00FE
FF00FE
FF00FE
FF00FE
7F00FE
7F81FE
3F83FC
3FFFFC
1FFFF0
07FFE0
00FF00
ENDCHAR
STARTCHAR nine
ENCODING 57
SWIDTH 607 0
DWIDTH 24 0
BBX 22 30 1 -1
BITMAP
01FE00
0FFF80
1FFFC0
3FFFE0
7F87F0
7F03F8
FF01F8
FE01FC
FE01FC
FE01FC
FE01FC
FF01FC
FF03FC
7F03FC
7F87FC
3FFFFC
0FFFFC
07FFFC
0071FC
0001FC
1E01FC
7F03FC
7F03F8
7F03F8
7F07F0
7F87F0
7FFFE0
3FFFC0
0FFF80
03FE00
ENDCHAR
STARTCHAR colon
ENCODING 58
SWIDTH 269 0
DWIDTH 11 0
BBX 9 23 1 -1
BITMAP
3C00
7F00
FF00
FF80
FF80
FF00
7F00
3E00
0000
0000
0000
0000
0000
0000
0000
3E00
7F00
FF00
FF80
FF80
FF00
7F00
3E00
ENDCHAR
STARTCHAR semicolon
ENCODING 59
SWIDTH 269 0
DWIDTH 11 0
BBX 9 27 1 -5
BITMAP
3C00
7F00
FF00
FF80
FF80
FF00
7F00
3E00
0000
0000
0000
0000
0000
0000
0000
3E00
7F00
FF00
FF00
FF80
FF00
7F00
3F00
0E00
1C00
3C00
3000
ENDCHAR
STARTCHAR less
ENCODING 60
SWIDTH 560 0
DWIDTH 22 0
BBX 20 18 1 3
BITMAP
000070
0001F0
000FF0
007FF0
01FFC0
0FFE00
7FF000
FFC000
FE0000
FE0000
FFC000
3FF800
0FFE00
01FFC0
003FF0
000FF0
0001F0
000030
ENDCHAR
STARTCHAR equal
ENCODING 61
SWIDTH 404 0
DWIDTH 16 0
BBX 14 8 1 10
BITMAP
FFFC
FFFC
FFFC
0000
0000
FFFC
FFFC
FFFC
ENDCHAR
STARTCHAR greater
ENCODING 62
SWIDTH 560 0
DWIDTH 22 0
BBX 20 18 1 3
BITMAP
E00000
FC0000
FF0000
7FE000
1FFC00
07FF00
00FFE0
001FF0
0007F0
0007F0
003FF0
00FFE0
07FF00
3FF800
FFE000
FF0000
F80000
E00000
ENDCHAR
STARTCHAR question
ENCODING 63
SWIDTH 573 0
DWIDTH 23 0
BBX 21 30 1 -1
BITMAP
03FC00
1FFF80
3FFFC0
7FFFE0
7F87F0
FF07F0
FF07F8
FF07F8
7E07F8
3E0FF0
000FF0
001FE0
003FC0
003F80
007E00
007800
00F000
00F000
00F000
006000
000000
000000
00F000
01F800
03FC00
03FC00
03FC00
03FC00
01F800
00F000
ENDCHAR
STARTCHAR at
ENCODING 64
SWIDTH 864 0
DWIDTH 35 0
BBX 32 30 1 -1
BITMAP
000FFC00
007FFF80
01FFFFE0
03FC07F0
07E001F8
0F8000FC
1F0FC67E
3E1FEF3E
3E3FFF1F
7C7C3F1F
7C7C3F1F
787C3F0F
F8FC3F0F
F8F83F0F
F8F83F0F
F8F83F0F
F8FC3F1F
F87C3F1E
787C3F1E
7C7C3F3C
7C3E7F7C
3E1FEFF8
3E0FC7E0
1F000000
1F80001C
0FE00078
03FC07F0
01FFFFC0
007FFF80
000FFC00
ENDCHAR
STARTCHAR A
ENCODING 65
SWIDTH 689 0
DWIDTH 28 0
BBX 26 28 1 -1
BITMAP
01FC0000
03FF0000
03FF0000
01FF0000
00FF8000
00FF8000
00FFC000
00FFC000
01FFC000
01FFE000
03FFE000
03CFE000
03CFF000
07CFF000
0787F800
0787F800
0F03F800
0F03FC00
1FFFFC00
1FFFFE00
1FFFFE00
3FFFFE00
3C00FF00
7C00FF80
FE01FF80
FE01FFC0
FE01FFC0
FE01FF80
ENDCHAR
STARTCHAR B
ENCODING 66
SWIDTH 673 0
DWIDTH 27 0
BBX 25 28 1 -1
BITMAP
7FFE0000
FFFFE000
FFFFF000
7FFFF800
7F83FC00
7F01FC00
3F01FE00
3F01FE00
3F01FE00
3F01FE00
3F01FC00
3F83FC00
3FFFF800
3FFFF000
3FFFFC00
3FFFFE00
3F81FF00
3F007F80
3F007F80
3F003F80
3F003F80
3F007F80
7F007F80
7F80FF00
7FFFFF00
FFFFFE00
FFFFF800
7FFFC000
ENDCHAR
STARTCHAR C
ENCODING 67
SWIDTH 734 0
DWIDTH 29 0
BBX 27 30 1 -1
BITMAP
003FC000
01FFF800
03FFFE00
07FFFF00
0FE1FF80
1FC0FFC0
3F807FC0
3F807FE0
7F007FE0
7F007FE0
7F007FE0
FE003FC0
FE003F80
FE000F00
FE000000
FE000000
FF000000
FF000020
FF800060
7F8000E0
7FC001E0
7FE007C0
3FF81FC0
3FFFFF80
1FFFFF00
0FFFFF00
07FFFE00
03FFF800
00FFF000
003F8000
ENDCHAR
STARTCHAR D
ENCODING 68
SWIDTH 657 0
DWIDTH 26 0
BBX 24 28 1 -1
BITMAP
7FFC00
FFFF80
FFFFE0
7FFFF0
7F83F8
7F01FC
3F00FC
3F00FE
3F00FE
3F007F
3F007F
3F007F
3F007F
3F007F
3F007F
3F007F
3F007F
3F007F
3F007F
3F00FE
3F00FE
3F01FC
7F01FC
7F83F8
7FFFF0
FFFFE0
FFFF80
7FFC00
ENDCHAR
STARTCHAR E
ENCODING 69
SWIDTH 577 0
DWIDTH 23 0
BBX 21 31 1 -1
BITMAP
0000E0
7FFFF0
FFFFF0
FFFFF0
FFFFF8
7F80F8
7F0078
3F0078
3F0038
3F0000
3F0000
3F0000
3F0080
3F01C0
3FFFC0
3FFFC0
3FFFC0
3FFFC0
3F03C0
3F0180
3F0000
3F0000
3F0000
3F0038
3F0038
7F0078
7F80F8
FFFFF8
FFFFF8
FFFFF0
7FFFF0
ENDCHAR
STARTCHAR F
ENCODING 70
SWIDTH 567 0
DWIDTH 23 0
BBX 21 31 1 -1
BITMAP
0000E0
7FFFF0
FFFFF0
FFFFF0
7FFFF8
7F80F8
7F0078
3F0078
3F0038
3F0000
3F0000
3F0000
3F0180
3F03C0
3FFFC0
3FFFC0
3FFFC0
3FFFC0
3F01C0
3F0080
3F0000
3F0000
3F0000
3F0000
3F8000
7F8000
7F8000
FFC000
FFC000
FFC000
7F8000
ENDCHAR
STARTCHAR G
ENCODING 71
SWIDTH 736 0
DWIDTH 29 0
BBX 28 30 1 -1
BITMAP
001FF000
00FFFC00
03FFFF00
07FFFF80
0FF07FC0
1FC07FC0
3FC03FC0
3F803FC0
7F001FC0
7F001FC0
7F000F80
FF000000
FE000000
FE000000
FE001FE0
FE003FF0
FE003FF0
FF001FE0
FF001FE0
7F001FC0
7F800FC0
7F800FC0
3FC00FC0
3FE01FC0
1FFCFFC0
0FFFFF80
07FFFF00
03FFFE00
00FFF800
003FC000
ENDCHAR
STARTCHAR H
ENCODING 72
SWIDTH 693 0
DWIDTH 28 0
BBX 26 28 1 -1
BITMAP
7F807F80
FFC0FFC0
FFC0FFC0
FFC0FFC0
7F807F80
7F807F80
3F803F00
3F003F00
3F003F00
3F003F00
3F003F00
3F003F00
3FFFFF00
3FFFFF00
3FFFFF00
3FFFFF00
3F003F00
3F003F00
3F003F00
3F003F00
3F003F00
3F003F00
7F807F80
7F807F80
7FC0FFC0
FFC0FFC0
FFC0FFC0
7F807F80
ENDCHAR
STARTCHAR I
ENCODING 73
SWIDTH 294 0
DWIDTH 12 0
BBX 10 28 1 -1
BITMAP
7F80
FFC0
FFC0
7FC0
7F80
7F80
3F80
3F00
3F00
3F00
3F00
3F00
3F00
3F00
3F00
3F00
3F00
3F00
3F00
3F00
3F00
3F00
7F80
7F80
7FC0
FFC0
FFC0
7F80
ENDCHAR
STARTCHAR J
ENCODING 74
SWIDTH 511 0
DWIDTH 20 0
BBX 20 29 0 -1
BITMAP
001FC0
003FE0
003FF0
003FE0
003FE0
001FE0
001FC0
001FC0
001FC0
001FC0
001FC0
001FC0
001FC0
001FC0
001FC0
001FC0
001FC0
181FC0
7E1FC0
7E1FC0
7E1FC0
FE1FC0
FE1FC0
7E1FC0
7E1F80
3FFF80
3FFF00
0FFE00
03F000
ENDCHAR
STARTCHAR K
ENCODING 75
SWIDTH 689 0
DWIDTH 28 0
BBX 26 29 1 -1
BITMAP
3F80FE00
FFC1FF00
FFC1FF00
FFC1FE00
7F81F800
7F83E000
3F87C000
3F0F8000
3F1F0000
3F3F0000
3F7E0000
3FFF0000
3FFFC000
3FFFE000
3FFFF000
3FEFF000
3FC7F800
3F83F800
3F03FC00
3F03FC00
3F03FC00
3F01FE00
3F01FE00
7F81FF00
7F81FF00
FFC0FFC0
FFC0FFC0
FFC07FC0
7F803F00
ENDCHAR
STARTCHAR L
ENCODING 76
SWIDTH 556 0
DWIDTH 22 0
BBX 21 28 1 -1
BITMAP
7F8000
FFC000
FFC000
7FC000
7F8000
7F8000
3F8000
3F0000
3F0000
3F0000
3F0000
3F0000
3F0000
3F0000
3F0000
3F0000
3F0000
3F0000
3F0000
3F0000
3F0038
3F0078
7F00F0
7F81F0
7FFFF0
FFFFF0
FFFFE0
7FFFE0
ENDCHAR
STARTCHAR M
ENCODING 77
SWIDTH 831 0
DWIDTH 33 0
BBX 31 28 1 -1
BITMAP
7F0001FE
FF8001FE
FFC003FE
7FC003FE
7FE007FE
7FE007FC
3FE007FC
3FF00FFC
3FF00FFC
3FF81FFC
3FF81FFC
3FFC3FFC
3FFC3FFC
3DFE3DFC
3DFE7DFC
3CFF79FC
3CFFF9FC
3C7FF9FC
3C7FF1FC
3C3FF1FC
3C3FE1FC
3C3FE1FC
7C1FC1FC
7E1FC3FE
7E0FC3FE
FE0F83FE
FE0783FE
7E0703FE
ENDCHAR
STARTCHAR N
ENCODING 78
SWIDTH 667 0
DWIDTH 27 0
BBX 25 28 1 -1
BITMAP
7E003F00
FF003F80
FF803F80
7F803F80
7FC03F00
7FE01F00
3FF01E00
3FF01E00
3FF81E00
3FFC1E00
3FFE1E00
3FFE1E00
3DFF1E00
3CFF9E00
3CFF9E00
3C7FDE00
3C3FFE00
3C1FFE00
3C1FFE00
3C0FFE00
3C07FE00
3C03FE00
7C03FF00
7E01FF00
7E00FF80
FE007F80
FE007F80
7E003F00
ENDCHAR
STARTCHAR O
ENCODING 79
SWIDTH 721 0
DWIDTH 29 0
BBX 27 30 1 -1
BITMAP
003F8000
00FFE000
03FFF800
07FFFC00
0FE0FE00
1FC07F00
3F807F00
3F803F80
7F803F80
7F001FC0
7F001FC0
FF001FC0
FF001FC0
FF001FE0
FF001FE0
FF001FE0
FF001FE0
FF001FC0
FF001FC0
7F001FC0
7F003FC0
7F003F80
3F803F80
3F807F00
1FC07F00
0FE0FE00
07FFFC00
03FFF800
00FFE000
003F8000
ENDCHAR
STARTCHAR P
ENCODING 80
SWIDTH 639 0
DWIDTH 26 0
BBX 24 28 1 -1
BITMAP
7FFF00
FFFFE0
FFFFF8
7FFFFC
7F83FC
7F01FE
3F00FE
3F00FF
3F00FF
3F00FF
3F00FF
3F00FF
3F00FE
3F01FE
3F03FC
3FFFFC
3FFFF8
3FFFE0
3FFF00
3F0000
3F0000
3F0000
7F8000
7F8000
FFC000
FFC000
FFC000
7F8000
ENDCHAR
STARTCHAR Q
ENCODING 81
SWIDTH 721 0
DWIDTH 29 0
BBX 29 38 1 -9
BITMAP
003F8000
00FFE000
03FFF800
07FFFC00
0FE0FE00
1FC07F00
3F807F00
3F803F80
7F803F80
7F001FC0
7F001FC0
FF001FC0
FF001FC0
FF001FE0
FF001FE0
FF001FE0
FF001FE0
FF001FC0
FF001FC0
7F001FC0
7F003FC0
7F003F80
3F803F80
3F807F00
1FC07F00
0FE0FE00
07FFFC00
03FFF800
01FFE000
007F80E0
000E03F0
000F07F8
000FFFF8
0007FFF8
0003FFF8
0001FFF0
0000FFC0
00000E00
ENDCHAR
STARTCHAR R
ENCODING 82
SWIDTH 646 0
DWIDTH 26 0
BBX 25 28 1 -1
BITMAP
7FFF0000
FFFFE000
FFFFF800
7FFFFC00
7F83FE00
7F01FE00
3F00FF00
3F00FF00
3F00FF00
3F00FF00
3F00FF00
3F01FE00
3F03FE00
3FFFFC00
3FFFF800
3FFFE000
3FFFC000
3F3FE000
3F1FF000
3F0FF000
3F07F800
3F87F800
7F87FC00
7F83FE00
FFC3FF00
FFC3FF80
FFC1FF80
3F80FE00
ENDCHAR
STARTCHAR S
ENCODING 83
SWIDTH 705 0
DWIDTH 28 0
BBX 26 30 1 -1
BITMAP
00FFC000
07FFF800
0FFFFE00
1FFFFF00
3FC0FF80
7F80FF80
7F807F80
7F807F80
7F807F80
7FC03F00
7FE01E00
7FF80000
3FFE0000
1FFFC000
0FFFF000
07FFFC00
01FFFF00
003FFF80
000FFF80
3E03FFC0
7F00FFC0
FF007FC0
FF007FC0
FF807FC0
FF807FC0
FFC0FF80
7FFFFF00
3FFFFE00
0FFFF800
01FFC000
ENDCHAR
STARTCHAR T
ENCODING 84
SWIDTH 650 0
DWIDTH 26 0
BBX 24 31 1 -1
BITMAP
30001C
7FFFFE
FFFFFE
FFFFFF
FFFFFF
F8FF1F
F07E0F
E07E07
C07E03
007E00
007E00
007E00
007E00
007E00
007E00
007E00
007E00
007E00
007E00
007E00
007E00
007E00
007E00
007E00
00FE00
00FF00
00FF00
01FF80
01FF80
01FF80
00FF00
ENDCHAR
STARTCHAR U
ENCODING 85
SWIDTH 693 0
DWIDTH 28 0
BBX 26 29 1 -1
BITMAP
3F800F80
FFC01FC0
FFC01FC0
FFC01FC0
7F801F80
7F800F80
3F800F80
3F000F00
3F000F00
3F000F00
3F000F00
3F000F00
3F000F00
3F000F00
3F000F00
3F000F00
3F000F00
3F000F00
3F000F00
3F800F00
3F800F00
3F800F00
3F801F00
1FC03E00
1FF07E00
0FFFFC00
07FFF800
01FFF000
007F8000
ENDCHAR
STARTCHAR V
ENCODING 86
SWIDTH 679 0
DWIDTH 27 0
BBX 26 28 1 -1
BITMAP
FFC01F80
FFE03FC0
FFC03F80
FFC03F80
7FC01F00
3FC01F00
3FC01E00
1FC03E00
1FE03C00
1FE03C00
0FE07C00
0FF07800
0FF0F800
07F0F000
07F8F000
03F9F000
03FDE000
03FDE000
01FFE000
01FFC000
01FFC000
00FF8000
00FF8000
007F8000
007F0000
007F0000
003F0000
003E0000
ENDCHAR
STARTCHAR W
ENCODING 87
SWIDTH 987 0
DWIDTH 39 0
BBX 38 28 1 -1
BITMAP
FFC1FF81F8
FFC3FF83FC
FFC3FF81FC
FFC1FF81F8
7FC1FF01F8
3F80FF01F0
3FC0FF01E0
3FC07F01E0
1FC0FF83E0
1FE0FF83C0
1FE0FF83C0
0FE1FFC3C0
0FF1FFC780
0FF1FFC780
07F3DFE780
07FBDFEF00
07FBCFEF00
03FF8FFF00
03FF8FFE00
03FF87FE00
01FF07FE00
01FF07FC00
01FF03FC00
00FF03FC00
00FE03F800
00FE01F800
007E01F800
007C01F000
ENDCHAR
STARTCHAR X
ENCODING 88
SWIDTH 712 0
DWIDTH 28 0
BBX 27 28 1 -1
BITMAP
7FF03FC0
FFF87FC0
FFF87FC0
7FF83FC0
7FF03F80
3FF03F00
1FF03F00
0FF87E00
07FCFC00
07FFF800
03FFF000
01FFE000
00FFC000
00FFC000
007FC000
00FFE000
01FFF000
03EFF800
07CFFC00
0FC7FC00
1F83FE00
3F01FF00
7F01FF80
7F01FFC0
FF03FFC0
FF83FFE0
FF83FFE0
FF01FFC0
ENDCHAR
STARTCHAR Y
ENCODING 89
SWIDTH 701 0
DWIDTH 28 0
BBX 26 28 1 -1
BITMAP
FFE03FC0
FFF03FC0
FFF03FC0
FFE03FC0
7FE01F80
3FE01F00
3FE01F00
1FF03E00
0FF07C00
0FF87C00
07FCF800
03FDF000
03FFF000
01FFE000
00FFC000
00FFC000
007F8000
007F0000
007F0000
007F0000
007F0000
007F0000
007F8000
007F8000
00FF8000
00FFC000
00FFC000
007F8000
ENDCHAR
STARTCHAR Z
ENCODING 90
SWIDTH 654 0
DWIDTH 26 0
BBX 24 31 1 -1
BITMAP
1C0000
3FFFFE
3FFFFF
3FFFFE
3FFFFE
3E03FC
7C07F8
780FF8
300FF0
001FF0
001FE0
003FE0
003FC0
007FC0
007F80
00FF00
01FF00
01FE00
03FE00
03FC00
07FC00
07F800
0FF002
1FF007
1FE00F
3FE00F
3FC01F
7FFFFF
7FFFFF
FFFFFE
7FFFFC
ENDCHAR
STARTCHAR bracketleft
ENCODING 91
SWIDTH 294 0
DWIDTH 12 0
BBX 9 32 2 -2
BITMAP
FF00
FF80
FF00
F800
F800
F800
F800
F800
F800
F800
F800
F800
F800
F800
F800
F800
F800
F800
F800
F800
F800
F800
F800
F800
F800
F800
F800
F800
F800
FF00
FF80
FF00
ENDCHAR
STARTCHAR backslash
ENCODING 92
SWIDTH 516 0
DWIDTH 21 0
BBX 19 31 1 -2
BITMAP
F00000
F00000
780000
780000
3C0000
3C0000
1E0000
1E0000
0F0000
0F0000
078000
078000
03C000
03C000
01E000
01E000
00F000
00F000
007800
007800
003C00
001C00
001E00
000E00
000F00
000780
000780
0003C0
0003C0
0001E0
0001E0
ENDCHAR
STARTCHAR bracketright
ENCODING 93
SWIDTH 294 0
DWIDTH 12 0
BBX 9 32 1 -2
BITMAP
7F80
FF80
FF80
0F80
0F80
0F80
0F80
0F80
0F80
0F80
0F80
0F80
0F80
0F80
0F80
0F80
0F80
0F80
0F80
0F80
0F80
0F80
0F80
0F80
0F80
0F80
0F80
0F80
0F80
7F80
FF80
FF80
ENDCHAR
STARTCHAR asciicircum
ENCODING 94
SWIDTH 408 0
DWIDTH 16 0
BBX 14 14 1 15
BITMAP
0300
0780
0780
0FC0
0FC0
0FE0
1FE0
1FF0
3CF0
3CF0
7C78
7878
783C
F03C
ENDCHAR
STARTCHAR underscore
ENCODING 95
SWIDTH 429 0
DWIDTH 17 0
BBX 17 3 0 -3
BITMAP
7FFF80
FFFF80
FFFF80
ENDCHAR
STARTCHAR grave
ENCODING 96
SWIDTH 272 0
DWIDTH 11 0
BBX 9 8 1 22
BITMAP
7000
F800
FC00
FE00
FF00
3F80
0F80
0180
ENDCHAR
STARTCHAR a
ENCODING 97
SWIDTH 601 0
DWIDTH 24 0
BBX 22 22 1 -1
BITMAP
03FE00
0FFF80
3FFFC0
3F8FE0
7F07F0
7F03F0
7E07F0
3E07F0
0C1FF0
00FFF0
07FFF0
1FFFF0
7FE3F0
FF83F0
FF07F0
FF07F0
FF0FF0
FFFFF8
FFFFFC
7FFBFC
3FF3FC
1F80F8
ENDCHAR
STARTCHAR b
ENCODING 98
SWIDTH 638 0
DWIDTH 26 0
BBX 24 30 1 -1
BITMAP
1F0000
7F0000
FF0000
FF0000
FF0000
7F0000
7F0000
3F0000
3F1FC0
3F3FF0
3F7FF8
3FF3FC
3FE1FC
3FC0FE
3FC0FE
3FC0FE
3FC0FF
3FC07F
3FC07F
3FC07F
3FC07F
3FC0FF
3FC0FE
3FC0FE
7FC0FE
7FE0FC
FFF1FC
FFFFF8
FF7FF0
7F1FC0
ENDCHAR
STARTCHAR c
ENCODING 99
SWIDTH 577 0
DWIDTH 23 0
BBX 21 22 1 -1
BITMAP
01FE00
07FF80
0FFFC0
1F8FE0
3F0FF0
7F07F0
7F07F8
7E07F8
FE07F0
FE03E0
FE0080
FE0000
FF0008
FF0018
7F8038
7FE0F8
7FFFF0
3FFFE0
1FFFE0
0FFFC0
07FF00
01FC00
ENDCHAR
STARTCHAR d
ENCODING 100
SWIDTH 638 0
DWIDTH 26 0
BBX 24 31 1 -2
BITMAP
00007C
0001FC
0003FC
0003FC
0003FC
0001FC
0001FC
0001FC
03F1FC
0FFDFC
1FFFFC
3FDFFC
3F87FC
7F07FC
7F03FC
7F03FC
FE03FC
FE03FC
FE03FC
FE03FC
FE03FC
FE03FC
FE03FC
7F03FC
7F03FE
7F07FE
3F87FE
1FFFFF
0FFCFF
07F0FE
008000
ENDCHAR
STARTCHAR e
ENCODING 101
SWIDTH 577 0
DWIDTH 23 0
BBX 21 22 1 -1
BITMAP
01FE00
07FF80
0FFFC0
1F8FE0
3F0FF0
3F07F0
7F07F0
7E07F0
FE07F0
FE0FF0
FE1FE0
FE3FC0
FFFF80
FFFE18
7F8038
7FC0F8
7FFFF0
3FFFE0
1FFFE0
0FFFC0
07FF00
01FC00
ENDCHAR
STARTCHAR f
ENCODING 102
SWIDTH 426 0
DWIDTH 17 0
BBX 21 32 1 -1
BITMAP
007F00
01FFC0
03FFE0
07E3F0
0FC1F8
0FC1F8
1FC0F0
1FC060
1FC000
1FC000
FFFC00
FFFE00
FFFE00
7FFC00
1FC000
1FC000
1FC000
1FC000
1FC000
1FC000
1FC000
1FC000
1FC000
1FC000
1FC000
1FC000
1FC000
3FE000
3FE000
3FE000
3FE000
3FE000
ENDCHAR
STARTCHAR g
ENCODING 103
SWIDTH 565 0
DWIDTH 23 0
BBX 23 41 0 -13
BITMAP
0003E0
0007F8
000FF8
000FFC
000FF8
000CF8
000830
01FE00
07FF80
0FFFE0
1FCFF0
3F87F0
7F03F8
7F03F8
7F03F8
7F03F8
7F03F8
7F03F8
7F03F8
3F03F8
3F83F0
1F87E0
0FFFC0
1FFF80
3CFC00
3C0000
7FFF80
7FFFF0
7FFFFC
3FFFFC
3FFFFE
3FFFFE
782FFE
F8007E
FC007E
FF01FE
FFFFFC
7FFFF8
3FFFF0
0FFFC0
003800
ENDCHAR
STARTCHAR h
ENCODING 104
SWIDTH 598 0
DWIDTH 24 0
BBX 22 30 1 -1
BITMAP
1F0000
7F0000
FF0000
FF0000
FF0000
7F0000
7F0000
3F0000
3F1F80
3F3FE0
3FFFF0
3FFFF0
3FFFF8
3F87F8
3F83F8
3F83F8
3F03F8
3F03F8
3F03F8
3F03F8
3F03F8
3F03F8
3F03F8
3F83F8
7F87F8
7F87F8
FFC7FC
FFCFFC
FFCFFC
7F87FC
ENDCHAR
STARTCHAR i
ENCODING 105
SWIDTH 294 0
DWIDTH 12 0
BBX 10 32 1 -1
BITMAP
1E00
7F00
7F80
7F80
7F80
7F80
7F00
3E00
0000
0000
0F00
3F00
7F00
FF00
FF00
7F00
7F00
7F00
3F00
3F00
3F00
3F00
3F00
3F00
3F00
3F80
7F80
7F80
FFC0
FFC0
FFC0
7F80
ENDCHAR
STARTCHAR j
ENCODING 106
SWIDTH 294 0
DWIDTH 12 0
BBX 18 43 -8 -12
BITMAP
000E00
001F80
003FC0
003FC0
003FC0
003FC0
003F80
001F00
000000
000000
000780
001F80
007F80
007F80
007F80
003F80
003F80
001F80
001F80
001F80
001F80
001F80
001F80
001F80
001F80
001F80
001F80
001F80
001F80
001F80
001F80
001F80
001F80
001F80
781F80
FC1F80
FC1F80
FC1F80
FE3F80
7E3F00
7FFE00
1FFC00
07F000
ENDCHAR
STARTCHAR k
ENCODING 107
SWIDTH 621 0
DWIDTH 25 0
BBX 23 31 1 -1
BITMAP
0F0000
7F0000
FF0000
FF0000
FF0000
7F0000
7F0000
3F0000
3F0000
3F07F8
3F07F8
3F07F8
3F07F0
3F0FC0
3F1F00
3F3E00
3FFC00
3FFC00
3FFF00
3FFF80
3FFFC0
3F1FE0
3F1FE0
3F0FF0
7F8FF0
7F8FF8
7F87FC
FFC7FE
FFC3FE
FFC3FE
7F80FC
ENDCHAR
STARTCHAR l
ENCODING 108
SWIDTH 294 0
DWIDTH 12 0
BBX 10 29 1 -1
BITMAP
0F00
7F00
FF00
FF00
FF00
7F00
7F00
3F00
3F00
3F00
3F00
3F00
3F00
3F00
3F00
3F00
3F00
3F00
3F00
3F00
3F00
3F00
3F00
7F80
7F80
7FC0
FFC0
FFC0
7F80
ENDCHAR
STARTCHAR m
ENCODING 109
SWIDTH 902 0
DWIDTH 36 0
BBX 34 22 1 -1
BITMAP
0F1F80F800
3F3FE3FE00
FFFFF7FF00
FFFFFFFF00
FFFFFFFF80
7F87F87F80
7F83F83F80
3F83F83F80
3F03F83F80
3F03F83F80
3F03F83F80
3F03F83F80
3F03F83F80
3F03F83F80
3F03F83F80
3F83F83F80
7F87F83F80
7F87F87FC0
FFC7FC7FC0
FFCFFC7FC0
FFCFFC7FC0
7F87FC7FC0
ENDCHAR
STARTCHAR n
ENCODING 110
SWIDTH 598 0
DWIDTH 24 0
BBX 22 22 1 -1
BITMAP
0F1F80
3F3FE0
FFFFF0
FFFFF0
FFFFF8
7F87F8
7F83F8
3F83F8
3F03F8
3F03F8
3F03F8
3F03F8
3F03F8
3F03F8
3F03F8
3F83F8
7F87F8
7F87F8
FFC7FC
FFCFFC
FFCFFC
7F87FC
ENDCHAR
STARTCHAR o
ENCODING 111
SWIDTH 569 0
DWIDTH 23 0
BBX 21 22 1 -1
BITMAP
01FC00
07FF00
0FFF80
1F8FC0
3F07E0
7F07F0
7F07F0
7F03F0
FE03F8
FE03F8
FE03F8
FE03F8
FE03F8
FE03F8
7E03F8
7F07F0
7F07F0
3F07E0
1F8FC0
0FFF80
07FF00
01FC00
ENDCHAR
STARTCHAR p
ENCODING 112
SWIDTH 638 0
DWIDTH 26 0
BBX 24 30 1 -9
BITMAP
0F1FC0
3F3FF0
FF7FF8
FFF3FC
FFE1FC
7FC0FE
7FC0FE
3FC0FE
3FC0FF
3FC07F
3FC07F
3FC07F
3FC07F
3FC0FF
3FC0FE
3FC0FE
3FC0FE
3FE0FC
3FF1FC
3F7FF8
3F3FF0
3F0FC0
3F0000
3F0000
7F8000
7F8000
7FC000
FFC000
FFC000
FFC000
ENDCHAR
STARTCHAR q
ENCODING 113
SWIDTH 638 0
DWIDTH 26 0
BBX 24 30 1 -9
BITMAP
03F0FE
0FFDFF
1FFFFF
3FCFFE
3F87FE
7F07FE
7F03FC
7F03FC
FE03FC
FE03FC
FE03FC
FE03FC
FE03FC
FE03FC
7E03FC
7F03FC
7F03FC
3F07FC
3F8FFC
1FFFFC
0FFDFC
03F1FC
0001FC
0001FC
0001FC
0001FE
0003FE
0003FF
0003FF
0003FE
ENDCHAR
STARTCHAR r
ENCODING 114
SWIDTH 567 0
DWIDTH 23 0
BBX 21 22 1 -1
BITMAP
0F1F00
3F3FC0
7F7FE0
FFFFF0
FFFFF8
7F8FF8
7F87F8
7F87F8
3F07F0
3F03F0
3F01C0
3F0000
3F0000
3F0000
3F0000
3F8000
7F8000
7F8000
FFC000
FFC000
FFC000
7F8000
ENDCHAR
STARTCHAR s
ENCODING 115
SWIDTH 553 0
DWIDTH 22 0
BBX 20 22 1 -1
BITMAP
07FC00
1FFF80
3FFFC0
7F8FE0
7F07E0
7E07F0
7E07E0
7F03E0
7FC180
3FFC00
3FFF00
0FFFC0
03FFE0
307FF0
7C0FF0
FC07F0
FC07F0
FE07F0
FF0FE0
7FFFE0
3FFF80
07FC00
ENDCHAR
STARTCHAR t
ENCODING 116
SWIDTH 382 0
DWIDTH 15 0
BBX 15 29 0 -1
BITMAP
01C0
03C0
07C0
07C0
0FC0
1FC0
3FC0
FFFC
FFFE
FFFE
7FFC
0FC0
0FC0
0FC0
0FC0
0FC0
0FC0
0FC0
0FC0
0FC0
0FC0
0FC0
0FC0
0FE6
0FFE
0FFE
0FFC
0FF8
03E0
ENDCHAR
STARTCHAR u
ENCODING 117
SWIDTH 608 0
DWIDTH 24 0
BBX 23 22 1 -1
BITMAP
0F0070
3F03F8
FF07F8
FF0FF8
FF0FF8
7F07F8
7F07F8
7F03F8
3F03F8
3F03F8
3F03F8
3F03F8
3F03F8
3F03F8
3F03F8
3F83F8
3F87F8
3FFFF8
3FFFFC
3FFFFE
1FF9FC
07E0F8
ENDCHAR
STARTCHAR v
ENCODING 118
SWIDTH 573 0
DWIDTH 23 0
BBX 23 22 0 -1
BITMAP
7FC0FC
FFE0FE
FFE0FE
FFE0FE
7FC0FC
3FC0F8
3FC0F8
1FE0F0
1FE0F0
0FE1E0
0FF1E0
07F3E0
07FBC0
07FBC0
03FF80
03FF80
03FF80
01FF00
01FF00
00FE00
00FE00
007C00
ENDCHAR
STARTCHAR w
ENCODING 119
SWIDTH 900 0
DWIDTH 36 0
BBX 36 22 0 -1
BITMAP
7FC1FF07E0
FFE3FF07F0
FFE3FF87F0
FFE3FF07F0
7FC1FF07E0
3FC1FF03C0
3FC0FE07C0
1FC0FF0780
1FE0FF0780
0FE1FF0F00
0FF1FF8F00
07F1FF8F00
07F3FF9E00
07FBFFDE00
03FB9FDC00
03FF9FFC00
03FF8FFC00
01FF0FF800
01FF0FF800
00FE07F800
00FE07F000
007C03E000
ENDCHAR
STARTCHAR x
ENCODING 120
SWIDTH 553 0
DWIDTH 22 0
BBX 21 22 1 -1
BITMAP
FFC3F0
FFE7F0
FFE7F0
FFE7F0
7FC3F0
7FC3E0
3FC3C0
1FE780
0FFF00
07FE00
03FC00
03FE00
07FE00
0F7F00
1E7F80
3E3FC0
7C3FE0
FC3FF0
FE3FF0
FE3FF8
FE3FF8
FC3FF0
ENDCHAR
STARTCHAR y
ENCODING 121
SWIDTH 573 0
DWIDTH 23 0
BBX 24 33 -1 -12
BITMAP
3FE07E
7FF07F
7FF07F
3FF07F
3FE07E
1FE07C
0FE078
0FF078
07F0F8
07F8F0
07F8F0
03F9E0
03FDE0
01FDE0
01FFC0
01FFC0
00FFC0
00FF80
007F80
007F80
007F00
003F00
003E00
001E00
001E00
783C00
7C3C00
FE3C00
FE7800
7FF800
7FF000
3FE000
0F8000
ENDCHAR
STARTCHAR z
ENCODING 122
SWIDTH 510 0
DWIDTH 20 0
BBX 19 22 1 -1
BITMAP
3FFFC0
3FFFC0
7FFFC0
7FFF80
787F80
F0FF00
60FF00
01FE00
01FE00
03FC00
03FC00
07F800
0FF000
0FF000
1FE000
1FE0C0
3FC1E0
3FC3C0
7FFFC0
7FFFC0
FFFF80
7FFF80
ENDCHAR
STARTCHAR braceleft
ENCODING 123
SWIDTH 311 0
DWIDTH 12 0
BBX 10 32 1 -2
BITMAP
0FC0
1FC0
3FC0
7E00
7C00
7C00
7E00
7E00
3E00
3E00
3E00
3E00
3F00
3F00
3E00
FE00
FC00
FE00
3E00
3F00
3F00
3E00
3E00
3E00
3E00
7E00
7E00
7C00
7C00
3FC0
3FC0
0FC0
ENDCHAR
STARTCHAR bar
ENCODING 124
SWIDTH 145 0
DWIDTH 6 0
BBX 4 32 1 -1
BITMAP
60
F0
F0
F0
F0
F0
F0
F0
F0
F0
F0
F0
F0
F0
F0
F0
F0
F0
F0
F0
F0
F0
F0
F0
F0
F0
F0
F0
F0
F0
F0
E0
ENDCHAR
STARTCHAR braceright
ENCODING 125
SWIDTH 321 0
DWIDTH 13 0
BBX 11 32 1 -2
BITMAP
7C00
FF00
FF80
0F80
0F80
0F80
0F80
0F80
1F80
1F80
1F00
1F00
1F00
1F00
1F00
0FC0
0FE0
1FC0
1F00
1F00
1F00
1F00
1F80
1F80
0F80
0F80
0F80
0F80
0F80
7F80
FF00
FE00
ENDCHAR
STARTCHAR asciitilde
ENCODING 126
SWIDTH 453 0
DWIDTH 18 0
BBX 16 6 1 11
BITMAP
1F83
3FFF
7FFE
7FFE
FFFC
C1F8
ENDCHAR
ENDFONT
