STARTFONT 2.1
FONT -ucw.cz-Haxor-Medium-R-Normal--12-120-72-72-C-72-iso8859-2
SIZE 12 72 72
FONTBOUNDINGBOX 8 12 0 -3
COMMENT "Generated by fontforge, http://fontforge.sourceforge.net"
STARTPROPERTIES 16
POINT_SIZE 120
PIXEL_SIZE 12
RESOLUTION_X 72
RESOLUTION_Y 72
FONT_ASCENT 11
FONT_DESCENT 3
AVERAGE_WIDTH 72
SPACING "C"
_GBDFED_INFO "Edited with gbdfed 1.5."
CHARSET_ENCODING "2"
CHARSET_REGISTRY "iso8859"
FAMILY_NAME "Haxor"
FOUNDRY "ucw.cz"
SETWIDTH_NAME "Normal"
SLANT "R"
WEIGHT_NAME "Medium"
ENDPROPERTIES
CHARS 95
STARTCHAR space
ENCODING 32
SWIDTH 666 0
DWIDTH 8 0
BBX 1 1 7 -3
BITMAP
00
ENDCHAR
STARTCHAR exclam
ENCODING 33
SWIDTH 666 0
DWIDTH 8 0
BBX 1 9 3 0
BITMAP
80
80
80
80
80
80
80
00
80
ENDCHAR
STARTCHAR char34
ENCODING 34
SWIDTH 666 0
DWIDTH 8 0
BBX 5 4 1 5
BITMAP
D8
48
48
90
ENDCHAR
STARTCHAR hash
ENCODING 35
SWIDTH 666 0
DWIDTH 8 0
BBX 7 7 0 1
BITMAP
14
14
7E
28
FC
50
50
ENDCHAR
STARTCHAR dolar
ENCODING 36
SWIDTH 666 0
DWIDTH 8 0
BBX 7 9 0 0
BITMAP
10
7C
92
90
7C
12
92
7C
10
ENDCHAR
STARTCHAR char37
ENCODING 37
SWIDTH 666 0
DWIDTH 8 0
BBX 7 9 0 0
BITMAP
60
92
94
68
10
2C
52
92
0C
ENDCHAR
STARTCHAR amp
ENCODING 38
SWIDTH 666 0
DWIDTH 8 0
BBX 7 9 0 0
BITMAP
30
48
48
30
50
8A
84
8A
70
ENDCHAR
STARTCHAR char39
ENCODING 39
SWIDTH 666 0
DWIDTH 8 0
BBX 2 4 2 5
BITMAP
C0
40
40
80
ENDCHAR
STARTCHAR char40
ENCODING 40
SWIDTH 666 0
DWIDTH 8 0
BBX 2 9 2 0
BITMAP
40
80
80
80
80
80
80
80
40
ENDCHAR
STARTCHAR char41
ENCODING 41
SWIDTH 666 0
DWIDTH 8 0
BBX 2 9 2 0
BITMAP
80
40
40
40
40
40
40
40
80
ENDCHAR
STARTCHAR asterisk
ENCODING 42
SWIDTH 666 0
DWIDTH 8 0
BBX 5 7 1 1
BITMAP
20
A8
70
20
70
A8
20
ENDCHAR
STARTCHAR plus
ENCODING 43
SWIDTH 666 0
DWIDTH 8 0
BBX 5 7 1 1
BITMAP
20
20
20
F8
20
20
20
ENDCHAR
STARTCHAR char44
ENCODING 44
SWIDTH 666 0
DWIDTH 8 0
BBX 2 3 2 -1
BITMAP
C0
40
80
ENDCHAR
STARTCHAR char45
ENCODING 45
SWIDTH 666 0
DWIDTH 8 0
BBX 5 1 1 4
BITMAP
F8
ENDCHAR
STARTCHAR char46
ENCODING 46
SWIDTH 666 0
DWIDTH 8 0
BBX 2 2 2 0
BITMAP
C0
C0
ENDCHAR
STARTCHAR char47
ENCODING 47
SWIDTH 666 0
DWIDTH 8 0
BBX 5 9 1 0
BITMAP
08
10
10
20
20
40
40
80
80
ENDCHAR
STARTCHAR char48
ENCODING 48
SWIDTH 666 0
DWIDTH 8 0
BBX 5 9 1 0
BITMAP
70
88
88
98
A8
C8
88
88
70
ENDCHAR
STARTCHAR char49
ENCODING 49
SWIDTH 666 0
DWIDTH 8 0
BBX 3 9 2 0
BITMAP
40
C0
40
40
40
40
40
40
E0
ENDCHAR
STARTCHAR char50
ENCODING 50
SWIDTH 666 0
DWIDTH 8 0
BBX 5 9 1 0
BITMAP
70
88
88
08
10
20
40
80
F8
ENDCHAR
STARTCHAR char51
ENCODING 51
SWIDTH 666 0
DWIDTH 8 0
BBX 5 9 1 0
BITMAP
70
88
08
08
30
08
08
88
70
ENDCHAR
STARTCHAR char52
ENCODING 52
SWIDTH 666 0
DWIDTH 8 0
BBX 5 9 1 0
BITMAP
10
30
50
50
90
F8
10
10
10
ENDCHAR
STARTCHAR char53
ENCODING 53
SWIDTH 666 0
DWIDTH 8 0
BBX 5 9 1 0
BITMAP
F8
80
80
F0
08
08
08
88
70
ENDCHAR
STARTCHAR char54
ENCODING 54
SWIDTH 666 0
DWIDTH 8 0
BBX 5 9 1 0
BITMAP
70
88
80
80
F0
88
88
88
70
ENDCHAR
STARTCHAR char55
ENCODING 55
SWIDTH 666 0
DWIDTH 8 0
BBX 5 9 1 0
BITMAP
F8
08
08
10
10
10
20
20
20
ENDCHAR
STARTCHAR char56
ENCODING 56
SWIDTH 666 0
DWIDTH 8 0
BBX 5 9 1 0
BITMAP
70
88
88
88
70
88
88
88
70
ENDCHAR
STARTCHAR char57
ENCODING 57
SWIDTH 666 0
DWIDTH 8 0
BBX 5 9 1 0
BITMAP
70
88
88
88
78
08
08
88
70
ENDCHAR
STARTCHAR char58
ENCODING 58
SWIDTH 666 0
DWIDTH 8 0
BBX 2 6 3 1
BITMAP
C0
C0
00
00
C0
C0
ENDCHAR
STARTCHAR char59
ENCODING 59
SWIDTH 666 0
DWIDTH 8 0
BBX 2 7 3 0
BITMAP
C0
C0
00
00
C0
40
80
ENDCHAR
STARTCHAR char60
ENCODING 60
SWIDTH 666 0
DWIDTH 8 0
BBX 4 7 1 1
BITMAP
10
20
40
80
40
20
10
ENDCHAR
STARTCHAR char61
ENCODING 61
SWIDTH 666 0
DWIDTH 8 0
BBX 6 4 0 2
BITMAP
FC
00
00
FC
ENDCHAR
STARTCHAR char62
ENCODING 62
SWIDTH 666 0
DWIDTH 8 0
BBX 4 7 1 1
BITMAP
80
40
20
10
20
40
80
ENDCHAR
STARTCHAR char63
ENCODING 63
SWIDTH 666 0
DWIDTH 8 0
BBX 7 9 0 0
BITMAP
7C
82
82
02
0C
10
10
00
10
ENDCHAR
STARTCHAR char64
ENCODING 64
SWIDTH 666 0
DWIDTH 8 0
BBX 7 9 0 0
BITMAP
38
44
9A
A6
A2
A6
98
42
3C
ENDCHAR
STARTCHAR A
ENCODING 65
SWIDTH 666 0
DWIDTH 8 0
BBX 6 9 0 0
BITMAP
30
48
48
84
84
FC
84
84
84
ENDCHAR
STARTCHAR B
ENCODING 66
SWIDTH 666 0
DWIDTH 8 0
BBX 6 9 0 0
BITMAP
F8
84
84
84
F8
84
84
84
F8
ENDCHAR
STARTCHAR C
ENCODING 67
SWIDTH 666 0
DWIDTH 8 0
BBX 6 9 0 0
BITMAP
78
84
80
80
80
80
80
84
78
ENDCHAR
STARTCHAR D
ENCODING 68
SWIDTH 666 0
DWIDTH 8 0
BBX 6 9 0 0
BITMAP
F8
84
84
84
84
84
84
84
F8
ENDCHAR
STARTCHAR E
ENCODING 69
SWIDTH 666 0
DWIDTH 8 0
BBX 6 9 0 0
BITMAP
FC
80
80
80
F0
80
80
80
FC
ENDCHAR
STARTCHAR F
ENCODING 70
SWIDTH 666 0
DWIDTH 8 0
BBX 6 9 0 0
BITMAP
FC
80
80
80
F0
80
80
80
80
ENDCHAR
STARTCHAR G
ENCODING 71
SWIDTH 666 0
DWIDTH 8 0
BBX 6 9 0 0
BITMAP
78
84
80
80
80
9C
84
84
78
ENDCHAR
STARTCHAR char72
ENCODING 72
SWIDTH 666 0
DWIDTH 8 0
BBX 6 9 0 0
BITMAP
84
84
84
84
FC
84
84
84
84
ENDCHAR
STARTCHAR I
ENCODING 73
SWIDTH 666 0
DWIDTH 8 0
BBX 3 9 2 0
BITMAP
E0
40
40
40
40
40
40
40
E0
ENDCHAR
STARTCHAR J
ENCODING 74
SWIDTH 666 0
DWIDTH 8 0
BBX 6 9 0 0
BITMAP
FC
04
04
04
04
04
84
84
78
ENDCHAR
STARTCHAR K
ENCODING 75
SWIDTH 666 0
DWIDTH 8 0
BBX 6 9 0 0
BITMAP
84
88
90
A0
C0
A0
90
88
84
ENDCHAR
STARTCHAR L
ENCODING 76
SWIDTH 666 0
DWIDTH 8 0
BBX 6 9 0 0
BITMAP
80
80
80
80
80
80
80
80
FC
ENDCHAR
STARTCHAR M
ENCODING 77
SWIDTH 666 0
DWIDTH 8 0
BBX 6 9 0 0
BITMAP
84
CC
B4
84
84
84
84
84
84
ENDCHAR
STARTCHAR N
ENCODING 78
SWIDTH 666 0
DWIDTH 8 0
BBX 6 9 0 0
BITMAP
84
C4
C4
A4
94
94
8C
8C
84
ENDCHAR
STARTCHAR O
ENCODING 79
SWIDTH 666 0
DWIDTH 8 0
BBX 6 9 0 0
BITMAP
78
84
84
84
84
84
84
84
78
ENDCHAR
STARTCHAR P
ENCODING 80
SWIDTH 666 0
DWIDTH 8 0
BBX 6 9 0 0
BITMAP
F8
84
84
84
F8
80
80
80
80
ENDCHAR
STARTCHAR Q
ENCODING 81
SWIDTH 666 0
DWIDTH 8 0
BBX 6 9 0 0
BITMAP
78
84
84
84
84
84
94
88
74
ENDCHAR
STARTCHAR R
ENCODING 82
SWIDTH 666 0
DWIDTH 8 0
BBX 6 9 0 0
BITMAP
F8
84
84
84
F8
A0
90
88
84
ENDCHAR
STARTCHAR S
ENCODING 83
SWIDTH 666 0
DWIDTH 8 0
BBX 6 9 0 0
BITMAP
78
84
80
80
78
04
04
84
78
ENDCHAR
STARTCHAR T
ENCODING 84
SWIDTH 666 0
DWIDTH 8 0
BBX 5 9 1 0
BITMAP
F8
20
20
20
20
20
20
20
20
ENDCHAR
STARTCHAR U
ENCODING 85
SWIDTH 666 0
DWIDTH 8 0
BBX 6 9 0 0
BITMAP
84
84
84
84
84
84
84
84
78
ENDCHAR
STARTCHAR V
ENCODING 86
SWIDTH 666 0
DWIDTH 8 0
BBX 7 9 0 0
BITMAP
82
82
82
44
44
44
28
28
10
ENDCHAR
STARTCHAR W
ENCODING 87
SWIDTH 666 0
DWIDTH 8 0
BBX 7 9 0 0
BITMAP
82
82
82
82
82
54
54
54
28
ENDCHAR
STARTCHAR X
ENCODING 88
SWIDTH 666 0
DWIDTH 8 0
BBX 5 9 1 0
BITMAP
88
88
50
50
20
50
50
88
88
ENDCHAR
STARTCHAR Y
ENCODING 89
SWIDTH 666 0
DWIDTH 8 0
BBX 5 9 1 0
BITMAP
88
88
50
50
20
20
20
20
20
ENDCHAR
STARTCHAR Z
ENCODING 90
SWIDTH 666 0
DWIDTH 8 0
BBX 5 9 1 0
BITMAP
F8
08
08
10
20
40
80
80
F8
ENDCHAR
STARTCHAR bracketleft
ENCODING 91
SWIDTH 666 0
DWIDTH 8 0
BBX 2 9 2 0
BITMAP
C0
80
80
80
80
80
80
80
C0
ENDCHAR
STARTCHAR backslash
ENCODING 92
SWIDTH 666 0
DWIDTH 8 0
BBX 5 9 1 0
BITMAP
80
40
40
20
20
10
10
08
08
ENDCHAR
STARTCHAR char93
ENCODING 93
SWIDTH 666 0
DWIDTH 8 0
BBX 2 9 2 0
BITMAP
C0
40
40
40
40
40
40
40
C0
ENDCHAR
STARTCHAR char
ENCODING 94
SWIDTH 666 0
DWIDTH 8 0
BBX 5 3 1 6
BITMAP
20
50
88
ENDCHAR
STARTCHAR underscore
ENCODING 95
SWIDTH 666 0
DWIDTH 8 0
BBX 7 1 0 0
BITMAP
FE
ENDCHAR
STARTCHAR char96
ENCODING 96
SWIDTH 666 0
DWIDTH 8 0
BBX 2 3 2 6
BITMAP
80
80
40
ENDCHAR
STARTCHAR a
ENCODING 97
SWIDTH 666 0
DWIDTH 8 0
BBX 7 7 0 0
BITMAP
78
84
04
7C
84
84
7A
ENDCHAR
STARTCHAR b
ENCODING 98
SWIDTH 666 0
DWIDTH 8 0
BBX 6 9 0 0
BITMAP
80
80
B8
C4
84
84
84
C4
B8
ENDCHAR
STARTCHAR c
ENCODING 99
SWIDTH 666 0
DWIDTH 8 0
BBX 6 7 0 0
BITMAP
78
84
80
80
80
84
78
ENDCHAR
STARTCHAR d
ENCODING 100
SWIDTH 666 0
DWIDTH 8 0
BBX 6 9 0 0
BITMAP
04
04
74
8C
84
84
84
8C
74
ENDCHAR
STARTCHAR e
ENCODING 101
SWIDTH 666 0
DWIDTH 8 0
BBX 6 7 0 0
BITMAP
78
84
84
F8
80
84
78
ENDCHAR
STARTCHAR f
ENCODING 102
SWIDTH 666 0
DWIDTH 8 0
BBX 6 9 0 0
BITMAP
38
44
40
40
E0
40
40
40
40
ENDCHAR
STARTCHAR g
ENCODING 103
SWIDTH 666 0
DWIDTH 8 0
BBX 7 10 0 -3
BITMAP
7A
84
84
84
84
78
40
BC
82
7C
ENDCHAR
STARTCHAR h
ENCODING 104
SWIDTH 666 0
DWIDTH 8 0
BBX 6 9 0 0
BITMAP
80
80
B8
C4
84
84
84
84
84
ENDCHAR
STARTCHAR char105
ENCODING 105
SWIDTH 666 0
DWIDTH 8 0
BBX 5 9 1 0
BITMAP
20
00
60
20
20
20
20
20
F8
ENDCHAR
STARTCHAR j
ENCODING 106
SWIDTH 666 0
DWIDTH 8 0
BBX 5 11 1 -2
BITMAP
08
00
18
08
08
08
08
08
08
88
70
ENDCHAR
STARTCHAR k
ENCODING 107
SWIDTH 666 0
DWIDTH 8 0
BBX 6 9 0 0
BITMAP
80
80
88
90
A0
E0
90
88
84
ENDCHAR
STARTCHAR l
ENCODING 108
SWIDTH 666 0
DWIDTH 8 0
BBX 5 9 1 0
BITMAP
60
20
20
20
20
20
20
20
F8
ENDCHAR
STARTCHAR m
ENCODING 109
SWIDTH 666 0
DWIDTH 8 0
BBX 7 7 0 0
BITMAP
EC
92
92
92
92
92
92
ENDCHAR
STARTCHAR n
ENCODING 110
SWIDTH 666 0
DWIDTH 8 0
BBX 6 7 0 0
BITMAP
F8
84
84
84
84
84
84
ENDCHAR
STARTCHAR o
ENCODING 111
SWIDTH 666 0
DWIDTH 8 0
BBX 6 7 0 0
BITMAP
78
84
84
84
84
84
78
ENDCHAR
STARTCHAR p
ENCODING 112
SWIDTH 666 0
DWIDTH 8 0
BBX 6 10 0 -3
BITMAP
B8
C4
84
84
84
C4
B8
80
80
80
ENDCHAR
STARTCHAR q
ENCODING 113
SWIDTH 666 0
DWIDTH 8 0
BBX 6 10 0 -3
BITMAP
74
8C
84
84
84
8C
74
04
04
04
ENDCHAR
STARTCHAR r
ENCODING 114
SWIDTH 666 0
DWIDTH 8 0
BBX 6 7 0 0
BITMAP
B8
C4
80
80
80
80
80
ENDCHAR
STARTCHAR s
ENCODING 115
SWIDTH 666 0
DWIDTH 8 0
BBX 6 7 0 0
BITMAP
78
84
80
78
04
84
78
ENDCHAR
STARTCHAR t
ENCODING 116
SWIDTH 666 0
DWIDTH 8 0
BBX 6 9 0 0
BITMAP
40
40
F0
40
40
40
40
44
38
ENDCHAR
STARTCHAR u
ENCODING 117
SWIDTH 666 0
DWIDTH 8 0
BBX 6 7 0 0
BITMAP
84
84
84
84
84
8C
74
ENDCHAR
STARTCHAR v
ENCODING 118
SWIDTH 666 0
DWIDTH 8 0
BBX 6 7 0 0
BITMAP
84
84
84
84
48
48
30
ENDCHAR
STARTCHAR w
ENCODING 119
SWIDTH 666 0
DWIDTH 8 0
BBX 7 7 0 0
BITMAP
82
92
92
92
92
92
6C
ENDCHAR
STARTCHAR x
ENCODING 120
SWIDTH 666 0
DWIDTH 8 0
BBX 7 7 0 0
BITMAP
82
44
28
10
28
44
82
ENDCHAR
STARTCHAR y
ENCODING 121
SWIDTH 666 0
DWIDTH 8 0
BBX 6 10 0 -3
BITMAP
84
84
84
84
8C
74
04
04
08
70
ENDCHAR
STARTCHAR z
ENCODING 122
SWIDTH 666 0
DWIDTH 8 0
BBX 6 7 0 0
BITMAP
FC
04
08
30
40
80
FC
ENDCHAR
STARTCHAR braceleft
ENCODING 123
SWIDTH 666 0
DWIDTH 8 0
BBX 3 9 2 0
BITMAP
60
80
80
40
80
40
80
80
60
ENDCHAR
STARTCHAR bar
ENCODING 124
SWIDTH 666 0
DWIDTH 8 0
BBX 1 9 3 0
BITMAP
80
80
80
80
80
80
80
80
80
ENDCHAR
STARTCHAR braceright
ENCODING 125
SWIDTH 666 0
DWIDTH 8 0
BBX 3 9 2 0
BITMAP
C0
20
20
40
20
40
20
20
C0
ENDCHAR
STARTCHAR tilda
ENCODING 126
SWIDTH 666 0
DWIDTH 8 0
BBX 7 3 0 3
BITMAP
60
92
0C
ENDCHAR
ENDFONT
