STARTFONT 2.1
FONT -FontForge-Pragati Narrow-Book-R-Normal--54-410-96-96-P-211-ISO10646-1
SIZE 41 96 96
FONTBOUNDINGBOX 41 47 -2 -9
COMMENT "Generated by fontforge, http://fontforge.sourceforge.net"
COMMENT "Copyright (c) 2012-2015, Omnibus-Type (www.omnibus-type.com omnibus.type@gmail.com)"
STARTPROPERTIES 40
FOUNDRY "FontForge"
FAMILY_NAME "Pragati Narrow"
WEIGHT_NAME "Book"
SLANT "R"
SETWIDTH_NAME "Normal"
ADD_STYLE_NAME ""
PIXEL_SIZE 54
POINT_SIZE 410
RESOLUTION_X 96
RESOLUTION_Y 96
SPACING "P"
AVERAGE_WIDTH 211
CHARSET_REGISTRY "ISO10646"
CHARSET_ENCODING "1"
FONTNAME_REGISTRY ""
CHARSET_COLLECTIONS "ISO8859-2 ISO8859-9 ISO8859-4 ISO10646-1"
FONT_NAME "PragatiNarrow-Regular"
FACE_NAME "Pragati Narrow"
COPYRIGHT "Copyright (c) 2012-2015, Omnibus-Type (www.omnibus-type.com omnibus.type@gmail.com)"
FONT_VERSION "1.010; ttfautohint (v1.3)"
FONT_ASCENT 43
FONT_DESCENT 11
UNDERLINE_POSITION -5
UNDERLINE_THICKNESS 3
X_HEIGHT 25
CAP_HEIGHT 33
RAW_ASCENT 800
RAW_DESCENT 200
NORM_SPACE 11
RELATIVE_WEIGHT 40
RELATIVE_SETWIDTH 50
SUPERSCRIPT_X 0
SUPERSCRIPT_Y 18
SUPERSCRIPT_SIZE 32
SUBSCRIPT_X 0
SUBSCRIPT_Y 4
SUBSCRIPT_SIZE 32
FIGURE_WIDTH 23
AVG_LOWERCASE_WIDTH 204
AVG_UPPERCASE_WIDTH 275
ENDPROPERTIES
CHARS 95
STARTCHAR space
ENCODING 32
SWIDTH 210 0
DWIDTH 11 0
BBX 1 1 0 0
BITMAP
00
ENDCHAR
STARTCHAR exclam
ENCODING 33
SWIDTH 210 0
DWIDTH 11 0
BBX 6 34 3 0
BITMAP
FC
F8
F8
F8
F8
F8
F8
F8
F8
F8
F8
78
78
78
78
78
78
78
78
78
78
78
70
70
70
70
00
00
00
F8
F8
F8
F8
F8
ENDCHAR
STARTCHAR quotedbl
ENCODING 34
SWIDTH 267 0
DWIDTH 14 0
BBX 11 14 2 20
BITMAP
F3E0
F3E0
F3E0
F3E0
F3E0
F3E0
F3E0
F3E0
F1C0
F1C0
E1C0
61C0
61C0
6180
ENDCHAR
STARTCHAR numbersign
ENCODING 35
SWIDTH 419 0
DWIDTH 23 0
BBX 22 35 0 0
BITMAP
007878
007878
007878
007078
00F070
00F0F0
00F0F0
00F0F0
00E0F0
01E0E0
01E1E0
3FFFFC
3FFFFC
3FFFFC
3FFFFC
03C3C0
03C3C0
0383C0
078380
078780
078780
070780
FFFFF0
FFFFF0
FFFFF0
FFFFF0
0E0F00
1E1E00
1E1E00
1E1E00
1C1E00
3C1C00
3C3C00
3C3C00
3C3C00
ENDCHAR
STARTCHAR dollar
ENCODING 36
SWIDTH 419 0
DWIDTH 23 0
BBX 17 38 3 -2
BITMAP
018000
018000
018000
018000
018000
07F000
1FFC00
3FFE00
7FFF00
799F00
F98F00
F18F00
F18F00
F98000
F98000
7F8000
7FC000
3FF000
0FFC00
03FE00
01FF00
019F00
018F80
018F80
F18780
F18780
F18780
F98F00
FD9F00
7FFF00
3FFE00
1FF800
03E000
018000
018000
018000
018000
018000
ENDCHAR
STARTCHAR percent
ENCODING 37
SWIDTH 670 0
DWIDTH 36 0
BBX 32 36 2 -1
BITMAP
0F800000
3FE00078
3FF000F0
78F001E0
707001C0
707803C0
F0780380
F0780780
F0780F00
F0780E00
F0781E00
F0781C00
F0783800
70787800
70707000
78F0F000
3FF1E000
3FE1C000
0F83C1F8
000383FC
000787FE
000F0F0F
000E0F0F
001E0E07
001C0E07
003C0E07
00780E07
00700E07
00F00E07
00E00E07
01C00E07
03C00F0F
03800F0F
078007FE
0F0003FC
000001F8
ENDCHAR
STARTCHAR ampersand
ENCODING 38
SWIDTH 503 0
DWIDTH 27 0
BBX 25 36 2 -1
BITMAP
01FC0000
07FF8000
1FFFC000
3FFFE000
3F07F000
7C01F000
7800F800
78007800
F8007800
F8007800
F8007800
F8000000
78000000
7C000000
7C000000
3F000000
1FF07F80
07F07F80
1FF07F80
3FF07F80
7E007800
7C007800
F8007800
F0007800
F0007800
F0007800
F0007800
F0007800
F8007800
F800F000
7C01F000
7F03F000
3FFFE000
1FFFC000
0FFF8000
03FC0000
ENDCHAR
STARTCHAR quotesingle
ENCODING 39
SWIDTH 145 0
DWIDTH 8 0
BBX 4 14 2 20
BITMAP
F0
F0
F0
F0
F0
F0
F0
F0
F0
E0
E0
E0
60
60
ENDCHAR
STARTCHAR parenleft
ENCODING 40
SWIDTH 251 0
DWIDTH 14 0
BBX 11 45 2 -8
BITMAP
00E0
01C0
01C0
0380
0780
0700
0F00
0E00
1E00
1E00
3C00
3C00
3C00
7800
7800
7800
7800
F800
F000
F000
F000
F000
F000
F000
F000
F000
F000
F000
F800
7800
7800
7800
7800
3C00
3C00
3C00
1E00
1E00
0F00
0F00
0700
0780
0380
01C0
00E0
ENDCHAR
STARTCHAR parenright
ENCODING 41
SWIDTH 251 0
DWIDTH 14 0
BBX 11 45 1 -8
BITMAP
C000
E000
7000
7800
3800
3C00
1C00
1E00
0E00
0F00
0F00
0780
0780
0780
07C0
03C0
03C0
03C0
03C0
03C0
03C0
03E0
03E0
03E0
03C0
03C0
03C0
03C0
03C0
03C0
07C0
0780
0780
0780
0F00
0F00
0F00
1E00
1E00
1C00
3C00
3800
7000
7000
E000
ENDCHAR
STARTCHAR asterisk
ENCODING 42
SWIDTH 293 0
DWIDTH 16 0
BBX 13 13 1 21
BITMAP
0780
0700
2710
7378
FFF8
3FF0
0FC0
3FF0
FFF8
7378
2710
0700
0780
ENDCHAR
STARTCHAR plus
ENCODING 43
SWIDTH 440 0
DWIDTH 24 0
BBX 20 26 2 0
BITMAP
00F000
00F000
00F000
00F000
00F000
00F000
00F000
00F000
00F000
00F000
00F000
FFFFF0
FFFFF0
FFFFF0
FFFFF0
00F000
00F000
00F000
00F000
00F000
00F000
00F000
00F000
00F000
00F000
00F000
ENDCHAR
STARTCHAR comma
ENCODING 44
SWIDTH 210 0
DWIDTH 11 0
BBX 5 11 3 -6
BITMAP
F8
F8
F8
F8
F8
38
30
70
70
60
E0
ENDCHAR
STARTCHAR hyphen
ENCODING 45
SWIDTH 251 0
DWIDTH 14 0
BBX 13 5 0 11
BITMAP
FFF8
FFF8
FFF8
FFF8
FFF8
ENDCHAR
STARTCHAR period
ENCODING 46
SWIDTH 210 0
DWIDTH 11 0
BBX 5 5 3 0
BITMAP
F8
F8
F8
F8
F8
ENDCHAR
STARTCHAR slash
ENCODING 47
SWIDTH 210 0
DWIDTH 11 0
BBX 11 40 0 -2
BITMAP
00E0
00E0
01E0
01E0
01E0
01C0
01C0
03C0
03C0
03C0
0380
0380
0780
0780
0780
0700
0700
0F00
0F00
0F00
0E00
0E00
0E00
1E00
1E00
1C00
1C00
1C00
3C00
3C00
3800
3800
3800
7800
7800
7800
7000
7000
F000
F000
ENDCHAR
STARTCHAR zero
ENCODING 48
SWIDTH 419 0
DWIDTH 23 0
BBX 19 36 2 -1
BITMAP
03F000
0FFC00
1FFE00
1FFF00
3E1F80
3C0F80
7C0780
7807C0
7803C0
F803C0
F003C0
F003C0
F003C0
F003E0
F003E0
F003E0
F003E0
F003E0
F003E0
F003E0
F003E0
F003E0
F003E0
F003C0
F003C0
F803C0
F803C0
7803C0
7807C0
7C0780
3C0F80
3E1F80
1FFF00
1FFE00
0FFC00
03F000
ENDCHAR
STARTCHAR one
ENCODING 49
SWIDTH 419 0
DWIDTH 23 0
BBX 20 34 2 0
BITMAP
003800
00F800
07F800
7FF800
FFF800
FFF800
007800
007800
007800
007800
007800
007800
007800
007800
007800
007800
007800
007800
007800
007800
007800
007800
007800
007800
007800
007800
007800
007800
007800
007800
FFFFF0
FFFFF0
FFFFF0
FFFFF0
ENDCHAR
STARTCHAR two
ENCODING 50
SWIDTH 419 0
DWIDTH 23 0
BBX 18 35 2 0
BITMAP
03F800
0FFE00
1FFF00
3FFF80
3E0F80
7C07C0
7807C0
7803C0
F803C0
F803C0
F803C0
F803C0
F807C0
0007C0
000F80
000F80
001F00
003F00
003E00
007C00
00F800
01F000
03E000
07E000
0FC000
1F8000
1F0000
3E0000
7C0000
7C0000
780000
FFFFC0
FFFFC0
FFFFC0
FFFFC0
ENDCHAR
STARTCHAR three
ENCODING 51
SWIDTH 419 0
DWIDTH 23 0
BBX 19 36 2 -1
BITMAP
03F000
0FFC00
1FFF00
3FFF00
7E1F80
7C0780
7807C0
7803C0
F803C0
F803C0
F803C0
0003C0
0003C0
000780
000F80
001F00
03FE00
03FC00
03FE00
03FF00
000F80
0007C0
0003C0
0003C0
0003E0
F003E0
F003E0
F003E0
F003C0
F803C0
7807C0
7E0F80
3FFF80
3FFF00
0FFE00
03F800
ENDCHAR
STARTCHAR four
ENCODING 52
SWIDTH 419 0
DWIDTH 23 0
BBX 21 35 1 0
BITMAP
007800
00F800
00F000
00F000
00F000
01F180
01E180
01E180
03C380
03C380
03C380
078780
078780
0F8780
0F0780
0F0780
1E0780
1E0780
3C0780
3C0780
780780
780780
F00780
FFFFF8
FFFFF8
FFFFF8
FFFFF8
000780
000780
000780
000780
000780
000780
000780
000780
ENDCHAR
STARTCHAR five
ENCODING 53
SWIDTH 419 0
DWIDTH 23 0
BBX 19 35 2 -1
BITMAP
3FFFC0
3FFFC0
3FFFC0
3FFFC0
3C0000
380000
380000
380000
380000
780000
780000
780000
78FC00
7BFE00
7FFF00
7FFF80
7F0FC0
7C07C0
7C03C0
1803E0
0001E0
0001E0
0001E0
0001E0
F001E0
F001E0
F803E0
F803E0
7803C0
7C07C0
3E0F80
3FFF80
1FFF00
0FFE00
03F800
ENDCHAR
STARTCHAR six
ENCODING 54
SWIDTH 419 0
DWIDTH 23 0
BBX 19 36 2 -1
BITMAP
01F000
07FC00
0FFE00
1FFF00
3E1F00
3C0F80
7C0780
780780
7807C0
7807C0
F803C0
F003C0
F00000
F00000
F0F800
F3FE00
F7FF00
FFFF80
FE0F80
FC07C0
F807C0
F803C0
F803E0
F803E0
F803E0
F803E0
F803E0
7803C0
7803C0
7803C0
3C07C0
3E0F80
1FFF80
1FFF00
07FE00
01F800
ENDCHAR
STARTCHAR seven
ENCODING 55
SWIDTH 419 0
DWIDTH 23 0
BBX 19 34 2 0
BITMAP
FFFFE0
FFFFE0
FFFFE0
FFFFC0
0003C0
000780
000F00
000F00
001E00
001E00
003C00
003C00
007800
007800
00F000
00F000
00F000
01E000
01E000
03C000
03C000
03C000
07C000
078000
078000
078000
078000
0F8000
0F8000
0F8000
0F0000
0F0000
0F0000
0F0000
ENDCHAR
STARTCHAR eight
ENCODING 56
SWIDTH 419 0
DWIDTH 23 0
BBX 19 36 2 -1
BITMAP
03F000
0FFC00
1FFE00
3FFF00
3E1F80
7C0780
7807C0
7803C0
7803C0
7803C0
7803C0
7803C0
7803C0
780780
3C0780
3E1F80
1FFF00
0FFE00
1FFE00
3FFF00
7E0F80
7C07C0
F803C0
F003C0
F003E0
F003E0
F003E0
F003E0
F003C0
F803C0
7C07C0
7E0F80
3FFF80
3FFF00
0FFE00
03F800
ENDCHAR
STARTCHAR nine
ENCODING 57
SWIDTH 419 0
DWIDTH 23 0
BBX 19 36 2 -1
BITMAP
03F000
0FFC00
1FFE00
3FFF00
3E1F80
7C0F80
780780
F807C0
F003C0
F003C0
F003C0
F003C0
F003E0
F003E0
F003E0
F807E0
7807E0
7C0FE0
7E1FE0
3FFFE0
1FFFE0
0FFBE0
07E3C0
0003C0
0003C0
7803C0
7803C0
7803C0
7807C0
7C0780
3C0780
3E1F00
1FFF00
1FFE00
0FFC00
03F000
ENDCHAR
STARTCHAR colon
ENCODING 58
SWIDTH 210 0
DWIDTH 11 0
BBX 5 26 3 0
BITMAP
F8
F8
F8
F8
F8
00
00
00
00
00
00
00
00
00
00
00
00
00
00
00
00
F8
F8
F8
F8
F8
ENDCHAR
STARTCHAR semicolon
ENCODING 59
SWIDTH 210 0
DWIDTH 11 0
BBX 5 32 3 -6
BITMAP
F8
F8
F8
F8
F8
00
00
00
00
00
00
00
00
00
00
00
00
00
00
00
00
F8
F8
F8
F8
F8
38
30
70
70
60
E0
ENDCHAR
STARTCHAR less
ENCODING 60
SWIDTH 440 0
DWIDTH 24 0
BBX 20 25 2 0
BITMAP
000030
0000F0
0003F0
000FF0
003FE0
00FF80
03FE00
0FF800
3FE000
FF8000
FF0000
FC0000
F80000
FE0000
FF8000
7FC000
1FF000
07FC00
01FF00
007FC0
001FF0
0007F0
0001F0
000070
000010
ENDCHAR
STARTCHAR equal
ENCODING 61
SWIDTH 440 0
DWIDTH 24 0
BBX 20 15 2 5
BITMAP
FFFFF0
FFFFF0
FFFFF0
FFFFF0
000000
000000
000000
000000
000000
000000
000000
FFFFF0
FFFFF0
FFFFF0
FFFFF0
ENDCHAR
STARTCHAR greater
ENCODING 62
SWIDTH 440 0
DWIDTH 24 0
BBX 20 25 2 0
BITMAP
C00000
F00000
FC0000
FF0000
7FC000
1FF000
07FC00
03FE00
00FF80
003FE0
000FF0
0003F0
0001F0
0007F0
001FF0
007FE0
01FF80
03FE00
0FF800
3FE000
FF8000
FE0000
F80000
E00000
800000
ENDCHAR
STARTCHAR question
ENCODING 63
SWIDTH 419 0
DWIDTH 23 0
BBX 18 35 2 0
BITMAP
03F800
0FFE00
1FFF00
3FFF80
3E0F80
7C07C0
7807C0
F807C0
F803C0
F803C0
F803C0
F803C0
0007C0
0007C0
000F80
000F80
001F00
003F00
007E00
007C00
00F800
00F000
00F000
00F000
00F000
00F000
000000
000000
000000
000000
01F000
01F000
01F000
01F000
01F000
ENDCHAR
STARTCHAR at
ENCODING 64
SWIDTH 764 0
DWIDTH 41 0
BBX 37 44 2 -9
BITMAP
0003FF0000
001FFFE000
007FFFF800
00FE00FE00
03F0001F00
07C0000F80
07800003C0
0F000001C0
1E000001E0
1C00FE00E0
3C03FF8070
3807FFC070
3807FFC070
700F83C038
700F01E038
700F01E038
700F01E038
600001E038
E00001E038
E00001E038
E0003FE038
E001FFE038
E007FFE038
E00FFFE038
E00FC1E038
E01F01E030
E01E01E070
601E01E070
701E03E0F0
701E03E1E0
701F0FE3E0
701FFFFFC0
780FFCFF80
3807F8FF00
3803F07C00
1C00000000
1E00000000
0F00000000
0780000000
07C0008000
01F8038000
00FFFF8000
003FFF8000
0007FC0000
ENDCHAR
STARTCHAR A
ENCODING 65
SWIDTH 503 0
DWIDTH 27 0
BBX 27 34 0 0
BITMAP
001F8000
003F8000
003F8000
003BC000
007BC000
007BC000
007BC000
00F1E000
00F1E000
00F1E000
01E1F000
01E0F000
01E0F000
03E0F800
03C07800
03C07800
03C07C00
07803C00
07803C00
07803E00
0F003E00
0F001E00
0FFFFF00
1FFFFF00
1FFFFF00
1FFFFF00
3E000F80
3C000780
3C000780
7C0007C0
780007C0
780003C0
F80003E0
F00003E0
ENDCHAR
STARTCHAR B
ENCODING 66
SWIDTH 503 0
DWIDTH 27 0
BBX 23 34 3 0
BITMAP
FFFF00
FFFFE0
FFFFF0
FFFFF8
F801F8
F800FC
F8007C
F8007C
F8007C
F8007C
F8007C
F80078
F800F8
F803F0
FFFFE0
FFFF80
FFFFC0
FFFFF0
F801F8
F800F8
F8007C
F8003C
F8003C
F8003E
F8003E
F8003E
F8003E
F8007C
F8007C
F801F8
FFFFF8
FFFFF0
FFFFE0
FFFF00
ENDCHAR
STARTCHAR C
ENCODING 67
SWIDTH 544 0
DWIDTH 29 0
BBX 25 36 2 -1
BITMAP
007F8000
01FFF000
07FFF800
0FFFFC00
1FC0FE00
1F003F00
3E001F00
3E000F80
7C000F80
7C000F80
78000780
78000780
F8000780
F8000000
F8000000
F8000000
F8000000
F8000000
F8000000
F8000000
F8000000
F8000000
F8000000
F8000780
78000780
78000780
7C000780
7C000F80
3E000F80
3E001F00
1F003F00
1FC0FE00
0FFFFC00
07FFF800
01FFF000
007FC000
ENDCHAR
STARTCHAR D
ENCODING 68
SWIDTH 544 0
DWIDTH 29 0
BBX 24 34 3 0
BITMAP
FFFE00
FFFF80
FFFFE0
FFFFF0
F803F8
F800F8
F8007C
F8003C
F8003E
F8001E
F8001E
F8001F
F8001F
F8001F
F8001F
F8001F
F8001F
F8001F
F8001F
F8001F
F8001F
F8001F
F8001E
F8001E
F8003E
F8003E
F8007C
F8007C
F800F8
F803F8
FFFFF0
FFFFE0
FFFF80
FFFE00
ENDCHAR
STARTCHAR E
ENCODING 69
SWIDTH 503 0
DWIDTH 27 0
BBX 22 34 3 0
BITMAP
FFFFF8
FFFFF8
FFFFF8
FFFFF8
F80000
F80000
F80000
F80000
F80000
F80000
F80000
F80000
F80000
F80000
FFFFE0
FFFFE0
FFFFE0
FFFFE0
F80000
F80000
F80000
F80000
F80000
F80000
F80000
F80000
F80000
F80000
F80000
F80000
FFFFFC
FFFFFC
FFFFFC
FFFFFC
ENDCHAR
STARTCHAR F
ENCODING 70
SWIDTH 461 0
DWIDTH 25 0
BBX 20 34 3 0
BITMAP
FFFFF0
FFFFF0
FFFFF0
FFFFF0
F80000
F80000
F80000
F80000
F80000
F80000
F80000
F80000
F80000
F80000
F80000
FFFFC0
FFFFC0
FFFFC0
FFFFC0
F80000
F80000
F80000
F80000
F80000
F80000
F80000
F80000
F80000
F80000
F80000
F80000
F80000
F80000
F80000
ENDCHAR
STARTCHAR G
ENCODING 71
SWIDTH 587 0
DWIDTH 32 0
BBX 26 36 2 -1
BITMAP
003FC000
00FFF800
03FFFC00
07FFFE00
0FE07F00
1F801F80
1F000F80
3E0007C0
3E0007C0
3C0003C0
7C0003C0
7C0003C0
78000000
78000000
78000000
78000000
F8000000
F807FFC0
F807FFC0
F807FFC0
F807FFC0
780003C0
780003C0
780003C0
780003C0
7C0003C0
7C0007C0
3C0007C0
3E0007C0
1F000FC0
1F801FC0
0FE07FC0
07FFFDC0
03FFF9C0
01FFF1C0
003F8000
ENDCHAR
STARTCHAR H
ENCODING 72
SWIDTH 544 0
DWIDTH 29 0
BBX 23 34 3 0
BITMAP
F8001E
F8001E
F8001E
F8001E
F8001E
F8001E
F8001E
F8001E
F8001E
F8001E
F8001E
F8001E
F8001E
F8001E
FFFFFE
FFFFFE
FFFFFE
FFFFFE
F8001E
F8001E
F8001E
F8001E
F8001E
F8001E
F8001E
F8001E
F8001E
F8001E
F8001E
F8001E
F8001E
F8001E
F8001E
F8001E
ENDCHAR
STARTCHAR I
ENCODING 73
SWIDTH 210 0
DWIDTH 11 0
BBX 5 34 3 0
BITMAP
F8
F8
F8
F8
F8
F8
F8
F8
F8
F8
F8
F8
F8
F8
F8
F8
F8
F8
F8
F8
F8
F8
F8
F8
F8
F8
F8
F8
F8
F8
F8
F8
F8
F8
ENDCHAR
STARTCHAR J
ENCODING 74
SWIDTH 376 0
DWIDTH 20 0
BBX 16 35 1 -1
BITMAP
000F
000F
000F
000F
000F
000F
000F
000F
000F
000F
000F
000F
000F
000F
000F
000F
000F
000F
000F
000F
000F
000F
000F
000F
F00F
F00F
F00F
F00F
F01F
F81F
FC3E
7FFE
7FFC
1FF8
0FE0
ENDCHAR
STARTCHAR K
ENCODING 75
SWIDTH 503 0
DWIDTH 27 0
BBX 24 34 3 0
BITMAP
F8003E
F8007C
F800F8
F800F8
F801F0
F803E0
F807C0
F807C0
F80F80
F81F00
F81E00
F83E00
F87C00
F8F800
F8F800
F9FC00
FBFC00
FFFE00
FF9E00
FF1F00
FF0F00
FE0F80
FC07C0
F807C0
F803E0
F803E0
F801F0
F801F0
F800F8
F800F8
F8007C
F8007C
F8003E
F8003F
ENDCHAR
STARTCHAR L
ENCODING 76
SWIDTH 419 0
DWIDTH 23 0
BBX 19 34 3 0
BITMAP
F80000
F80000
F80000
F80000
F80000
F80000
F80000
F80000
F80000
F80000
F80000
F80000
F80000
F80000
F80000
F80000
F80000
F80000
F80000
F80000
F80000
F80000
F80000
F80000
F80000
F80000
F80000
F80000
F80000
F80000
FFFFE0
FFFFE0
FFFFE0
FFFFE0
ENDCHAR
STARTCHAR M
ENCODING 77
SWIDTH 628 0
DWIDTH 34 0
BBX 28 34 3 0
BITMAP
FE0007F0
FE0007F0
FE0007F0
FF000FF0
FF000FF0
FF000EF0
FF001EF0
F7801EF0
F7801FF0
F7801DF0
F7C03DF0
F3C03DF0
F3C03DF0
F3C039F0
F3E079F0
F1E079F0
F1E071F0
F1E0F1F0
F1F0F1F0
F0F0F1F0
F0F0E1F0
F0F9E1F0
F079E1F0
F079E1F0
F079C1F0
F079C1F0
F03BC1F0
F03F81F0
F03F81F0
F01F81F0
F01F81F0
F01F01F0
F01F01F0
F00F01F0
ENDCHAR
STARTCHAR N
ENCODING 78
SWIDTH 544 0
DWIDTH 29 0
BBX 23 34 3 0
BITMAP
F8001E
F8001E
FC001E
FC001E
FE001E
FE001E
FF001E
FF801E
F7801E
F7C01E
F3C01E
F3E01E
F1F01E
F1F01E
F0F81E
F0F81E
F07C1E
F03E1E
F03E1E
F01F1E
F01F1E
F00F9E
F0079E
F007DE
F003DE
F003FE
F001FE
F001FE
F000FE
F0007E
F0007E
F0003E
F0003E
F0001E
ENDCHAR
STARTCHAR O
ENCODING 79
SWIDTH 587 0
DWIDTH 32 0
BBX 27 36 2 -1
BITMAP
003FC000
01FFF000
03FFFC00
07FFFE00
0FE07F00
1F801F00
1F000F80
3E000F80
3E0007C0
7C0003C0
7C0003C0
7C0003E0
780003E0
780003E0
780001E0
780001E0
F80001E0
F80001E0
F80001E0
F80001E0
F80001E0
780001E0
780003E0
780003E0
7C0003E0
7C0003C0
7C0003C0
3E0007C0
3E000780
1F000F80
1F801F00
0FE07F00
07FFFE00
03FFFC00
01FFF000
003FC000
ENDCHAR
STARTCHAR P
ENCODING 80
SWIDTH 503 0
DWIDTH 27 0
BBX 23 34 3 0
BITMAP
FFFF80
FFFFE0
FFFFF0
FFFFF8
F801FC
F8007C
F8007C
F8003E
F8003E
F8003E
F8003E
F8003E
F8003E
F8007C
F800FC
F801F8
FFFFF8
FFFFF0
FFFFC0
FFFF00
F80000
F80000
F80000
F80000
F80000
F80000
F80000
F80000
F80000
F80000
F80000
F80000
F80000
F80000
ENDCHAR
STARTCHAR Q
ENCODING 81
SWIDTH 587 0
DWIDTH 32 0
BBX 27 41 2 -6
BITMAP
003FC000
01FFF000
03FFFC00
07FFFE00
0FE07F00
1F801F00
1F000F80
3E000F80
3E0007C0
7C0003C0
7C0003C0
7C0003E0
780003E0
780003E0
780001E0
780001E0
F80001E0
F80001E0
F80001E0
F80001E0
F80001E0
780001E0
780003E0
780003E0
7C0003E0
7C0003C0
7C0003C0
3E0007C0
3E000780
1F000F80
1F801F00
0FE07F00
07FFFE00
03FFFC00
01FFF000
003FF000
0001F800
0000FC00
00007E00
00003F00
00001FC0
ENDCHAR
STARTCHAR R
ENCODING 82
SWIDTH 544 0
DWIDTH 29 0
BBX 25 34 3 0
BITMAP
FFFFC000
FFFFF000
FFFFFC00
FFFFFE00
F8007E00
F8003F00
F8001F00
F8001F00
F8000F00
F8000F00
F8000F00
F8001F00
F8001F00
F8003E00
F8007E00
FFFFFC00
FFFFF800
FFFFF000
FFFFC000
F803E000
F801E000
F801F000
F801F000
F800F800
F800F800
F8007800
F8007C00
F8003C00
F8003E00
F8003E00
F8001F00
F8001F00
F8000F00
F8000F80
ENDCHAR
STARTCHAR S
ENCODING 83
SWIDTH 503 0
DWIDTH 27 0
BBX 23 36 2 -1
BITMAP
00FF00
07FFC0
0FFFE0
1FFFF0
3F83F8
7E00F8
7C007C
78007C
78003C
78003C
7C0000
7C0000
7E0000
3F8000
3FE000
1FFC00
0FFF00
07FFE0
00FFF0
003FF8
0007FC
0001FC
00007E
00003E
00003E
F8003E
F8003E
F8003E
F8003E
FC003C
7E007C
7F01FC
3FFFF8
1FFFF0
07FFC0
01FF00
ENDCHAR
STARTCHAR T
ENCODING 84
SWIDTH 461 0
DWIDTH 25 0
BBX 23 34 1 0
BITMAP
FFFFFE
FFFFFE
FFFFFE
FFFFFE
007C00
007C00
007C00
007C00
007C00
007C00
007C00
007C00
007C00
007C00
007C00
007C00
007C00
007C00
007C00
007C00
007C00
007C00
007C00
007C00
007C00
007C00
007C00
007C00
007C00
007C00
007C00
007C00
007C00
007C00
ENDCHAR
STARTCHAR U
ENCODING 85
SWIDTH 544 0
DWIDTH 29 0
BBX 23 35 3 -1
BITMAP
F8001E
F8001E
F8001E
F8001E
F8001E
F8001E
F8001E
F8001E
F8001E
F8001E
F8001E
F8001E
F8001E
F8001E
F8001E
F8001E
F8001E
F8001E
F8001E
F8001E
F8001E
F8001E
F8001E
F8001E
F8003E
78003E
78003E
7C003C
7C007C
3E00FC
3F81F8
1FFFF0
0FFFE0
07FFC0
00FF00
ENDCHAR
STARTCHAR V
ENCODING 86
SWIDTH 503 0
DWIDTH 27 0
BBX 27 34 0 0
BITMAP
F80003E0
7C0003C0
7C0003C0
7C0007C0
3E000780
3E000780
3E000780
1E000F00
1F000F00
1F000F00
0F001F00
0F801E00
0F801E00
07801E00
07803C00
07C03C00
07C03C00
03C07800
03E07800
03E07800
01E0F800
01E0F000
01F0F000
00F0F000
00F1E000
00F9E000
00F9E000
007BC000
007BC000
007FC000
003F8000
003F8000
003F8000
001F8000
ENDCHAR
STARTCHAR W
ENCODING 87
SWIDTH 711 0
DWIDTH 38 0
BBX 38 34 0 0
BITMAP
F800FC003C
7800FE003C
7C00FE0078
7C00FE0078
3C00FE0078
3C01FE0078
3E01EF0070
3E01EF00F0
3E01EF00F0
1E01CF00F0
1E01CF00E0
1F03CF01E0
1F03CF81E0
0F03C781E0
0F03C781E0
0F838781C0
0F838783C0
078787C3C0
078783C3C0
078783C380
07C703C780
07C703C780
03C703C780
03CF03E700
03EF01E700
03EF01EF00
01EE01EF00
01EE01EF00
01EE01EE00
01EE00FE00
00FE00FE00
00FE00FE00
00FC00FC00
00FC00FC00
ENDCHAR
STARTCHAR X
ENCODING 88
SWIDTH 503 0
DWIDTH 27 0
BBX 27 34 0 0
BITMAP
7E0007C0
3E000F80
1F000F00
1F001F00
0F803E00
0FC03C00
07C07C00
03E07800
03E0F800
01F1F000
00F9E000
00FBE000
007FC000
007FC000
003F8000
001F0000
001F0000
003F8000
003FC000
007FC000
007BE000
00FBE000
01F1F000
01E1F800
03E0F800
07C07C00
07C07C00
0F803E00
0F003F00
1F001F00
3E000F80
3C000F80
7C0007C0
F80007E0
ENDCHAR
STARTCHAR Y
ENCODING 89
SWIDTH 503 0
DWIDTH 27 0
BBX 27 34 0 0
BITMAP
FC0003E0
7C0003C0
3E000780
3E000780
1F000F00
1F000F00
0F801E00
0F803E00
07C03C00
03C07C00
03E07800
01F0F000
01F0F000
00F9E000
00F9E000
007FC000
007FC000
003F8000
001F8000
001F0000
001F0000
001F0000
001F0000
001F0000
001F0000
001F0000
001F0000
001F0000
001F0000
001F0000
001F0000
001F0000
001F0000
001F0000
ENDCHAR
STARTCHAR Z
ENCODING 90
SWIDTH 461 0
DWIDTH 25 0
BBX 23 34 1 0
BITMAP
7FFFFC
7FFFFC
7FFFFC
7FFFFC
0000F8
0001F0
0001F0
0003E0
0003E0
0007C0
000F80
000F80
001F00
001F00
003E00
003E00
007C00
00F800
00F800
01F000
01F000
03E000
03E000
07C000
0F8000
0F8000
1F0000
1F0000
3E0000
3C0000
7FFFFE
FFFFFE
FFFFFE
FFFFFE
ENDCHAR
STARTCHAR bracketleft
ENCODING 91
SWIDTH 210 0
DWIDTH 11 0
BBX 8 45 2 -8
BITMAP
FF
FF
FF
FF
F0
F0
F0
F0
F0
F0
F0
F0
F0
F0
F0
F0
F0
F0
F0
F0
F0
F0
F0
F0
F0
F0
F0
F0
F0
F0
F0
F0
F0
F0
F0
F0
F0
F0
F0
F0
F0
FF
FF
FF
FF
ENDCHAR
STARTCHAR backslash
ENCODING 92
SWIDTH 210 0
DWIDTH 11 0
BBX 11 40 0 -2
BITMAP
F000
F000
F000
7000
7000
7800
7800
7800
3800
3800
3C00
3C00
3C00
1C00
1C00
1E00
1E00
1E00
0E00
0E00
0F00
0F00
0F00
0700
0700
0700
0780
0780
0380
0380
0380
03C0
03C0
01C0
01C0
01C0
01E0
01E0
00E0
00E0
ENDCHAR
STARTCHAR bracketright
ENCODING 93
SWIDTH 210 0
DWIDTH 11 0
BBX 8 45 1 -8
BITMAP
FF
FF
FF
FF
0F
0F
0F
0F
0F
0F
0F
0F
0F
0F
0F
0F
0F
0F
0F
0F
0F
0F
0F
0F
0F
0F
0F
0F
0F
0F
0F
0F
0F
0F
0F
0F
0F
0F
0F
0F
0F
FF
FF
FF
FF
ENDCHAR
STARTCHAR asciicircum
ENCODING 94
SWIDTH 354 0
DWIDTH 19 0
BBX 19 19 0 15
BITMAP
01F000
03F800
03F800
03F800
07BC00
07BC00
07BE00
0F1E00
0F1E00
0F1F00
1F0F00
1E0F00
1E0F80
3E0780
3C0780
3C07C0
7C03C0
7803C0
F803E0
ENDCHAR
STARTCHAR underscore
ENCODING 95
SWIDTH 419 0
DWIDTH 23 0
BBX 23 3 0 -6
BITMAP
FFFFFE
FFFFFE
FFFFFE
ENDCHAR
STARTCHAR grave
ENCODING 96
SWIDTH 251 0
DWIDTH 14 0
BBX 9 6 1 30
BITMAP
F800
3C00
3C00
1E00
0F00
0780
ENDCHAR
STARTCHAR a
ENCODING 97
SWIDTH 419 0
DWIDTH 23 0
BBX 20 28 2 -1
BITMAP
03F800
0FFE00
1FFF00
3FFF00
7E1F80
7C0F80
780780
780780
780780
000780
000780
000780
01FF80
0FFF80
3FFF80
7FFF80
7E0780
F80780
F00780
F00780
F00780
F00F80
F01F80
F83F80
FFFFF0
7FF3F0
3FE3F0
0F81F0
ENDCHAR
STARTCHAR b
ENCODING 98
SWIDTH 419 0
DWIDTH 23 0
BBX 18 37 3 -1
BITMAP
F00000
F00000
F00000
F00000
F00000
F00000
F00000
F00000
F00000
F1F000
F3FC00
F7FE00
FFFF00
FE1F00
FC0F00
F80F80
F80780
F00780
F00780
F007C0
F007C0
F007C0
F007C0
F007C0
F007C0
F007C0
F007C0
F00780
F00780
F80780
F80F80
FC0F00
FE1F00
FFFF00
E7FE00
E3FC00
01F000
ENDCHAR
STARTCHAR c
ENCODING 99
SWIDTH 376 0
DWIDTH 20 0
BBX 17 28 2 -1
BITMAP
03F000
0FFC00
1FFE00
3FFE00
7E1F00
7C0F00
780F00
F80F00
F00F80
F00F80
F00F80
F00000
F00000
F00000
F00000
F00000
F00000
F00780
F00780
F00780
F80F00
780F00
7C0F00
7E1F00
3FFE00
1FFC00
0FF800
07F000
ENDCHAR
STARTCHAR d
ENCODING 100
SWIDTH 419 0
DWIDTH 23 0
BBX 18 37 2 -1
BITMAP
0003C0
0003C0
0003C0
0003C0
0003C0
0003C0
0003C0
0003C0
0003C0
07C3C0
0FF3C0
1FFBC0
3FFFC0
3E1FC0
7C0FC0
780FC0
7807C0
F807C0
F007C0
F007C0
F003C0
F003C0
F003C0
F003C0
F003C0
F003C0
F007C0
F007C0
F807C0
7807C0
7807C0
7C0FC0
7E1FC0
3FFFC0
1FFBC0
0FF3C0
07C000
ENDCHAR
STARTCHAR e
ENCODING 101
SWIDTH 419 0
DWIDTH 23 0
BBX 19 28 2 -1
BITMAP
03F800
0FFE00
1FFF00
3FFF80
3F0F80
7C07C0
7C07C0
7803C0
F803C0
F803C0
F803C0
F003C0
FFFFE0
FFFFE0
FFFFE0
FFFFE0
F00000
F00000
F80000
F803E0
7803C0
7803C0
7C07C0
3F0F80
3FFF80
1FFF00
0FFE00
03F800
ENDCHAR
STARTCHAR f
ENCODING 102
SWIDTH 210 0
DWIDTH 11 0
BBX 11 36 0 0
BITMAP
07E0
0FE0
1FE0
1FE0
1E00
1E00
1E00
1E00
1E00
1E00
FFE0
FFE0
FFE0
FFE0
1E00
1E00
1E00
1E00
1E00
1E00
1E00
1E00
1E00
1E00
1E00
1E00
1E00
1E00
1E00
1E00
1E00
1E00
1E00
1E00
1E00
1E00
ENDCHAR
STARTCHAR g
ENCODING 103
SWIDTH 419 0
DWIDTH 23 0
BBX 21 40 1 -9
BITMAP
000078
000078
0000F0
0000F0
01F9F0
07FFE0
0FFFC0
1FFF80
3F0F80
3E07C0
3C03C0
3C03C0
3C03E0
3C03E0
3C03E0
3C03C0
3E07C0
1F0FC0
1FFF80
0FFF80
1FFE00
3FF800
7C0000
780000
780000
7C0000
3FFFC0
1FFFE0
3FFFF0
7FFFF8
F800F8
F00078
F00078
F00078
F00078
F800F8
FFFFF0
7FFFE0
3FFFC0
1FFF80
ENDCHAR
STARTCHAR h
ENCODING 104
SWIDTH 419 0
DWIDTH 23 0
BBX 17 36 3 0
BITMAP
F00000
F00000
F00000
F00000
F00000
F00000
F00000
F00000
F00000
F0F800
F3FE00
F7FE00
FFFF00
FE1F00
FC0F00
F80F80
F80780
F00780
F00780
F00780
F00780
F00780
F00780
F00780
F00780
F00780
F00780
F00780
F00780
F00780
F00780
F00780
F00780
F00780
F00780
F00780
ENDCHAR
STARTCHAR i
ENCODING 105
SWIDTH 167 0
DWIDTH 9 0
BBX 5 36 2 0
BITMAP
F8
F8
F8
F8
F8
00
00
00
00
00
F8
F8
F8
F8
F8
F8
F8
F8
F8
F8
F8
F8
F8
F8
F8
F8
F8
F8
F8
F8
F8
F8
F8
F8
F8
F8
ENDCHAR
STARTCHAR j
ENCODING 106
SWIDTH 167 0
DWIDTH 9 0
BBX 9 45 -2 -9
BITMAP
0F80
0F80
0F80
0F80
0F80
0000
0000
0000
0000
0000
0F80
0F80
0F80
0F80
0F80
0F80
0F80
0F80
0F80
0F80
0F80
0F80
0F80
0F80
0F80
0F80
0F80
0F80
0F80
0F80
0F80
0F80
0F80
0F80
0F80
0F80
0F80
0F80
0F80
0F80
0F00
FF00
FF00
FE00
FC00
ENDCHAR
STARTCHAR k
ENCODING 107
SWIDTH 376 0
DWIDTH 20 0
BBX 17 36 3 0
BITMAP
F00000
F00000
F00000
F00000
F00000
F00000
F00000
F00000
F00000
F00000
F00F80
F01F00
F01E00
F03C00
F07C00
F07800
F0F000
F1F000
F1E000
F3C000
F78000
FFC000
FFC000
FFE000
FFE000
FDF000
F8F000
F0F800
F07800
F07C00
F03E00
F03E00
F01F00
F01F00
F00F80
F00780
ENDCHAR
STARTCHAR l
ENCODING 108
SWIDTH 167 0
DWIDTH 9 0
BBX 5 36 2 0
BITMAP
F8
F8
F8
F8
F8
F8
F8
F8
F8
F8
F8
F8
F8
F8
F8
F8
F8
F8
F8
F8
F8
F8
F8
F8
F8
F8
F8
F8
F8
F8
F8
F8
F8
F8
F8
F8
ENDCHAR
STARTCHAR m
ENCODING 109
SWIDTH 628 0
DWIDTH 34 0
BBX 28 27 3 0
BITMAP
01F01F00
E3FC3FC0
E7FE7FE0
FFFEFFE0
FE3FE3F0
FC1FC1F0
F80F80F0
F80F80F0
F00F00F0
F00F00F0
F00F00F0
F00F00F0
F00F00F0
F00F00F0
F00F00F0
F00F00F0
F00F00F0
F00F00F0
F00F00F0
F00F00F0
F00F00F0
F00F00F0
F00F00F0
F00F00F0
F00F00F0
F00F00F0
F00F00F0
ENDCHAR
STARTCHAR n
ENCODING 110
SWIDTH 419 0
DWIDTH 23 0
BBX 17 27 3 0
BITMAP
01F800
E3FE00
E7FE00
FFFF00
FE1F00
FC0F00
F80F80
F80780
F00780
F00780
F00780
F00780
F00780
F00780
F00780
F00780
F00780
F00780
F00780
F00780
F00780
F00780
F00780
F00780
F00780
F00780
F00780
ENDCHAR
STARTCHAR o
ENCODING 111
SWIDTH 419 0
DWIDTH 23 0
BBX 19 28 2 -1
BITMAP
03F800
0FFC00
1FFF00
3FFF00
3E1F80
7C0780
7807C0
7803C0
F803C0
F003C0
F003E0
F003E0
F003E0
F003E0
F003E0
F003E0
F003E0
F003E0
F003C0
F803C0
7803C0
7807C0
7C0780
3E1F80
3FFF00
1FFF00
0FFC00
03F800
ENDCHAR
STARTCHAR p
ENCODING 112
SWIDTH 419 0
DWIDTH 23 0
BBX 18 36 3 -9
BITMAP
01F000
E3FC00
E7FE00
FFFF00
FE1F00
FC0F80
F80F80
F80780
F00780
F00780
F007C0
F007C0
F007C0
F007C0
F007C0
F007C0
F007C0
F007C0
F00780
F00780
F80780
F80F80
FC0F00
FE1F00
FFFE00
F7FE00
F3FC00
F1F000
F00000
F00000
F00000
F00000
F00000
F00000
F00000
F00000
ENDCHAR
STARTCHAR q
ENCODING 113
SWIDTH 419 0
DWIDTH 23 0
BBX 18 36 2 -9
BITMAP
07C000
0FF3C0
1FFBC0
3FFFC0
3E1FC0
7C0FC0
7807C0
7807C0
F807C0
F007C0
F007C0
F003C0
F003C0
F003C0
F003C0
F003C0
F003C0
F007C0
F007C0
F807C0
7807C0
7807C0
7C0FC0
3E1FC0
3FFFC0
1FFBC0
0FF3C0
07C3C0
0003C0
0003C0
0003C0
0003C0
0003C0
0003C0
0003C0
0003C0
ENDCHAR
STARTCHAR r
ENCODING 114
SWIDTH 251 0
DWIDTH 14 0
BBX 10 27 3 0
BITMAP
03C0
E7C0
EFC0
FFC0
FE00
F800
F800
F000
F000
F000
F000
F000
F000
F000
F000
F000
F000
F000
F000
F000
F000
F000
F000
F000
F000
F000
F000
ENDCHAR
STARTCHAR s
ENCODING 115
SWIDTH 376 0
DWIDTH 20 0
BBX 16 28 2 -1
BITMAP
07E0
1FF8
3FFC
7FFE
7C3E
F81F
F81F
F00F
F800
F800
7C00
7F80
3FE0
1FF8
07FC
00FE
003F
001F
000F
F00F
F00F
F00F
F81F
FC3F
7FFE
3FFE
1FF8
07F0
ENDCHAR
STARTCHAR t
ENCODING 116
SWIDTH 210 0
DWIDTH 11 0
BBX 9 34 1 -1
BITMAP
1C00
1C00
3C00
3C00
3C00
3C00
3C00
FF80
FF80
FF80
FF80
3C00
3C00
3C00
3C00
3C00
3C00
3C00
3C00
3C00
3C00
3C00
3C00
3C00
3C00
3C00
3C00
3C00
3C00
3E00
3F80
1F80
1F80
0F80
ENDCHAR
STARTCHAR u
ENCODING 117
SWIDTH 419 0
DWIDTH 23 0
BBX 17 27 3 -1
BITMAP
F00780
F00780
F00780
F00780
F00780
F00780
F00780
F00780
F00780
F00780
F00780
F00780
F00780
F00780
F00780
F00780
F00780
F00780
F00F80
F00F80
F00F80
F81F80
FC3F80
7FF780
7FF780
3FE780
0F8000
ENDCHAR
STARTCHAR v
ENCODING 118
SWIDTH 376 0
DWIDTH 20 0
BBX 20 26 0 0
BITMAP
F800F0
7801E0
7C01E0
7C01E0
3C01E0
3C03C0
3E03C0
1E03C0
1E0780
1F0780
0F0780
0F0780
0F0F00
0F8F00
078F00
078E00
079E00
03DE00
03DE00
03DC00
03FC00
01FC00
01F800
01F800
00F800
00F800
ENDCHAR
STARTCHAR w
ENCODING 119
SWIDTH 544 0
DWIDTH 29 0
BBX 29 26 0 0
BITMAP
F80F8078
F80F8078
780FC078
780FC0F0
7C0FC0F0
7C1DC0F0
3C1DC0F0
3C1DE1E0
3C1DE1E0
3E1DE1E0
1E1DE1E0
1E3CE1C0
1E3CE3C0
1F38F3C0
0F38F3C0
0F38F380
0F387380
0F787780
07F07780
07F07F00
07F07F00
07F07F00
03F03F00
03F03E00
03E03E00
03E03E00
ENDCHAR
STARTCHAR x
ENCODING 120
SWIDTH 376 0
DWIDTH 20 0
BBX 20 26 0 0
BITMAP
7C01F0
7C03E0
3E03C0
1E07C0
1F0780
0F0F80
0F8F00
07DE00
07FE00
03FC00
01FC00
01F800
00F000
00F800
01FC00
03FC00
03FE00
079E00
079F00
0F0F00
1F0F80
1E0780
3E07C0
3C03E0
7C03E0
F801F0
ENDCHAR
STARTCHAR y
ENCODING 121
SWIDTH 376 0
DWIDTH 20 0
BBX 20 35 0 -9
BITMAP
F800F0
7801E0
7C01E0
3C01E0
3C01E0
3E03C0
1E03C0
1E03C0
1E03C0
1F0780
0F0780
0F0780
0F8780
078F00
078F00
078F00
03CE00
03DE00
03DE00
01FE00
01FC00
01FC00
00FC00
00FC00
00F800
00F800
00F800
00F000
01F000
01F000
07E000
3FC000
3FC000
3F8000
3E0000
ENDCHAR
STARTCHAR z
ENCODING 122
SWIDTH 376 0
DWIDTH 20 0
BBX 18 26 1 0
BITMAP
7FFF80
7FFF80
7FFF80
7FFF80
001F00
001E00
003E00
003C00
007C00
007800
00F800
01F000
01E000
03E000
03C000
07C000
078000
0F0000
1F0000
1E0000
3E0000
3C0000
7FFFC0
7FFFC0
FFFFC0
FFFFC0
ENDCHAR
STARTCHAR braceleft
ENCODING 123
SWIDTH 252 0
DWIDTH 14 0
BBX 12 45 1 -9
BITMAP
00F0
03F0
07F0
0F80
0F00
0F00
0F00
0F00
0F00
0F00
0F00
0F00
0F00
0F00
0F00
0E00
0E00
0E00
0E00
1E00
3E00
FC00
F800
F800
FC00
3E00
1E00
0E00
0E00
0E00
0E00
0E00
0F00
0F00
0F00
0F00
0F00
0F00
0F00
0F00
0F00
0F80
07F0
03F0
00F0
ENDCHAR
STARTCHAR bar
ENCODING 124
SWIDTH 196 0
DWIDTH 11 0
BBX 4 45 3 -9
BITMAP
F0
F0
F0
F0
F0
F0
F0
F0
F0
F0
F0
F0
F0
F0
F0
F0
F0
F0
F0
F0
F0
F0
F0
F0
F0
F0
F0
F0
F0
F0
F0
F0
F0
F0
F0
F0
F0
F0
F0
F0
F0
F0
F0
F0
F0
ENDCHAR
STARTCHAR braceright
ENCODING 125
SWIDTH 252 0
DWIDTH 14 0
BBX 12 45 1 -9
BITMAP
F000
FC00
FE00
3E00
1E00
0F00
0F00
0F00
0F00
0F00
0F00
0F00
0F00
0F00
0F00
0F00
0F00
0F00
0F00
0700
0780
07F0
01F0
01F0
07F0
0780
0F00
0F00
0F00
0F00
0F00
0F00
0F00
0F00
0F00
0F00
0F00
0F00
0F00
0F00
1E00
3E00
FE00
FC00
F000
ENDCHAR
STARTCHAR asciitilde
ENCODING 126
SWIDTH 440 0
DWIDTH 24 0
BBX 20 9 2 10
BITMAP
000010
1F0010
7FC030
FFF0F0
FFFFF0
E0FFE0
C03FC0
800F80
800000
ENDCHAR
ENDFONT
