STARTFONT 2.1
FONT -FontForge-Pragati Narrow-Book-R-Normal--22-170-96-96-P-86-ISO10646-1
SIZE 17 96 96
FONTBOUNDINGBOX 17 19 -1 -4
COMMENT "Generated by fontforge, http://fontforge.sourceforge.net"
COMMENT "Copyright (c) 2012-2015, Omnibus-Type (www.omnibus-type.com omnibus.type@gmail.com)"
STARTPROPERTIES 40
FOUNDRY "FontForge"
FAMILY_NAME "Pragati Narrow"
WEIGHT_NAME "Book"
SLANT "R"
SETWIDTH_NAME "Normal"
ADD_STYLE_NAME ""
PIXEL_SIZE 22
POINT_SIZE 170
RESOLUTION_X 96
RESOLUTION_Y 96
SPACING "P"
AVERAGE_WIDTH 86
CHARSET_REGISTRY "ISO10646"
CHARSET_ENCODING "1"
FONTNAME_REGISTRY ""
CHARSET_COLLECTIONS "ISO8859-2 ISO8859-9 ISO8859-4 ISO10646-1"
FONT_NAME "PragatiNarrow-Regular"
FACE_NAME "Pragati Narrow"
COPYRIGHT "Copyright (c) 2012-2015, Omnibus-Type (www.omnibus-type.com omnibus.type@gmail.com)"
FONT_VERSION "1.010; ttfautohint (v1.3)"
FONT_ASCENT 18
FONT_DESCENT 4
UNDERLINE_POSITION -2
UNDERLINE_THICKNESS 2
X_HEIGHT 10
CAP_HEIGHT 13
RAW_ASCENT 800
RAW_DESCENT 200
NORM_SPACE 5
RELATIVE_WEIGHT 40
RELATIVE_SETWIDTH 50
SUPERSCRIPT_X 0
SUPERSCRIPT_Y 7
SUPERSCRIPT_SIZE 13
SUBSCRIPT_X 0
SUBSCRIPT_Y 1
SUBSCRIPT_SIZE 13
FIGURE_WIDTH 9
AVG_LOWERCASE_WIDTH 82
AVG_UPPERCASE_WIDTH 112
ENDPROPERTIES
CHARS 95
STARTCHAR space
ENCODING 32
SWIDTH 210 0
DWIDTH 5 0
BBX 1 1 0 0
BITMAP
00
ENDCHAR
STARTCHAR exclam
ENCODING 33
SWIDTH 210 0
DWIDTH 5 0
BBX 3 14 1 0
BITMAP
E0
C0
C0
C0
C0
C0
40
40
40
40
40
00
C0
C0
ENDCHAR
STARTCHAR quotedbl
ENCODING 34
SWIDTH 267 0
DWIDTH 6 0
BBX 4 6 1 8
BITMAP
B0
B0
B0
B0
90
90
ENDCHAR
STARTCHAR numbersign
ENCODING 35
SWIDTH 419 0
DWIDTH 9 0
BBX 9 14 0 0
BITMAP
0980
1900
1900
1B00
7F80
3200
3200
3600
2600
FF00
6400
6400
6C00
4C00
ENDCHAR
STARTCHAR dollar
ENCODING 36
SWIDTH 419 0
DWIDTH 9 0
BBX 7 15 1 0
BITMAP
10
10
7C
56
D6
D0
70
3C
16
D6
D6
F6
7C
10
10
ENDCHAR
STARTCHAR percent
ENCODING 37
SWIDTH 670 0
DWIDTH 15 0
BBX 13 14 1 0
BITMAP
7020
D860
88C0
8880
8980
D900
7200
0670
04D8
0C88
0888
1088
30D8
2070
ENDCHAR
STARTCHAR ampersand
ENCODING 38
SWIDTH 503 0
DWIDTH 11 0
BBX 10 14 1 0
BITMAP
3E00
6300
C100
C100
C000
4000
39C0
C100
C100
8100
C100
C100
4300
3C00
ENDCHAR
STARTCHAR quotesingle
ENCODING 39
SWIDTH 145 0
DWIDTH 3 0
BBX 1 6 1 8
BITMAP
80
80
80
80
80
80
ENDCHAR
STARTCHAR parenleft
ENCODING 40
SWIDTH 251 0
DWIDTH 6 0
BBX 4 19 1 -4
BITMAP
10
20
60
60
40
C0
C0
C0
C0
C0
C0
C0
C0
C0
40
60
20
20
10
ENDCHAR
STARTCHAR parenright
ENCODING 41
SWIDTH 251 0
DWIDTH 6 0
BBX 5 19 0 -4
BITMAP
C0
40
20
20
30
30
10
18
18
18
18
18
10
30
30
20
20
40
C0
ENDCHAR
STARTCHAR asterisk
ENCODING 42
SWIDTH 293 0
DWIDTH 6 0
BBX 5 5 1 9
BITMAP
20
B8
60
B8
20
ENDCHAR
STARTCHAR plus
ENCODING 43
SWIDTH 440 0
DWIDTH 10 0
BBX 8 11 1 0
BITMAP
18
18
18
18
18
FF
18
18
18
18
18
ENDCHAR
STARTCHAR comma
ENCODING 44
SWIDTH 210 0
DWIDTH 5 0
BBX 2 4 1 -2
BITMAP
C0
C0
40
C0
ENDCHAR
STARTCHAR hyphen
ENCODING 45
SWIDTH 251 0
DWIDTH 6 0
BBX 5 2 0 5
BITMAP
F8
F8
ENDCHAR
STARTCHAR period
ENCODING 46
SWIDTH 210 0
DWIDTH 5 0
BBX 2 2 1 0
BITMAP
C0
C0
ENDCHAR
STARTCHAR slash
ENCODING 47
SWIDTH 210 0
DWIDTH 5 0
BBX 5 16 0 -1
BITMAP
18
10
10
10
30
30
20
20
20
60
60
40
40
40
C0
C0
ENDCHAR
STARTCHAR zero
ENCODING 48
SWIDTH 419 0
DWIDTH 9 0
BBX 7 14 1 0
BITMAP
38
44
C6
C6
C6
C6
C6
C6
C6
C6
C6
C6
44
38
ENDCHAR
STARTCHAR one
ENCODING 49
SWIDTH 419 0
DWIDTH 9 0
BBX 8 14 1 0
BITMAP
18
F8
F8
18
18
18
18
18
18
18
18
18
18
FF
ENDCHAR
STARTCHAR two
ENCODING 50
SWIDTH 419 0
DWIDTH 9 0
BBX 7 14 1 0
BITMAP
3C
46
C6
C6
C6
06
0E
1C
38
30
70
E0
C0
FE
ENDCHAR
STARTCHAR three
ENCODING 51
SWIDTH 419 0
DWIDTH 9 0
BBX 7 14 1 0
BITMAP
7C
C6
C6
86
06
06
38
06
06
06
86
C6
C6
7C
ENDCHAR
STARTCHAR four
ENCODING 52
SWIDTH 419 0
DWIDTH 9 0
BBX 9 14 0 0
BITMAP
0C00
0800
1A00
1A00
1200
3200
2200
6200
4200
FF80
0200
0200
0200
0200
ENDCHAR
STARTCHAR five
ENCODING 53
SWIDTH 419 0
DWIDTH 9 0
BBX 8 14 1 0
BITMAP
7E
C0
C0
C0
C0
FC
E6
C2
03
03
83
C3
46
3C
ENDCHAR
STARTCHAR six
ENCODING 54
SWIDTH 419 0
DWIDTH 9 0
BBX 8 14 1 0
BITMAP
3C
46
C2
C2
C0
FC
E6
C2
C3
C3
C3
C2
66
3C
ENDCHAR
STARTCHAR seven
ENCODING 55
SWIDTH 419 0
DWIDTH 9 0
BBX 8 14 1 0
BITMAP
FF
06
04
0C
08
18
18
30
30
30
20
60
60
60
ENDCHAR
STARTCHAR eight
ENCODING 56
SWIDTH 419 0
DWIDTH 9 0
BBX 7 14 1 0
BITMAP
38
44
C6
C6
C6
44
38
C6
C6
C6
C6
C6
C6
38
ENDCHAR
STARTCHAR nine
ENCODING 57
SWIDTH 419 0
DWIDTH 9 0
BBX 7 14 1 0
BITMAP
7C
C6
C6
C6
C6
C6
C6
7E
06
06
86
C6
6C
38
ENDCHAR
STARTCHAR colon
ENCODING 58
SWIDTH 210 0
DWIDTH 5 0
BBX 2 11 1 0
BITMAP
C0
C0
00
00
00
00
00
00
00
C0
C0
ENDCHAR
STARTCHAR semicolon
ENCODING 59
SWIDTH 210 0
DWIDTH 5 0
BBX 2 13 1 -2
BITMAP
C0
C0
00
00
00
00
00
00
00
C0
C0
40
C0
ENDCHAR
STARTCHAR less
ENCODING 60
SWIDTH 440 0
DWIDTH 10 0
BBX 8 10 1 0
BITMAP
03
0F
3C
F0
C0
E0
78
1E
07
01
ENDCHAR
STARTCHAR equal
ENCODING 61
SWIDTH 440 0
DWIDTH 10 0
BBX 8 6 1 3
BITMAP
FF
00
00
00
00
FF
ENDCHAR
STARTCHAR greater
ENCODING 62
SWIDTH 440 0
DWIDTH 10 0
BBX 8 10 1 0
BITMAP
80
E0
38
0E
03
07
1E
78
E0
80
ENDCHAR
STARTCHAR question
ENCODING 63
SWIDTH 419 0
DWIDTH 9 0
BBX 7 14 1 0
BITMAP
3C
46
C6
C6
06
06
0C
1C
18
18
00
00
18
18
ENDCHAR
STARTCHAR at
ENCODING 64
SWIDTH 764 0
DWIDTH 17 0
BBX 15 18 1 -4
BITMAP
07E0
1830
2008
43C4
4644
C466
8462
8062
8062
83E2
8462
8C64
8C64
C7B8
4000
6000
3040
0FC0
ENDCHAR
STARTCHAR A
ENCODING 65
SWIDTH 503 0
DWIDTH 11 0
BBX 11 14 0 0
BITMAP
0E00
0E00
0A00
1B00
1B00
1B00
3180
3180
3180
60C0
7FC0
60C0
C060
C060
ENDCHAR
STARTCHAR B
ENCODING 66
SWIDTH 503 0
DWIDTH 11 0
BBX 9 14 1 0
BITMAP
FF00
C180
C180
C180
C180
C300
FE00
C180
C180
C080
C080
C180
C180
FF00
ENDCHAR
STARTCHAR C
ENCODING 67
SWIDTH 544 0
DWIDTH 12 0
BBX 10 14 1 0
BITMAP
1F00
6180
60C0
C0C0
C0C0
C000
C000
C000
C000
C0C0
C0C0
60C0
6180
1F00
ENDCHAR
STARTCHAR D
ENCODING 68
SWIDTH 544 0
DWIDTH 12 0
BBX 10 14 1 0
BITMAP
FE00
C300
C180
C0C0
C0C0
C0C0
C0C0
C0C0
C0C0
C0C0
C080
C180
C300
FE00
ENDCHAR
STARTCHAR E
ENCODING 69
SWIDTH 503 0
DWIDTH 11 0
BBX 9 14 1 0
BITMAP
FF80
C000
C000
C000
C000
C000
FF00
C000
C000
C000
C000
C000
C000
FF80
ENDCHAR
STARTCHAR F
ENCODING 70
SWIDTH 461 0
DWIDTH 10 0
BBX 8 14 1 0
BITMAP
FF
C0
C0
C0
C0
C0
FF
C0
C0
C0
C0
C0
C0
C0
ENDCHAR
STARTCHAR G
ENCODING 71
SWIDTH 587 0
DWIDTH 13 0
BBX 11 14 1 0
BITMAP
1F00
3180
60C0
C040
C060
C000
C000
C7E0
C060
C060
C060
60E0
31E0
1F60
ENDCHAR
STARTCHAR H
ENCODING 72
SWIDTH 544 0
DWIDTH 12 0
BBX 10 14 1 0
BITMAP
C0C0
C0C0
C0C0
C0C0
C0C0
C0C0
FFC0
C0C0
C0C0
C0C0
C0C0
C0C0
C0C0
C0C0
ENDCHAR
STARTCHAR I
ENCODING 73
SWIDTH 210 0
DWIDTH 5 0
BBX 2 14 1 0
BITMAP
C0
C0
C0
C0
C0
C0
C0
C0
C0
C0
C0
C0
C0
C0
ENDCHAR
STARTCHAR J
ENCODING 74
SWIDTH 376 0
DWIDTH 8 0
BBX 7 14 0 0
BITMAP
06
06
06
06
06
06
06
06
06
06
C6
C6
46
3C
ENDCHAR
STARTCHAR K
ENCODING 75
SWIDTH 503 0
DWIDTH 11 0
BBX 10 14 1 0
BITMAP
C1C0
C180
C300
C600
CC00
CC00
DC00
F400
E600
C300
C300
C180
C180
C0C0
ENDCHAR
STARTCHAR L
ENCODING 76
SWIDTH 419 0
DWIDTH 9 0
BBX 8 14 1 0
BITMAP
C0
C0
C0
C0
C0
C0
C0
C0
C0
C0
C0
C0
C0
FF
ENDCHAR
STARTCHAR M
ENCODING 77
SWIDTH 628 0
DWIDTH 14 0
BBX 12 14 1 0
BITMAP
E070
E0F0
F0F0
F0B0
F0B0
D1B0
D9B0
D930
C930
CB30
CF30
CE30
C630
C630
ENDCHAR
STARTCHAR N
ENCODING 78
SWIDTH 544 0
DWIDTH 12 0
BBX 10 14 1 0
BITMAP
C0C0
E0C0
E0C0
F0C0
D8C0
D8C0
CCC0
CCC0
C6C0
C6C0
C3C0
C1C0
C1C0
C0C0
ENDCHAR
STARTCHAR O
ENCODING 79
SWIDTH 587 0
DWIDTH 13 0
BBX 11 14 1 0
BITMAP
1F00
3180
60C0
C040
C060
C060
C060
C060
C060
C060
C040
60C0
3180
1F00
ENDCHAR
STARTCHAR P
ENCODING 80
SWIDTH 503 0
DWIDTH 11 0
BBX 10 14 1 0
BITMAP
FF00
C180
C180
C0C0
C080
C180
C180
FF00
C000
C000
C000
C000
C000
C000
ENDCHAR
STARTCHAR Q
ENCODING 81
SWIDTH 587 0
DWIDTH 13 0
BBX 11 16 1 -2
BITMAP
1F00
3180
60C0
C040
C060
C060
C060
C060
C060
C060
C040
60C0
3180
1F00
0300
01C0
ENDCHAR
STARTCHAR R
ENCODING 82
SWIDTH 544 0
DWIDTH 12 0
BBX 10 14 1 0
BITMAP
FF00
C0C0
C0C0
C0C0
C0C0
C1C0
FF00
C300
C300
C180
C180
C080
C0C0
C0C0
ENDCHAR
STARTCHAR S
ENCODING 83
SWIDTH 503 0
DWIDTH 11 0
BBX 9 14 1 0
BITMAP
3E00
6300
C180
C180
E000
F800
7E00
1F80
0380
0180
C180
C180
6300
3E00
ENDCHAR
STARTCHAR T
ENCODING 84
SWIDTH 461 0
DWIDTH 10 0
BBX 10 14 0 0
BITMAP
FFC0
0C00
0C00
0C00
0C00
0C00
0C00
0C00
0C00
0C00
0C00
0C00
0C00
0C00
ENDCHAR
STARTCHAR U
ENCODING 85
SWIDTH 544 0
DWIDTH 12 0
BBX 10 14 1 0
BITMAP
C0C0
C0C0
C0C0
C0C0
C0C0
C0C0
C0C0
C0C0
C0C0
C0C0
4080
6180
6180
1E00
ENDCHAR
STARTCHAR V
ENCODING 86
SWIDTH 503 0
DWIDTH 11 0
BBX 11 14 0 0
BITMAP
C060
6040
60C0
60C0
20C0
3080
3180
3180
1900
1B00
1B00
0A00
0E00
0E00
ENDCHAR
STARTCHAR W
ENCODING 87
SWIDTH 711 0
DWIDTH 16 0
BBX 15 14 0 0
BITMAP
C182
4382
63C6
63C6
62C4
62C4
324C
364C
3668
3668
1468
1C78
1C38
1C30
ENDCHAR
STARTCHAR X
ENCODING 88
SWIDTH 503 0
DWIDTH 11 0
BBX 11 14 0 0
BITMAP
E0E0
60C0
3180
1900
1B00
0E00
0E00
0E00
1B00
1B00
3180
3180
60C0
C060
ENDCHAR
STARTCHAR Y
ENCODING 89
SWIDTH 503 0
DWIDTH 11 0
BBX 11 14 0 0
BITMAP
C060
60C0
20C0
3180
1900
1B00
0E00
0E00
0400
0400
0400
0400
0400
0400
ENDCHAR
STARTCHAR Z
ENCODING 90
SWIDTH 461 0
DWIDTH 10 0
BBX 10 14 0 0
BITMAP
7FC0
0180
0300
0300
0600
0600
0C00
0C00
1800
1800
3000
7000
6000
FFC0
ENDCHAR
STARTCHAR bracketleft
ENCODING 91
SWIDTH 210 0
DWIDTH 5 0
BBX 3 19 1 -4
BITMAP
E0
C0
C0
C0
C0
C0
C0
C0
C0
C0
C0
C0
C0
C0
C0
C0
C0
C0
E0
ENDCHAR
STARTCHAR backslash
ENCODING 92
SWIDTH 210 0
DWIDTH 5 0
BBX 5 16 0 -1
BITMAP
C0
C0
40
40
40
60
60
20
20
20
30
30
30
10
10
18
ENDCHAR
STARTCHAR bracketright
ENCODING 93
SWIDTH 210 0
DWIDTH 5 0
BBX 4 19 0 -4
BITMAP
F0
30
30
30
30
30
30
30
30
30
30
30
30
30
30
30
30
30
F0
ENDCHAR
STARTCHAR asciicircum
ENCODING 94
SWIDTH 354 0
DWIDTH 8 0
BBX 8 8 0 6
BITMAP
18
3C
3C
24
66
66
46
C3
ENDCHAR
STARTCHAR underscore
ENCODING 95
SWIDTH 419 0
DWIDTH 9 0
BBX 9 1 0 -2
BITMAP
FF80
ENDCHAR
STARTCHAR grave
ENCODING 96
SWIDTH 251 0
DWIDTH 6 0
BBX 3 2 1 13
BITMAP
C0
60
ENDCHAR
STARTCHAR a
ENCODING 97
SWIDTH 419 0
DWIDTH 9 0
BBX 8 11 1 0
BITMAP
7C
C4
C6
C6
06
3E
C6
C6
86
CE
7F
ENDCHAR
STARTCHAR b
ENCODING 98
SWIDTH 419 0
DWIDTH 9 0
BBX 7 15 1 0
BITMAP
C0
C0
C0
C0
FC
CE
C6
C6
C6
C6
C6
C6
C6
CE
FC
ENDCHAR
STARTCHAR c
ENCODING 99
SWIDTH 376 0
DWIDTH 8 0
BBX 7 11 1 0
BITMAP
7C
E6
C2
C2
C0
C0
C0
C2
C2
E6
7C
ENDCHAR
STARTCHAR d
ENCODING 100
SWIDTH 419 0
DWIDTH 9 0
BBX 7 15 1 0
BITMAP
06
06
06
06
7E
46
C6
C6
C6
C6
C6
C6
C6
46
7A
ENDCHAR
STARTCHAR e
ENCODING 101
SWIDTH 419 0
DWIDTH 9 0
BBX 7 11 1 0
BITMAP
3C
66
C2
C2
C2
FE
C0
C2
C2
66
3C
ENDCHAR
STARTCHAR f
ENCODING 102
SWIDTH 210 0
DWIDTH 5 0
BBX 5 15 0 0
BITMAP
38
60
60
60
F8
60
60
60
60
60
60
60
60
60
60
ENDCHAR
STARTCHAR g
ENCODING 103
SWIDTH 419 0
DWIDTH 9 0
BBX 9 16 0 -4
BITMAP
0180
1F00
2300
6300
6300
6300
6200
3E00
6000
6000
6000
3F00
C180
C180
C180
7F00
ENDCHAR
STARTCHAR h
ENCODING 104
SWIDTH 419 0
DWIDTH 9 0
BBX 7 15 1 0
BITMAP
C0
C0
C0
C0
FC
E6
C6
C6
C6
C6
C6
C6
C6
C6
C6
ENDCHAR
STARTCHAR i
ENCODING 105
SWIDTH 167 0
DWIDTH 4 0
BBX 2 15 1 0
BITMAP
C0
C0
00
00
C0
C0
C0
C0
C0
C0
C0
C0
C0
C0
C0
ENDCHAR
STARTCHAR j
ENCODING 106
SWIDTH 167 0
DWIDTH 4 0
BBX 4 19 -1 -4
BITMAP
30
30
00
00
30
30
30
30
30
30
30
30
30
30
30
30
30
30
E0
ENDCHAR
STARTCHAR k
ENCODING 107
SWIDTH 376 0
DWIDTH 8 0
BBX 7 15 1 0
BITMAP
C0
C0
C0
C0
C6
CC
C8
D8
F0
F0
F8
CC
CC
C6
C6
ENDCHAR
STARTCHAR l
ENCODING 108
SWIDTH 167 0
DWIDTH 4 0
BBX 2 15 1 0
BITMAP
C0
C0
C0
C0
C0
C0
C0
C0
C0
C0
C0
C0
C0
C0
C0
ENDCHAR
STARTCHAR m
ENCODING 109
SWIDTH 628 0
DWIDTH 14 0
BBX 12 11 1 0
BITMAP
FDE0
E720
C630
C630
C630
C630
C630
C630
C630
C630
C630
ENDCHAR
STARTCHAR n
ENCODING 110
SWIDTH 419 0
DWIDTH 9 0
BBX 7 11 1 0
BITMAP
FC
E6
C6
C6
C6
C6
C6
C6
C6
C6
C6
ENDCHAR
STARTCHAR o
ENCODING 111
SWIDTH 419 0
DWIDTH 9 0
BBX 7 11 1 0
BITMAP
38
44
C6
C6
C6
C6
C6
C6
C6
44
38
ENDCHAR
STARTCHAR p
ENCODING 112
SWIDTH 419 0
DWIDTH 9 0
BBX 7 15 1 -4
BITMAP
F8
CC
C6
C6
C6
C6
C6
C6
C6
CC
F8
C0
C0
C0
C0
ENDCHAR
STARTCHAR q
ENCODING 113
SWIDTH 419 0
DWIDTH 9 0
BBX 7 15 1 -4
BITMAP
7A
46
C6
C6
C6
C6
C6
C6
C6
46
7E
06
06
06
06
ENDCHAR
STARTCHAR r
ENCODING 114
SWIDTH 251 0
DWIDTH 6 0
BBX 4 11 1 0
BITMAP
F0
F0
E0
C0
C0
C0
C0
C0
C0
C0
C0
ENDCHAR
STARTCHAR s
ENCODING 115
SWIDTH 376 0
DWIDTH 8 0
BBX 6 11 1 0
BITMAP
78
CC
C4
C0
F0
7C
1C
04
84
CC
78
ENDCHAR
STARTCHAR t
ENCODING 116
SWIDTH 210 0
DWIDTH 5 0
BBX 4 14 0 0
BITMAP
60
60
60
F0
60
60
60
60
60
60
60
60
60
30
ENDCHAR
STARTCHAR u
ENCODING 117
SWIDTH 419 0
DWIDTH 9 0
BBX 7 11 1 0
BITMAP
C6
C6
C6
C6
C6
C6
C6
C6
C6
CE
7A
ENDCHAR
STARTCHAR v
ENCODING 118
SWIDTH 376 0
DWIDTH 8 0
BBX 8 11 0 0
BITMAP
C3
43
62
62
66
26
34
3C
1C
18
18
ENDCHAR
STARTCHAR w
ENCODING 119
SWIDTH 544 0
DWIDTH 12 0
BBX 12 11 0 0
BITMAP
C630
C630
4620
6F20
6F60
6F60
2940
2940
3940
39C0
1980
ENDCHAR
STARTCHAR x
ENCODING 120
SWIDTH 376 0
DWIDTH 8 0
BBX 8 11 0 0
BITMAP
E3
66
36
3C
1C
18
1C
3C
26
66
C3
ENDCHAR
STARTCHAR y
ENCODING 121
SWIDTH 376 0
DWIDTH 8 0
BBX 8 15 0 -4
BITMAP
C3
43
62
62
66
26
34
34
14
1C
18
18
18
10
60
ENDCHAR
STARTCHAR z
ENCODING 122
SWIDTH 376 0
DWIDTH 8 0
BBX 7 11 1 0
BITMAP
FC
0C
1C
18
38
30
70
60
60
C0
FE
ENDCHAR
STARTCHAR braceleft
ENCODING 123
SWIDTH 252 0
DWIDTH 6 0
BBX 5 19 0 -4
BITMAP
18
30
30
30
30
30
30
30
30
C0
30
30
30
30
30
30
30
30
18
ENDCHAR
STARTCHAR bar
ENCODING 124
SWIDTH 196 0
DWIDTH 4 0
BBX 2 19 1 -4
BITMAP
C0
C0
C0
C0
C0
C0
C0
C0
C0
C0
C0
C0
C0
C0
C0
C0
C0
C0
C0
ENDCHAR
STARTCHAR braceright
ENCODING 125
SWIDTH 252 0
DWIDTH 6 0
BBX 5 19 0 -4
BITMAP
C0
20
30
30
30
30
30
30
30
08
30
30
30
30
30
30
30
20
C0
ENDCHAR
STARTCHAR asciitilde
ENCODING 126
SWIDTH 440 0
DWIDTH 10 0
BBX 8 4 1 5
BITMAP
01
71
FF
8E
ENDCHAR
ENDFONT
