STARTFONT 2.1
FONT -FontForge-Pragati Narrow-Book-R-Normal--42-720-42-42-P-165-ISO10646-1
SIZE 72 42 42
FONTBOUNDINGBOX 32 35 -2 -7
COMMENT "Generated by fontforge, http://fontforge.sourceforge.net"
COMMENT "Copyright (c) 2012-2015, Omnibus-Type (www.omnibus-type.com omnibus.type@gmail.com)"
STARTPROPERTIES 40
FOUNDRY "FontForge"
FAMILY_NAME "Pragati Narrow"
WEIGHT_NAME "Book"
SLANT "R"
SETWIDTH_NAME "Normal"
ADD_STYLE_NAME ""
PIXEL_SIZE 42
POINT_SIZE 720
RESOLUTION_X 42
RESOLUTION_Y 42
SPACING "P"
AVERAGE_WIDTH 165
CHARSET_REGISTRY "ISO10646"
CHARSET_ENCODING "1"
FONTNAME_REGISTRY ""
CHARSET_COLLECTIONS "ISO8859-2 ISO8859-9 ISO8859-4 ISO10646-1"
FONT_NAME "PragatiNarrow-Regular"
FACE_NAME "Pragati Narrow"
COPYRIGHT "Copyright (c) 2012-2015, Omnibus-Type (www.omnibus-type.com omnibus.type@gmail.com)"
FONT_VERSION "1.010; ttfautohint (v1.3)"
FONT_ASCENT 34
FONT_DESCENT 8
UNDERLINE_POSITION -4
UNDERLINE_THICKNESS 3
X_HEIGHT 20
CAP_HEIGHT 26
RAW_ASCENT 800
RAW_DESCENT 200
NORM_SPACE 9
RELATIVE_WEIGHT 40
RELATIVE_SETWIDTH 50
SUPERSCRIPT_X 0
SUPERSCRIPT_Y 14
SUPERSCRIPT_SIZE 25
SUBSCRIPT_X 0
SUBSCRIPT_Y 3
SUBSCRIPT_SIZE 25
FIGURE_WIDTH 18
AVG_LOWERCASE_WIDTH 160
AVG_UPPERCASE_WIDTH 215
ENDPROPERTIES
CHARS 95
STARTCHAR space
ENCODING 32
SWIDTH 210 0
DWIDTH 9 0
BBX 1 1 0 0
BITMAP
00
ENDCHAR
STARTCHAR exclam
ENCODING 33
SWIDTH 210 0
DWIDTH 9 0
BBX 5 27 2 0
BITMAP
F8
F8
F8
F0
70
70
70
70
70
70
70
70
70
70
70
70
70
70
70
70
00
00
00
70
70
70
70
ENDCHAR
STARTCHAR quotedbl
ENCODING 34
SWIDTH 267 0
DWIDTH 11 0
BBX 9 11 1 16
BITMAP
F380
F380
F380
F380
F380
F380
6380
6300
6300
6300
6300
ENDCHAR
STARTCHAR numbersign
ENCODING 35
SWIDTH 419 0
DWIDTH 18 0
BBX 17 27 0 0
BITMAP
01C380
01C700
01C700
038700
038700
038E00
038E00
038E00
3FFF80
3FFF80
3FFF80
071C00
0E1C00
0E1C00
0E3800
0E3800
0E3800
FFFF00
FFFF00
FFFF00
1C7000
187000
387000
38E000
38E000
38E000
70E000
ENDCHAR
STARTCHAR dollar
ENCODING 36
SWIDTH 419 0
DWIDTH 18 0
BBX 13 30 2 -2
BITMAP
0300
0300
0300
0300
0FC0
3FF0
7FF0
7378
7338
F338
7300
7B00
7F00
3FC0
1FF0
03F0
03F8
0338
E338
E338
F338
F338
7FF8
3FF0
1FE0
0300
0300
0300
0300
0300
ENDCHAR
STARTCHAR percent
ENCODING 37
SWIDTH 670 0
DWIDTH 28 0
BBX 25 27 2 0
BITMAP
3E001C00
7F003800
FF807000
E3807000
E180E000
C1C0C000
C1C1C000
C1C38000
C1C38000
E1870000
E3860000
FF8E0000
7F1C0000
3E1C7C00
0038FE00
0030FF00
0071C700
00E1C380
00E1C380
01C1C380
0181C380
0381C380
0701C380
0701C700
0E00FF00
0C00FE00
1C007C00
ENDCHAR
STARTCHAR ampersand
ENCODING 38
SWIDTH 503 0
DWIDTH 21 0
BBX 20 27 1 0
BITMAP
07F000
1FFC00
3FFE00
3C1F00
780780
700780
700380
700000
700000
780000
3C0000
1FC3F0
0FC3F0
3FC3F0
3C0380
780380
700380
F00380
F00380
F00380
F00380
700780
780700
7C1F00
3FFE00
1FFC00
07F000
ENDCHAR
STARTCHAR quotesingle
ENCODING 39
SWIDTH 145 0
DWIDTH 6 0
BBX 4 11 1 16
BITMAP
F0
F0
F0
F0
F0
F0
E0
60
60
60
60
ENDCHAR
STARTCHAR parenleft
ENCODING 40
SWIDTH 251 0
DWIDTH 11 0
BBX 8 35 2 -7
BITMAP
07
06
0E
1C
1C
38
38
70
70
70
F0
E0
E0
E0
E0
E0
E0
E0
E0
E0
E0
E0
E0
E0
F0
70
70
78
38
38
1C
1C
0E
06
07
ENDCHAR
STARTCHAR parenright
ENCODING 41
SWIDTH 251 0
DWIDTH 11 0
BBX 8 35 1 -7
BITMAP
C0
E0
70
70
38
38
1C
1C
1C
0E
0E
0E
0F
0F
07
07
07
07
07
07
07
0F
0F
0E
0E
0E
1C
1C
1C
38
38
70
60
E0
C0
ENDCHAR
STARTCHAR asterisk
ENCODING 42
SWIDTH 293 0
DWIDTH 12 0
BBX 10 10 1 17
BITMAP
0C00
4C80
6DC0
FFC0
3F00
3F00
FFC0
6DC0
4C80
0C00
ENDCHAR
STARTCHAR plus
ENCODING 43
SWIDTH 440 0
DWIDTH 18 0
BBX 15 20 2 0
BITMAP
0380
0380
0380
0380
0380
0380
0380
0380
0380
FFFE
FFFE
FFFE
0380
0380
0380
0380
0380
0380
0380
0380
ENDCHAR
STARTCHAR comma
ENCODING 44
SWIDTH 210 0
DWIDTH 9 0
BBX 4 9 2 -5
BITMAP
F0
F0
F0
F0
30
30
60
60
E0
ENDCHAR
STARTCHAR hyphen
ENCODING 45
SWIDTH 251 0
DWIDTH 11 0
BBX 10 4 0 9
BITMAP
FFC0
FFC0
FFC0
FFC0
ENDCHAR
STARTCHAR period
ENCODING 46
SWIDTH 210 0
DWIDTH 9 0
BBX 4 4 2 0
BITMAP
F0
F0
F0
F0
ENDCHAR
STARTCHAR slash
ENCODING 47
SWIDTH 210 0
DWIDTH 9 0
BBX 9 30 0 -2
BITMAP
0380
0380
0300
0700
0700
0700
0700
0600
0E00
0E00
0E00
0E00
0C00
1C00
1C00
1C00
1C00
1800
3800
3800
3800
3800
3000
7000
7000
7000
7000
6000
E000
E000
ENDCHAR
STARTCHAR zero
ENCODING 48
SWIDTH 419 0
DWIDTH 18 0
BBX 14 27 2 0
BITMAP
0FC0
3FE0
3FF0
7878
7078
F038
E03C
E03C
E01C
E01C
E01C
E01C
E01C
E01C
E01C
E01C
E01C
E01C
E01C
E03C
E038
F038
7078
7870
3FF0
3FE0
0FC0
ENDCHAR
STARTCHAR one
ENCODING 49
SWIDTH 419 0
DWIDTH 18 0
BBX 15 27 2 0
BITMAP
0180
0780
3F80
FF80
FF80
0380
0380
0380
0380
0380
0380
0380
0380
0380
0380
0380
0380
0380
0380
0380
0380
0380
0380
0380
FFFE
FFFE
FFFE
ENDCHAR
STARTCHAR two
ENCODING 50
SWIDTH 419 0
DWIDTH 18 0
BBX 15 27 1 0
BITMAP
07E0
1FF8
3FFC
3C3C
781E
781E
701E
701E
701E
701C
001C
003C
0078
0078
00F0
01E0
03C0
0780
0F80
1F00
1E00
3C00
7800
7800
7FFE
7FFE
FFFE
ENDCHAR
STARTCHAR three
ENCODING 51
SWIDTH 419 0
DWIDTH 18 0
BBX 15 27 1 0
BITMAP
07E0
1FF0
3FF8
3C3C
781C
701E
701E
001E
001C
001C
0038
07F0
07E0
07F8
003C
001C
001E
000E
F00E
F00E
F00E
701E
701E
7C3C
3FF8
1FF0
07E0
ENDCHAR
STARTCHAR four
ENCODING 52
SWIDTH 419 0
DWIDTH 18 0
BBX 16 27 1 0
BITMAP
01C0
0380
0380
0380
0788
0718
0718
0F18
0E38
0E38
1C38
1C38
3C38
3838
7838
7038
7038
E038
FFFF
FFFF
FFFF
0038
0038
0038
0038
0038
0038
ENDCHAR
STARTCHAR five
ENCODING 53
SWIDTH 419 0
DWIDTH 18 0
BBX 14 27 2 0
BITMAP
7FF8
7FF8
7FF8
7000
7000
7000
7000
7000
7000
73C0
EFF0
FFF8
F878
F03C
F01C
001C
001C
001C
E01C
E01C
E01C
E03C
F03C
7878
7FF0
3FE0
0FC0
ENDCHAR
STARTCHAR six
ENCODING 54
SWIDTH 419 0
DWIDTH 18 0
BBX 14 27 2 0
BITMAP
0FC0
1FE0
3FF0
78F0
7078
F038
E038
E038
E000
E000
E7C0
EFF0
FFF0
F878
F038
F03C
E01C
E01C
E01C
E01C
E01C
F03C
7038
7878
3FF0
1FE0
0FC0
ENDCHAR
STARTCHAR seven
ENCODING 55
SWIDTH 419 0
DWIDTH 18 0
BBX 15 27 1 0
BITMAP
FFFE
FFFE
FFFE
001C
003C
0038
0078
0070
00F0
00E0
01E0
01C0
01C0
0380
0380
0780
0700
0700
0700
0F00
0E00
0E00
0E00
0E00
0E00
0E00
0E00
ENDCHAR
STARTCHAR eight
ENCODING 56
SWIDTH 419 0
DWIDTH 18 0
BBX 14 27 2 0
BITMAP
0FC0
3FE0
7FF0
7878
F038
E038
E03C
E038
E038
7038
7878
3FF0
1FE0
7FF0
7878
F038
E03C
E01C
E01C
E01C
E01C
E03C
F03C
F878
7FF0
3FF0
0FC0
ENDCHAR
STARTCHAR nine
ENCODING 57
SWIDTH 419 0
DWIDTH 18 0
BBX 14 27 2 0
BITMAP
0F80
3FE0
7FF0
78F8
F078
E038
E03C
E03C
E01C
E03C
E03C
E03C
F07C
78FC
7FFC
3FDC
1F1C
001C
001C
E03C
F038
F038
7038
7870
3FF0
3FE0
0F80
ENDCHAR
STARTCHAR colon
ENCODING 58
SWIDTH 210 0
DWIDTH 9 0
BBX 4 21 2 0
BITMAP
F0
F0
F0
F0
00
00
00
00
00
00
00
00
00
00
00
00
00
F0
F0
F0
F0
ENDCHAR
STARTCHAR semicolon
ENCODING 59
SWIDTH 210 0
DWIDTH 9 0
BBX 4 26 2 -5
BITMAP
F0
F0
F0
F0
00
00
00
00
00
00
00
00
00
00
00
00
00
F0
F0
F0
F0
30
30
60
60
E0
ENDCHAR
STARTCHAR less
ENCODING 60
SWIDTH 440 0
DWIDTH 18 0
BBX 15 20 2 0
BITMAP
0002
000E
001E
007E
01FC
07F0
1FC0
7F00
FC00
F000
F000
FC00
FE00
3F80
0FE0
03F8
00FE
003E
000E
0002
ENDCHAR
STARTCHAR equal
ENCODING 61
SWIDTH 440 0
DWIDTH 18 0
BBX 15 11 2 4
BITMAP
FFFE
FFFE
FFFE
0000
0000
0000
0000
0000
FFFE
FFFE
FFFE
ENDCHAR
STARTCHAR greater
ENCODING 62
SWIDTH 440 0
DWIDTH 18 0
BBX 15 20 2 0
BITMAP
8000
C000
F000
FC00
7F00
1FC0
07F0
01FC
007E
001E
001E
007E
01FC
07F0
1FC0
7F00
FC00
F000
C000
8000
ENDCHAR
STARTCHAR question
ENCODING 63
SWIDTH 419 0
DWIDTH 18 0
BBX 14 27 2 0
BITMAP
0FC0
3FE0
7FF0
7878
F038
F03C
E03C
E03C
E03C
003C
0078
0078
00F0
01F0
03E0
03C0
0380
0780
0780
0780
0000
0000
0000
0780
0780
0780
0780
ENDCHAR
STARTCHAR at
ENCODING 64
SWIDTH 764 0
DWIDTH 32 0
BBX 28 33 2 -6
BITMAP
003FE000
01FFFC00
03C03E00
0F000780
1E000380
180001C0
380FC0E0
303FE060
607FF070
60787030
E0707030
E0707030
C0007030
C0007030
C007F030
C03FF030
C07FF030
C0787030
C0F07030
C0E07070
C0E07060
C0E070E0
E0F1F9E0
E07FBFC0
607F3F80
701E1E00
30000000
38000000
1C000000
0E000000
07806000
03FFE000
007F8000
ENDCHAR
STARTCHAR A
ENCODING 65
SWIDTH 503 0
DWIDTH 21 0
BBX 21 27 0 0
BITMAP
00F800
00F800
00FC00
01DC00
01DC00
01DC00
03DE00
038E00
038E00
078F00
070F00
070700
0F0780
0F0780
0E0380
0E03C0
1E03C0
1C01C0
1FFFC0
3FFFE0
3FFFE0
3800E0
7800F0
7000F0
700070
F00078
F00078
ENDCHAR
STARTCHAR B
ENCODING 66
SWIDTH 503 0
DWIDTH 21 0
BBX 18 27 2 0
BITMAP
FFF800
FFFE00
FFFF00
F00F80
F00780
F00780
F00380
F00380
F00380
F00780
F00700
F00F00
FFFE00
FFFC00
FFFE00
F00F00
F00780
F003C0
F003C0
F003C0
F003C0
F003C0
F003C0
F00F80
FFFF00
FFFE00
FFF800
ENDCHAR
STARTCHAR C
ENCODING 67
SWIDTH 544 0
DWIDTH 23 0
BBX 19 27 2 0
BITMAP
03F800
0FFF00
1FFF80
3E07C0
7C03C0
7801E0
7001E0
F000E0
F000E0
E000E0
E00000
E00000
E00000
E00000
E00000
E00000
E00000
E000E0
F000E0
F000E0
7001E0
7801E0
7C03C0
3E07C0
1FFF80
0FFF00
03F800
ENDCHAR
STARTCHAR D
ENCODING 68
SWIDTH 544 0
DWIDTH 23 0
BBX 18 27 3 0
BITMAP
FFE000
FFF800
FFFE00
E03E00
E00F00
E00780
E00780
E00380
E003C0
E003C0
E003C0
E003C0
E003C0
E003C0
E003C0
E003C0
E003C0
E003C0
E00380
E00380
E00780
E00700
E00F00
E03E00
FFFC00
FFF800
FFE000
ENDCHAR
STARTCHAR E
ENCODING 69
SWIDTH 503 0
DWIDTH 21 0
BBX 16 27 3 0
BITMAP
FFFF
FFFF
FFFF
E000
E000
E000
E000
E000
E000
E000
E000
E000
FFFC
FFFC
FFFC
E000
E000
E000
E000
E000
E000
E000
E000
E000
FFFF
FFFF
FFFF
ENDCHAR
STARTCHAR F
ENCODING 70
SWIDTH 461 0
DWIDTH 19 0
BBX 15 27 3 0
BITMAP
FFFE
FFFE
FFFE
E000
E000
E000
E000
E000
E000
E000
E000
E000
FFFC
FFFC
FFFC
E000
E000
E000
E000
E000
E000
E000
E000
E000
E000
E000
E000
ENDCHAR
STARTCHAR G
ENCODING 71
SWIDTH 587 0
DWIDTH 25 0
BBX 20 27 2 0
BITMAP
01FC00
07FF00
0FFFC0
1F07C0
3C01E0
7800F0
7800F0
7000F0
F00070
F00000
F00000
E00000
E00000
E03FF0
E03FF0
E03FF0
F00070
F00070
F00070
7000F0
7800F0
7800F0
3C01F0
3F07F0
1FFFF0
07FF30
01F830
ENDCHAR
STARTCHAR H
ENCODING 72
SWIDTH 544 0
DWIDTH 23 0
BBX 17 27 3 0
BITMAP
E00380
E00380
E00380
E00380
E00380
E00380
E00380
E00380
E00380
E00380
E00380
E00380
FFFF80
FFFF80
FFFF80
E00380
E00380
E00380
E00380
E00380
E00380
E00380
E00380
E00380
E00380
E00380
E00380
ENDCHAR
STARTCHAR I
ENCODING 73
SWIDTH 210 0
DWIDTH 9 0
BBX 3 27 3 0
BITMAP
E0
E0
E0
E0
E0
E0
E0
E0
E0
E0
E0
E0
E0
E0
E0
E0
E0
E0
E0
E0
E0
E0
E0
E0
E0
E0
E0
ENDCHAR
STARTCHAR J
ENCODING 74
SWIDTH 376 0
DWIDTH 16 0
BBX 13 27 0 0
BITMAP
0038
0038
0038
0038
0038
0038
0038
0038
0038
0038
0038
0038
0038
0038
0038
0038
0038
0038
0038
F038
F038
7038
7078
7878
7FF0
3FE0
0FC0
ENDCHAR
STARTCHAR K
ENCODING 75
SWIDTH 503 0
DWIDTH 21 0
BBX 18 27 3 0
BITMAP
E00780
E00F00
E00F00
E01E00
E03C00
E03800
E07800
E0F000
E1E000
E1E000
E3C000
E7C000
E7C000
EFE000
FEE000
FCF000
F87000
F07800
E03800
E03C00
E01C00
E01E00
E00E00
E00F00
E00700
E00780
E003C0
ENDCHAR
STARTCHAR L
ENCODING 76
SWIDTH 419 0
DWIDTH 18 0
BBX 14 27 3 0
BITMAP
E000
E000
E000
E000
E000
E000
E000
E000
E000
E000
E000
E000
E000
E000
E000
E000
E000
E000
E000
E000
E000
E000
E000
E000
FFFC
FFFC
FFFC
ENDCHAR
STARTCHAR M
ENCODING 77
SWIDTH 628 0
DWIDTH 26 0
BBX 22 27 2 0
BITMAP
FC007C
FC00FC
FC00FC
FC00FC
EE00FC
EE01DC
EE01DC
EF01DC
EF01DC
E7039C
E7039C
E7839C
E7831C
E3871C
E3871C
E3C71C
E1CE1C
E1CE1C
E1CE1C
E1EE1C
E0EC1C
E0EC1C
E0FC1C
E0781C
E0781C
E0781C
E0781C
ENDCHAR
STARTCHAR N
ENCODING 78
SWIDTH 544 0
DWIDTH 23 0
BBX 17 27 3 0
BITMAP
E00380
E00380
F00380
F80380
F80380
FC0380
FC0380
FE0380
EF0380
EF0380
E78380
E78380
E3C380
E3C380
E1E380
E0F380
E0F380
E07B80
E07B80
E03F80
E01F80
E01F80
E00F80
E00F80
E00780
E00780
E00380
ENDCHAR
STARTCHAR O
ENCODING 79
SWIDTH 587 0
DWIDTH 25 0
BBX 21 27 2 0
BITMAP
01FC00
07FF00
1FFF80
1F07C0
3C03E0
7801E0
7800F0
7000F0
F00070
F00070
F00078
E00078
E00078
E00078
E00078
E00078
F00078
F00070
F00070
7000F0
7800F0
7801E0
3C01E0
1F07C0
1FFF80
07FF00
01FC00
ENDCHAR
STARTCHAR P
ENCODING 80
SWIDTH 503 0
DWIDTH 21 0
BBX 17 27 3 0
BITMAP
FFF000
FFFC00
FFFE00
E01F00
E00F80
E00780
E00780
E00780
E00780
E00780
E00780
E00F00
E01F00
FFFE00
FFFC00
FFF000
E00000
E00000
E00000
E00000
E00000
E00000
E00000
E00000
E00000
E00000
E00000
ENDCHAR
STARTCHAR Q
ENCODING 81
SWIDTH 587 0
DWIDTH 25 0
BBX 21 31 2 -4
BITMAP
01FC00
07FF00
1FFF80
1F07C0
3C03E0
7801E0
7800F0
7000F0
F00070
F00070
F00078
E00078
E00078
E00078
E00078
E00078
F00078
F00070
F00070
7000F0
7800F0
7801E0
3C01E0
1F07C0
1FFF80
07FF00
01FE00
001F00
000F80
0007C0
0003F0
ENDCHAR
STARTCHAR R
ENCODING 82
SWIDTH 544 0
DWIDTH 23 0
BBX 19 27 3 0
BITMAP
FFFC00
FFFF00
FFFF80
E00780
E003C0
E003C0
E001C0
E001C0
E001C0
E003C0
E003C0
E00F80
FFFF00
FFFE00
FFFC00
E03C00
E01C00
E01E00
E00E00
E00F00
E00F00
E00780
E00780
E00380
E003C0
E001C0
E001E0
ENDCHAR
STARTCHAR S
ENCODING 83
SWIDTH 503 0
DWIDTH 21 0
BBX 17 27 2 0
BITMAP
07F000
1FFC00
3FFE00
7C1F00
700F00
F00780
F00780
F00780
F00000
F80000
7E0000
3FC000
1FF800
07FE00
01FF00
003F80
000F80
000780
E00380
E00380
E00380
F00380
F00780
7C1F00
7FFF00
1FFE00
07F000
ENDCHAR
STARTCHAR T
ENCODING 84
SWIDTH 461 0
DWIDTH 19 0
BBX 18 27 1 0
BITMAP
FFFFC0
FFFFC0
FFFFC0
01C000
01C000
01C000
01C000
01C000
01C000
01C000
01C000
01C000
01C000
01C000
01C000
01C000
01C000
01C000
01C000
01C000
01C000
01C000
01C000
01C000
01C000
01C000
01C000
ENDCHAR
STARTCHAR U
ENCODING 85
SWIDTH 544 0
DWIDTH 23 0
BBX 17 27 3 0
BITMAP
E00380
E00380
E00380
E00380
E00380
E00380
E00380
E00380
E00380
E00380
E00380
E00380
E00380
E00380
E00380
E00380
E00380
E00380
E00380
E00380
E00780
F00780
F80F00
7C1F00
3FFE00
1FFC00
07F000
ENDCHAR
STARTCHAR V
ENCODING 86
SWIDTH 503 0
DWIDTH 21 0
BBX 21 27 0 0
BITMAP
F00078
780070
780070
7800F0
3800E0
3C00E0
3C00E0
1C01E0
1C01C0
1E01C0
1E03C0
0E0380
0F0380
0F0380
070700
070700
078700
038F00
038E00
03CE00
03CE00
01DC00
01DC00
01FC00
00FC00
00F800
00F800
ENDCHAR
STARTCHAR W
ENCODING 87
SWIDTH 711 0
DWIDTH 30 0
BBX 29 27 0 0
BITMAP
F007C038
700FC038
780FC038
780FC038
780FC070
380FC070
380DE070
3C1DE070
3C1CE070
1C1CE0E0
1C1CE0E0
1C1CE0E0
1E18F0E0
1E3871C0
0E3871C0
0E3871C0
0F3871C0
0F3871C0
07307B80
07303B80
07703B80
07F03B80
07F03B00
03F03F00
03E03F00
03E01F00
03E01E00
ENDCHAR
STARTCHAR X
ENCODING 88
SWIDTH 503 0
DWIDTH 21 0
BBX 21 27 0 0
BITMAP
7800F0
3C00E0
3C01E0
1E03C0
0F0380
0F0780
078700
078F00
03DE00
03DC00
01FC00
00F800
00F800
00F800
00F800
01FC00
01DE00
03DE00
078F00
070F00
0F0780
1E03C0
1E03C0
3C01E0
3801E0
7800F0
F00078
ENDCHAR
STARTCHAR Y
ENCODING 89
SWIDTH 503 0
DWIDTH 21 0
BBX 21 27 0 0
BITMAP
F00078
780070
3800E0
3C00E0
1C01C0
1E01C0
0F0380
0F0380
078700
078700
03CE00
03CE00
01FC00
00FC00
00F800
007800
007000
007000
007000
007000
007000
007000
007000
007000
007000
007000
007000
ENDCHAR
STARTCHAR Z
ENCODING 90
SWIDTH 461 0
DWIDTH 19 0
BBX 17 27 1 0
BITMAP
7FFF80
7FFF80
7FFF80
000F00
000F00
001E00
003C00
003C00
007800
007800
00F000
00F000
01E000
01C000
03C000
078000
078000
0F0000
0F0000
1E0000
1E0000
3C0000
380000
780000
FFFF80
FFFF80
FFFF80
ENDCHAR
STARTCHAR bracketleft
ENCODING 91
SWIDTH 210 0
DWIDTH 9 0
BBX 6 35 2 -7
BITMAP
FC
FC
FC
E0
E0
E0
E0
E0
E0
E0
E0
E0
E0
E0
E0
E0
E0
E0
E0
E0
E0
E0
E0
E0
E0
E0
E0
E0
E0
E0
E0
E0
FC
FC
FC
ENDCHAR
STARTCHAR backslash
ENCODING 92
SWIDTH 210 0
DWIDTH 9 0
BBX 9 30 0 -2
BITMAP
E000
E000
6000
6000
7000
7000
7000
3000
3000
3800
3800
3800
1800
1800
1C00
1C00
1C00
0C00
0C00
0E00
0E00
0E00
0600
0600
0700
0700
0700
0700
0300
0380
ENDCHAR
STARTCHAR bracketright
ENCODING 93
SWIDTH 210 0
DWIDTH 9 0
BBX 6 35 1 -7
BITMAP
FC
FC
FC
1C
1C
1C
1C
1C
1C
1C
1C
1C
1C
1C
1C
1C
1C
1C
1C
1C
1C
1C
1C
1C
1C
1C
1C
1C
1C
1C
1C
1C
FC
FC
FC
ENDCHAR
STARTCHAR asciicircum
ENCODING 94
SWIDTH 354 0
DWIDTH 15 0
BBX 15 15 0 12
BITMAP
07C0
07C0
07C0
0EE0
0EE0
1EE0
1C70
1C70
3C78
3838
3838
783C
701C
701C
F01E
ENDCHAR
STARTCHAR underscore
ENCODING 95
SWIDTH 419 0
DWIDTH 18 0
BBX 18 2 0 -5
BITMAP
FFFFC0
FFFFC0
ENDCHAR
STARTCHAR grave
ENCODING 96
SWIDTH 251 0
DWIDTH 11 0
BBX 7 5 1 23
BITMAP
F0
78
38
1C
0E
ENDCHAR
STARTCHAR a
ENCODING 97
SWIDTH 419 0
DWIDTH 18 0
BBX 16 21 1 0
BITMAP
07E0
1FF0
3FF8
787C
783C
701C
701C
001C
001C
07FC
1FFC
3FFC
7C1C
701C
F01C
F03C
F03C
F8FC
7FDF
7FDF
1F0F
ENDCHAR
STARTCHAR b
ENCODING 98
SWIDTH 419 0
DWIDTH 18 0
BBX 14 28 2 0
BITMAP
F000
F000
F000
F000
F000
F000
F000
F3C0
FFF0
FFF0
F878
F838
F03C
F03C
F01C
F01C
F01C
F01C
F01C
F01C
F01C
F03C
F03C
F838
F878
EFF0
EFF0
E3C0
ENDCHAR
STARTCHAR c
ENCODING 99
SWIDTH 376 0
DWIDTH 16 0
BBX 14 21 1 0
BITMAP
07C0
1FF0
3FF0
3C78
7838
7038
7038
703C
F000
F000
F000
F000
F000
F03C
7038
7038
7838
7C78
3FF0
1FE0
0FC0
ENDCHAR
STARTCHAR d
ENCODING 100
SWIDTH 419 0
DWIDTH 18 0
BBX 13 28 2 0
BITMAP
0038
0038
0038
0038
0038
0038
0038
1F38
3FB8
7FF8
78F8
F078
E038
E038
E038
E038
E038
E038
E038
E038
E038
E038
E038
F078
78F8
7FF8
3FD8
1F18
ENDCHAR
STARTCHAR e
ENCODING 101
SWIDTH 419 0
DWIDTH 18 0
BBX 14 21 2 0
BITMAP
0FC0
3FF0
3FF8
7878
F038
E03C
E01C
E01C
FFFC
FFFC
FFFC
E000
E000
E01C
E01C
F03C
F038
7878
7FF8
3FF0
0FC0
ENDCHAR
STARTCHAR f
ENCODING 102
SWIDTH 210 0
DWIDTH 9 0
BBX 9 28 0 0
BITMAP
0F80
1F80
3F80
3C00
3800
3800
3800
FF80
FF80
FF80
3800
3800
3800
3800
3800
3800
3800
3800
3800
3800
3800
3800
3800
3800
3800
3800
3800
3800
ENDCHAR
STARTCHAR g
ENCODING 103
SWIDTH 419 0
DWIDTH 18 0
BBX 17 31 0 -7
BITMAP
000380
000380
000700
03EF00
0FFE00
1FFC00
1E3C00
3C1E00
380E00
380E00
380E00
380E00
3C1E00
1E3E00
0FFC00
0FF800
3FF000
380000
380000
780000
380000
3FFE00
1FFF00
7FFF80
700780
700380
F00380
700780
7FFF00
3FFF00
1FFC00
ENDCHAR
STARTCHAR h
ENCODING 104
SWIDTH 419 0
DWIDTH 18 0
BBX 13 28 2 0
BITMAP
F000
F000
F000
F000
F000
F000
F000
F3E0
F7F0
FFF8
FC78
F838
F038
F038
F038
F038
F038
F038
F038
F038
F038
F038
F038
F038
F038
F038
F038
F038
ENDCHAR
STARTCHAR i
ENCODING 105
SWIDTH 167 0
DWIDTH 7 0
BBX 3 28 2 0
BITMAP
E0
E0
E0
E0
00
00
00
E0
E0
E0
E0
E0
E0
E0
E0
E0
E0
E0
E0
E0
E0
E0
E0
E0
E0
E0
E0
E0
ENDCHAR
STARTCHAR j
ENCODING 106
SWIDTH 167 0
DWIDTH 7 0
BBX 7 35 -2 -7
BITMAP
0E
0E
0E
0E
00
00
00
0E
0E
0E
0E
0E
0E
0E
0E
0E
0E
0E
0E
0E
0E
0E
0E
0E
0E
0E
0E
0E
0E
0E
0E
1E
FE
FC
F8
ENDCHAR
STARTCHAR k
ENCODING 107
SWIDTH 376 0
DWIDTH 16 0
BBX 14 28 2 0
BITMAP
F000
F000
F000
F000
F000
F000
F000
F03C
F078
F0F0
F0E0
F1C0
F3C0
F380
F700
FF00
FF00
FF00
FF80
FBC0
F1C0
F1E0
F0E0
F0F0
F070
F078
F038
F03C
ENDCHAR
STARTCHAR l
ENCODING 108
SWIDTH 167 0
DWIDTH 7 0
BBX 3 28 2 0
BITMAP
E0
E0
E0
E0
E0
E0
E0
E0
E0
E0
E0
E0
E0
E0
E0
E0
E0
E0
E0
E0
E0
E0
E0
E0
E0
E0
E0
E0
ENDCHAR
STARTCHAR m
ENCODING 109
SWIDTH 628 0
DWIDTH 26 0
BBX 22 21 2 0
BITMAP
E3C1F0
EFE3F8
EFF7F8
F87E3C
F87C1C
F0381C
F0381C
F0381C
F0381C
F0381C
F0381C
F0381C
F0381C
F0381C
F0381C
F0381C
F0381C
F0381C
F0381C
F0381C
F0381C
ENDCHAR
STARTCHAR n
ENCODING 110
SWIDTH 419 0
DWIDTH 18 0
BBX 13 21 2 0
BITMAP
E3E0
EFF0
EFF8
FC78
F838
F038
F038
F038
F038
F038
F038
F038
F038
F038
F038
F038
F038
F038
F038
F038
F038
ENDCHAR
STARTCHAR o
ENCODING 111
SWIDTH 419 0
DWIDTH 18 0
BBX 14 21 2 0
BITMAP
0FC0
3FE0
7FF0
7878
F038
E03C
E03C
E01C
E01C
E01C
E01C
E01C
E01C
E01C
E03C
E03C
F038
7878
7FF0
3FE0
0FC0
ENDCHAR
STARTCHAR p
ENCODING 112
SWIDTH 419 0
DWIDTH 18 0
BBX 14 28 2 -7
BITMAP
E3C0
EFF0
EFF0
F878
F038
F03C
F03C
F01C
F01C
F01C
F01C
F01C
F01C
F01C
F03C
F03C
F838
F878
FFF0
FFE0
F3C0
F000
F000
F000
F000
F000
F000
F000
ENDCHAR
STARTCHAR q
ENCODING 113
SWIDTH 419 0
DWIDTH 18 0
BBX 13 28 2 -7
BITMAP
1F18
3F98
7FD8
78F8
F078
E038
E038
E038
E038
E038
E038
E038
E038
E038
E038
E038
F078
78F8
7FF8
3FB8
1F38
0038
0038
0038
0038
0038
0038
0038
ENDCHAR
STARTCHAR r
ENCODING 114
SWIDTH 251 0
DWIDTH 11 0
BBX 8 21 2 0
BITMAP
E7
EF
FF
F8
F0
F0
F0
F0
F0
F0
F0
F0
F0
F0
F0
F0
F0
F0
F0
F0
F0
ENDCHAR
STARTCHAR s
ENCODING 115
SWIDTH 376 0
DWIDTH 16 0
BBX 13 21 1 0
BITMAP
0FC0
3FE0
3FF0
7878
7078
7038
7000
7800
7E00
3FC0
0FE0
03F0
0078
0038
F038
F038
F038
7878
7FF0
3FF0
0FC0
ENDCHAR
STARTCHAR t
ENCODING 116
SWIDTH 210 0
DWIDTH 9 0
BBX 8 27 0 0
BITMAP
18
18
18
18
38
38
FF
FF
FF
38
38
38
38
38
38
38
38
38
38
38
38
38
38
3C
1F
1F
0F
ENDCHAR
STARTCHAR u
ENCODING 117
SWIDTH 419 0
DWIDTH 18 0
BBX 13 21 2 0
BITMAP
F038
F038
F038
F038
F038
F038
F038
F038
F038
F038
F038
F038
F038
F038
F038
F038
F078
78F8
7FF8
3F98
1F18
ENDCHAR
STARTCHAR v
ENCODING 118
SWIDTH 376 0
DWIDTH 16 0
BBX 15 21 0 0
BITMAP
F00E
700E
780E
781E
381C
381C
3C1C
3C38
1C38
1C38
1E38
0E70
0E70
0E70
0F60
07E0
07E0
07E0
03C0
03C0
03C0
ENDCHAR
STARTCHAR w
ENCODING 119
SWIDTH 544 0
DWIDTH 23 0
BBX 23 21 0 0
BITMAP
F0381E
F07C1C
707C1C
707C1C
706C1C
786C38
386E38
38EE38
38EE38
3CEE38
1CCE70
1CC670
1CC770
1DC770
0FC760
0FC7E0
0F87E0
0F83E0
0783C0
0783C0
0783C0
ENDCHAR
STARTCHAR x
ENCODING 120
SWIDTH 376 0
DWIDTH 16 0
BBX 16 21 0 0
BITMAP
F80E
781E
3C3C
3C38
1E78
1E70
0FF0
07E0
07E0
03C0
03C0
03C0
07E0
0FE0
0EF0
1E78
1C78
3C3C
383C
781E
F00F
ENDCHAR
STARTCHAR y
ENCODING 121
SWIDTH 376 0
DWIDTH 16 0
BBX 15 28 0 -7
BITMAP
F00E
700E
780E
781E
381C
381C
3C1C
1C1C
1C38
1C38
0E38
0E30
0E70
0F70
0770
0760
07E0
03E0
03E0
03C0
01C0
03C0
0380
0780
0F80
7F00
7E00
7C00
ENDCHAR
STARTCHAR z
ENCODING 122
SWIDTH 376 0
DWIDTH 16 0
BBX 14 21 1 0
BITMAP
7FF8
7FF8
7FF8
0070
00F0
00E0
01E0
03C0
03C0
0780
0700
0F00
0E00
1E00
1C00
3C00
3800
7800
7FFC
FFFC
FFFC
ENDCHAR
STARTCHAR braceleft
ENCODING 123
SWIDTH 252 0
DWIDTH 11 0
BBX 9 35 1 -7
BITMAP
0380
0F80
1E00
1C00
1C00
1C00
1C00
1C00
1C00
1C00
1C00
1C00
1C00
1800
1800
3800
F000
C000
F000
3800
1800
1800
1C00
1C00
1C00
1C00
1C00
1C00
1C00
1C00
1C00
1C00
1E00
0F80
0380
ENDCHAR
STARTCHAR bar
ENCODING 124
SWIDTH 196 0
DWIDTH 8 0
BBX 3 35 3 -7
BITMAP
E0
E0
E0
E0
E0
E0
E0
E0
E0
E0
E0
E0
E0
E0
E0
E0
E0
E0
E0
E0
E0
E0
E0
E0
E0
E0
E0
E0
E0
E0
E0
E0
E0
E0
E0
ENDCHAR
STARTCHAR braceright
ENCODING 125
SWIDTH 252 0
DWIDTH 11 0
BBX 9 35 1 -7
BITMAP
E000
F800
3800
1C00
1C00
1C00
1C00
1C00
1C00
1C00
1C00
1C00
1C00
1C00
1C00
0E00
0F80
0380
0F80
0E00
1C00
1C00
1C00
1C00
1C00
1C00
1C00
1C00
1C00
1C00
1C00
1C00
3800
F000
E000
ENDCHAR
STARTCHAR asciitilde
ENCODING 126
SWIDTH 440 0
DWIDTH 18 0
BBX 16 6 1 9
BITMAP
1E01
7F01
7FC3
E1FF
C0FE
803C
ENDCHAR
ENDFONT
