STARTFONT 2.1
FONT -misc-spleen-medium-r-normal--8-80-72-72-C-50-ISO10646-1
SIZE 8 72 72
FONTBOUNDINGBOX 5 8 0 -1
COMMENT "Generated by fontforge, http://fontforge.sourceforge.net"
COMMENT "/*"
COMMENT "* Spleen 5x8 2.2.0"
COMMENT "* Copyright (c) 2018-2026, Frederic Cambus"
COMMENT "* https://www.cambus.net/"
COMMENT "*"
COMMENT "* Created:      2018-08-08"
COMMENT "* Last Updated: 2021-03-10"
COMMENT "*"
COMMENT "* Spleen is released under the BSD 2-Clause license."
COMMENT "* See LICENSE file for details."
COMMENT "*"
COMMENT "* SPDX-License-Identifier: BSD-2-Clause"
COMMENT "*/"
STARTPROPERTIES 20
FAMILY_NAME "Spleen"
WEIGHT_NAME "Medium"
FONT_VERSION "2.2.0"
FOUNDRY "misc"
SLANT "R"
SETWIDTH_NAME "Normal"
PIXEL_SIZE 8
POINT_SIZE 80
RESOLUTION_X 72
RESOLUTION_Y 72
SPACING "C"
AVERAGE_WIDTH 50
CHARSET_REGISTRY "ISO10646"
CHARSET_ENCODING "1"
MIN_SPACE 5
FONT_DESCENT 1
FONT_ASCENT 7
COPYRIGHT "Copyright (c) 2018-2026, Frederic Cambus"
DEFAULT_CHAR 32
_GBDFED_INFO "Edited with gbdfed 1.6."
ENDPROPERTIES
CHARS 95
STARTCHAR SPACE
ENCODING 32
SWIDTH 625 0
DWIDTH 5 0
BBX 1 1 4 -1
BITMAP
00
ENDCHAR
STARTCHAR EXCLAMATION
ENCODING 33
SWIDTH 625 0
DWIDTH 5 0
BBX 1 7 2 0
BITMAP
80
80
80
80
80
00
80
ENDCHAR
STARTCHAR QUOTATION
ENCODING 34
SWIDTH 625 0
DWIDTH 5 0
BBX 3 3 1 4
BITMAP
A0
A0
A0
ENDCHAR
STARTCHAR NUMBER
ENCODING 35
SWIDTH 625 0
DWIDTH 5 0
BBX 5 6 0 0
BITMAP
50
F8
50
50
F8
50
ENDCHAR
STARTCHAR DOLLAR
ENCODING 36
SWIDTH 625 0
DWIDTH 5 0
BBX 4 8 0 -1
BITMAP
20
70
A0
60
30
30
E0
20
ENDCHAR
STARTCHAR PERCENT
ENCODING 37
SWIDTH 625 0
DWIDTH 5 0
BBX 4 8 0 -1
BITMAP
10
90
A0
20
40
50
90
80
ENDCHAR
STARTCHAR AMPERSAND
ENCODING 38
SWIDTH 625 0
DWIDTH 5 0
BBX 5 7 0 0
BITMAP
20
50
50
60
A8
90
68
ENDCHAR
STARTCHAR APOSTROPHE
ENCODING 39
SWIDTH 625 0
DWIDTH 5 0
BBX 1 3 2 4
BITMAP
80
80
80
ENDCHAR
STARTCHAR LEFT
ENCODING 40
SWIDTH 625 0
DWIDTH 5 0
BBX 3 8 1 -1
BITMAP
20
40
80
80
80
80
40
20
ENDCHAR
STARTCHAR RIGHT
ENCODING 41
SWIDTH 625 0
DWIDTH 5 0
BBX 3 8 1 -1
BITMAP
80
40
20
20
20
20
40
80
ENDCHAR
STARTCHAR ASTERISK
ENCODING 42
SWIDTH 625 0
DWIDTH 5 0
BBX 4 5 0 0
BITMAP
90
60
F0
60
90
ENDCHAR
STARTCHAR PLUS
ENCODING 43
SWIDTH 625 0
DWIDTH 5 0
BBX 5 5 0 0
BITMAP
20
20
F8
20
20
ENDCHAR
STARTCHAR COMMA
ENCODING 44
SWIDTH 625 0
DWIDTH 5 0
BBX 2 3 1 -1
BITMAP
40
40
80
ENDCHAR
STARTCHAR HYPHEN-MINUS
ENCODING 45
SWIDTH 625 0
DWIDTH 5 0
BBX 4 1 0 2
BITMAP
F0
ENDCHAR
STARTCHAR FULL
ENCODING 46
SWIDTH 625 0
DWIDTH 5 0
BBX 1 1 2 0
BITMAP
80
ENDCHAR
STARTCHAR SOLIDUS
ENCODING 47
SWIDTH 625 0
DWIDTH 5 0
BBX 4 8 0 -1
BITMAP
10
10
20
20
40
40
80
80
ENDCHAR
STARTCHAR DIGIT
ENCODING 48
SWIDTH 625 0
DWIDTH 5 0
BBX 4 6 0 0
BITMAP
60
90
B0
D0
90
60
ENDCHAR
STARTCHAR DIGIT
ENCODING 49
SWIDTH 625 0
DWIDTH 5 0
BBX 3 6 1 0
BITMAP
40
C0
40
40
40
E0
ENDCHAR
STARTCHAR DIGIT
ENCODING 50
SWIDTH 625 0
DWIDTH 5 0
BBX 4 6 0 0
BITMAP
60
90
10
60
80
F0
ENDCHAR
STARTCHAR DIGIT
ENCODING 51
SWIDTH 625 0
DWIDTH 5 0
BBX 4 6 0 0
BITMAP
60
90
20
10
90
60
ENDCHAR
STARTCHAR DIGIT
ENCODING 52
SWIDTH 625 0
DWIDTH 5 0
BBX 4 6 0 0
BITMAP
80
A0
A0
F0
20
20
ENDCHAR
STARTCHAR DIGIT
ENCODING 53
SWIDTH 625 0
DWIDTH 5 0
BBX 4 6 0 0
BITMAP
F0
80
E0
10
10
E0
ENDCHAR
STARTCHAR DIGIT
ENCODING 54
SWIDTH 625 0
DWIDTH 5 0
BBX 4 6 0 0
BITMAP
60
80
E0
90
90
60
ENDCHAR
STARTCHAR DIGIT
ENCODING 55
SWIDTH 625 0
DWIDTH 5 0
BBX 4 6 0 0
BITMAP
F0
90
10
20
40
40
ENDCHAR
STARTCHAR DIGIT
ENCODING 56
SWIDTH 625 0
DWIDTH 5 0
BBX 4 6 0 0
BITMAP
60
90
60
90
90
60
ENDCHAR
STARTCHAR DIGIT
ENCODING 57
SWIDTH 625 0
DWIDTH 5 0
BBX 4 6 0 0
BITMAP
60
90
90
70
10
60
ENDCHAR
STARTCHAR COLON
ENCODING 58
SWIDTH 625 0
DWIDTH 5 0
BBX 1 4 2 0
BITMAP
80
00
00
80
ENDCHAR
STARTCHAR SEMICOLON
ENCODING 59
SWIDTH 625 0
DWIDTH 5 0
BBX 2 5 1 -1
BITMAP
40
00
40
40
80
ENDCHAR
STARTCHAR LESS-THAN
ENCODING 60
SWIDTH 625 0
DWIDTH 5 0
BBX 3 6 1 0
BITMAP
20
40
80
80
40
20
ENDCHAR
STARTCHAR EQUALS
ENCODING 61
SWIDTH 625 0
DWIDTH 5 0
BBX 4 3 0 1
BITMAP
F0
00
F0
ENDCHAR
STARTCHAR GREATER-THAN
ENCODING 62
SWIDTH 625 0
DWIDTH 5 0
BBX 3 6 1 0
BITMAP
80
40
20
20
40
80
ENDCHAR
STARTCHAR QUESTION
ENCODING 63
SWIDTH 625 0
DWIDTH 5 0
BBX 4 7 0 0
BITMAP
60
90
10
20
40
00
40
ENDCHAR
STARTCHAR COMMERCIAL
ENCODING 64
SWIDTH 625 0
DWIDTH 5 0
BBX 4 6 0 0
BITMAP
60
90
B0
B0
80
70
ENDCHAR
STARTCHAR LATIN
ENCODING 65
SWIDTH 625 0
DWIDTH 5 0
BBX 4 6 0 0
BITMAP
60
90
90
F0
90
90
ENDCHAR
STARTCHAR LATIN
ENCODING 66
SWIDTH 625 0
DWIDTH 5 0
BBX 4 6 0 0
BITMAP
E0
90
E0
90
90
E0
ENDCHAR
STARTCHAR LATIN
ENCODING 67
SWIDTH 625 0
DWIDTH 5 0
BBX 4 6 0 0
BITMAP
70
80
80
80
80
70
ENDCHAR
STARTCHAR LATIN
ENCODING 68
SWIDTH 625 0
DWIDTH 5 0
BBX 4 6 0 0
BITMAP
E0
90
90
90
90
E0
ENDCHAR
STARTCHAR LATIN
ENCODING 69
SWIDTH 625 0
DWIDTH 5 0
BBX 4 6 0 0
BITMAP
70
80
E0
80
80
70
ENDCHAR
STARTCHAR LATIN
ENCODING 70
SWIDTH 625 0
DWIDTH 5 0
BBX 4 6 0 0
BITMAP
70
80
80
E0
80
80
ENDCHAR
STARTCHAR LATIN
ENCODING 71
SWIDTH 625 0
DWIDTH 5 0
BBX 4 6 0 0
BITMAP
70
80
B0
90
90
70
ENDCHAR
STARTCHAR LATIN
ENCODING 72
SWIDTH 625 0
DWIDTH 5 0
BBX 4 6 0 0
BITMAP
90
90
F0
90
90
90
ENDCHAR
STARTCHAR LATIN
ENCODING 73
SWIDTH 625 0
DWIDTH 5 0
BBX 3 6 1 0
BITMAP
E0
40
40
40
40
E0
ENDCHAR
STARTCHAR LATIN
ENCODING 74
SWIDTH 625 0
DWIDTH 5 0
BBX 4 6 0 0
BITMAP
70
20
20
20
20
C0
ENDCHAR
STARTCHAR LATIN
ENCODING 75
SWIDTH 625 0
DWIDTH 5 0
BBX 4 6 0 0
BITMAP
90
90
E0
90
90
90
ENDCHAR
STARTCHAR LATIN
ENCODING 76
SWIDTH 625 0
DWIDTH 5 0
BBX 4 6 0 0
BITMAP
80
80
80
80
80
70
ENDCHAR
STARTCHAR LATIN
ENCODING 77
SWIDTH 625 0
DWIDTH 5 0
BBX 4 6 0 0
BITMAP
90
F0
F0
90
90
90
ENDCHAR
STARTCHAR LATIN
ENCODING 78
SWIDTH 625 0
DWIDTH 5 0
BBX 4 6 0 0
BITMAP
90
D0
D0
B0
B0
90
ENDCHAR
STARTCHAR LATIN
ENCODING 79
SWIDTH 625 0
DWIDTH 5 0
BBX 4 6 0 0
BITMAP
60
90
90
90
90
60
ENDCHAR
STARTCHAR LATIN
ENCODING 80
SWIDTH 625 0
DWIDTH 5 0
BBX 4 6 0 0
BITMAP
E0
90
90
E0
80
80
ENDCHAR
STARTCHAR LATIN
ENCODING 81
SWIDTH 625 0
DWIDTH 5 0
BBX 4 7 0 -1
BITMAP
60
90
90
90
90
60
30
ENDCHAR
STARTCHAR LATIN
ENCODING 82
SWIDTH 625 0
DWIDTH 5 0
BBX 4 6 0 0
BITMAP
E0
90
90
E0
90
90
ENDCHAR
STARTCHAR LATIN
ENCODING 83
SWIDTH 625 0
DWIDTH 5 0
BBX 4 6 0 0
BITMAP
70
80
60
10
10
E0
ENDCHAR
STARTCHAR LATIN
ENCODING 84
SWIDTH 625 0
DWIDTH 5 0
BBX 5 6 0 0
BITMAP
F8
20
20
20
20
20
ENDCHAR
STARTCHAR LATIN
ENCODING 85
SWIDTH 625 0
DWIDTH 5 0
BBX 4 6 0 0
BITMAP
90
90
90
90
90
70
ENDCHAR
STARTCHAR LATIN
ENCODING 86
SWIDTH 625 0
DWIDTH 5 0
BBX 4 6 0 0
BITMAP
90
90
90
90
60
60
ENDCHAR
STARTCHAR LATIN
ENCODING 87
SWIDTH 625 0
DWIDTH 5 0
BBX 4 6 0 0
BITMAP
90
90
90
F0
F0
90
ENDCHAR
STARTCHAR LATIN
ENCODING 88
SWIDTH 625 0
DWIDTH 5 0
BBX 4 6 0 0
BITMAP
90
90
60
60
90
90
ENDCHAR
STARTCHAR LATIN
ENCODING 89
SWIDTH 625 0
DWIDTH 5 0
BBX 4 6 0 0
BITMAP
90
90
90
70
10
E0
ENDCHAR
STARTCHAR LATIN
ENCODING 90
SWIDTH 625 0
DWIDTH 5 0
BBX 4 6 0 0
BITMAP
F0
10
20
40
80
F0
ENDCHAR
STARTCHAR LEFT
ENCODING 91
SWIDTH 625 0
DWIDTH 5 0
BBX 3 8 1 -1
BITMAP
E0
80
80
80
80
80
80
E0
ENDCHAR
STARTCHAR REVERSE
ENCODING 92
SWIDTH 625 0
DWIDTH 5 0
BBX 4 8 0 -1
BITMAP
80
80
40
40
20
20
10
10
ENDCHAR
STARTCHAR RIGHT
ENCODING 93
SWIDTH 625 0
DWIDTH 5 0
BBX 3 8 1 -1
BITMAP
E0
20
20
20
20
20
20
E0
ENDCHAR
STARTCHAR CIRCUMFLEX
ENCODING 94
SWIDTH 625 0
DWIDTH 5 0
BBX 5 3 0 3
BITMAP
20
50
88
ENDCHAR
STARTCHAR LOW
ENCODING 95
SWIDTH 625 0
DWIDTH 5 0
BBX 4 1 0 -1
BITMAP
F0
ENDCHAR
STARTCHAR GRAVE
ENCODING 96
SWIDTH 625 0
DWIDTH 5 0
BBX 2 2 1 5
BITMAP
80
40
ENDCHAR
STARTCHAR LATIN
ENCODING 97
SWIDTH 625 0
DWIDTH 5 0
BBX 4 5 0 0
BITMAP
60
10
70
90
70
ENDCHAR
STARTCHAR LATIN
ENCODING 98
SWIDTH 625 0
DWIDTH 5 0
BBX 4 7 0 0
BITMAP
80
80
E0
90
90
90
E0
ENDCHAR
STARTCHAR LATIN
ENCODING 99
SWIDTH 625 0
DWIDTH 5 0
BBX 4 5 0 0
BITMAP
70
80
80
80
70
ENDCHAR
STARTCHAR LATIN
ENCODING 100
SWIDTH 625 0
DWIDTH 5 0
BBX 4 7 0 0
BITMAP
10
10
70
90
90
90
70
ENDCHAR
STARTCHAR LATIN
ENCODING 101
SWIDTH 625 0
DWIDTH 5 0
BBX 4 5 0 0
BITMAP
70
90
F0
80
70
ENDCHAR
STARTCHAR LATIN
ENCODING 102
SWIDTH 625 0
DWIDTH 5 0
BBX 4 7 0 0
BITMAP
30
40
40
E0
40
40
40
ENDCHAR
STARTCHAR LATIN
ENCODING 103
SWIDTH 625 0
DWIDTH 5 0
BBX 4 6 0 -1
BITMAP
70
90
90
60
10
E0
ENDCHAR
STARTCHAR LATIN
ENCODING 104
SWIDTH 625 0
DWIDTH 5 0
BBX 4 7 0 0
BITMAP
80
80
E0
90
90
90
90
ENDCHAR
STARTCHAR LATIN
ENCODING 105
SWIDTH 625 0
DWIDTH 5 0
BBX 3 6 1 0
BITMAP
40
00
C0
40
40
60
ENDCHAR
STARTCHAR LATIN
ENCODING 106
SWIDTH 625 0
DWIDTH 5 0
BBX 3 7 0 -1
BITMAP
20
00
20
20
20
20
C0
ENDCHAR
STARTCHAR LATIN
ENCODING 107
SWIDTH 625 0
DWIDTH 5 0
BBX 4 7 0 0
BITMAP
80
80
90
A0
C0
A0
90
ENDCHAR
STARTCHAR LATIN
ENCODING 108
SWIDTH 625 0
DWIDTH 5 0
BBX 3 7 1 0
BITMAP
80
80
80
80
80
80
60
ENDCHAR
STARTCHAR LATIN
ENCODING 109
SWIDTH 625 0
DWIDTH 5 0
BBX 4 5 0 0
BITMAP
90
F0
F0
90
90
ENDCHAR
STARTCHAR LATIN
ENCODING 110
SWIDTH 625 0
DWIDTH 5 0
BBX 4 5 0 0
BITMAP
E0
90
90
90
90
ENDCHAR
STARTCHAR LATIN
ENCODING 111
SWIDTH 625 0
DWIDTH 5 0
BBX 4 5 0 0
BITMAP
60
90
90
90
60
ENDCHAR
STARTCHAR LATIN
ENCODING 112
SWIDTH 625 0
DWIDTH 5 0
BBX 4 6 0 -1
BITMAP
E0
90
90
E0
80
80
ENDCHAR
STARTCHAR LATIN
ENCODING 113
SWIDTH 625 0
DWIDTH 5 0
BBX 4 6 0 -1
BITMAP
70
90
90
70
10
10
ENDCHAR
STARTCHAR LATIN
ENCODING 114
SWIDTH 625 0
DWIDTH 5 0
BBX 4 5 0 0
BITMAP
70
90
80
80
80
ENDCHAR
STARTCHAR LATIN
ENCODING 115
SWIDTH 625 0
DWIDTH 5 0
BBX 4 5 0 0
BITMAP
70
80
60
10
E0
ENDCHAR
STARTCHAR LATIN
ENCODING 116
SWIDTH 625 0
DWIDTH 5 0
BBX 4 7 0 0
BITMAP
40
40
E0
40
40
40
30
ENDCHAR
STARTCHAR LATIN
ENCODING 117
SWIDTH 625 0
DWIDTH 5 0
BBX 4 5 0 0
BITMAP
90
90
90
90
70
ENDCHAR
STARTCHAR LATIN
ENCODING 118
SWIDTH 625 0
DWIDTH 5 0
BBX 4 5 0 0
BITMAP
90
90
90
60
60
ENDCHAR
STARTCHAR LATIN
ENCODING 119
SWIDTH 625 0
DWIDTH 5 0
BBX 4 5 0 0
BITMAP
90
90
F0
F0
90
ENDCHAR
STARTCHAR LATIN
ENCODING 120
SWIDTH 625 0
DWIDTH 5 0
BBX 4 5 0 0
BITMAP
90
60
60
90
90
ENDCHAR
STARTCHAR LATIN
ENCODING 121
SWIDTH 625 0
DWIDTH 5 0
BBX 4 6 0 -1
BITMAP
90
90
90
70
10
E0
ENDCHAR
STARTCHAR LATIN
ENCODING 122
SWIDTH 625 0
DWIDTH 5 0
BBX 4 5 0 0
BITMAP
F0
10
20
40
F0
ENDCHAR
STARTCHAR LEFT
ENCODING 123
SWIDTH 625 0
DWIDTH 5 0
BBX 4 8 0 -1
BITMAP
30
40
40
C0
C0
40
40
30
ENDCHAR
STARTCHAR VERTICAL
ENCODING 124
SWIDTH 625 0
DWIDTH 5 0
BBX 1 8 2 -1
BITMAP
80
80
80
80
80
80
80
80
ENDCHAR
STARTCHAR RIGHT
ENCODING 125
SWIDTH 625 0
DWIDTH 5 0
BBX 4 8 0 -1
BITMAP
C0
20
20
30
30
20
20
C0
ENDCHAR
STARTCHAR TILDE
ENCODING 126
SWIDTH 625 0
DWIDTH 5 0
BBX 5 2 0 2
BITMAP
48
B0
ENDCHAR
ENDFONT
